<svg width="512" height="512" viewBox="0 0 512 512" fill="none" xmlns="http://www.w3.org/2000/svg">
<circle cx="256" cy="256" r="256" fill="url(#paint0_linear_210_212)"/>
<path d="M339.68 266.002C333.759 267.231 297.747 262.667 294.562 269.595C289.627 275.83 299.033 286.101 285.091 288.243C271.121 286.079 280.57 275.837 275.606 269.581C272.142 263.203 250.594 266.938 244.93 266.002V251.689C273.799 247.547 274.785 203.65 244.93 199.779C243.966 195.701 247.566 141.698 242.23 140.191C240.502 138.512 238.166 137.57 235.767 137.662C173.9 138.084 122.218 194.422 126.104 256.41C127.068 287.301 76.1505 328.769 132.796 337.918C139.745 397.113 152.587 388.207 204.048 388.636C205.133 388.636 206.076 389.378 206.34 390.443L212.318 414.705C214.861 425.468 225.246 431.818 236.002 430.789H290.962C340.323 429.004 331.738 376.644 331.916 342.439C331.916 326.655 335.309 310.956 342.001 295.786C345.444 286.786 355.55 267.852 339.673 266.017L339.68 266.002ZM143.967 256.403C140.603 207.286 178.55 161.261 227.089 156.19C228.46 161.803 223.51 213.899 230.674 216.249C232.931 217.935 235.852 218.456 238.552 217.656C245.53 215.192 251.944 223.291 248.437 229.512C244.637 237.762 236.245 230.834 230.667 235.205C224.282 238.669 228.024 260.338 227.089 266.002H212.897C208.783 236.883 165.093 236.89 160.987 266.002H143.224C143.724 262.838 143.974 259.631 143.974 256.403H143.967ZM204.055 370.773C153.673 368.251 158.38 383.736 150.338 334.547C148.452 321.755 134.953 319.884 124.654 317.52C123.69 317.163 123.397 316.556 123.697 315.584L137.589 283.865C143.531 282.715 174.093 287.065 177.464 280.273C182.392 274.073 172.979 263.781 186.927 261.624C200.891 263.795 191.449 274.03 196.405 280.287C199.869 286.665 221.411 282.937 227.074 283.865V299.214C197.969 303.471 197.512 347.432 227.074 351.124V399.963C224.317 386.55 221.025 370.823 204.048 370.787L204.055 370.773ZM325.674 288.565C298.44 339.961 334.894 410.991 290.976 412.919H244.944C243.559 408.213 248.566 335.197 241.359 334.626C236.131 330.476 230.324 336.061 224.789 331.404C220.282 325.526 223.617 316.748 231.117 316.748C251.508 322.198 243.409 294.636 244.952 283.851H259.15C263.257 312.97 306.961 312.963 311.061 283.851H327.609C327.009 285.437 326.367 287.008 325.681 288.558L325.674 288.565ZM394.783 140.491C381.519 112.993 358.264 92.4588 329.252 82.6596C324.545 80.7669 319.117 83.081 317.403 87.8949L296.205 146.705C294.098 152.097 298.304 158.468 304.09 158.646C316.946 159.489 312.675 178.945 300.733 174.952C295.605 170.938 287.377 171.01 284.927 177.995L273.878 208.643C272.164 213.121 274.706 218.535 279.249 220.07L301.004 227.912C295.326 256.946 335.559 271.559 349.843 245.518L376.777 255.225C380.648 256.625 384.976 255.189 387.247 251.753C409.081 218.999 412.188 175.881 394.783 140.505V140.491ZM382.505 221.642C380.719 226.591 378.534 231.384 375.977 235.948C370.013 234.983 344.672 221.342 339.166 226.498C335.737 228.498 335.402 232.291 334.687 235.776C333.116 240.133 328.295 242.404 323.931 240.833C311.646 234.305 323.724 227.834 321.338 220.056C320.246 212.885 298.704 209.085 293.698 206.293L298.554 192.822C327.116 198.715 342.93 157.754 316.16 143.983L331.116 102.487C376.041 120.942 399.968 176.167 382.498 221.642H382.505Z" fill="white"/>
<defs>
<linearGradient id="paint0_linear_210_212" x1="344.32" y1="96" x2="85.76" y2="512" gradientUnits="userSpaceOnUse">
<stop stop-color="#FFB700"/>
<stop offset="1" stop-color="#FF9738"/>
</linearGradient>
</defs>
</svg>
