<svg width="512" height="512" viewBox="0 0 512 512" fill="none" xmlns="http://www.w3.org/2000/svg">
<circle cx="256" cy="256" r="256" fill="url(#paint0_linear_210_196)"/>
<g clip-path="url(#clip0_210_196)">
<path d="M115.375 171.625C112.889 171.625 110.504 170.637 108.746 168.879C106.988 167.121 106 164.736 106 162.25V115.375C106 112.889 106.988 110.504 108.746 108.746C110.504 106.988 112.889 106 115.375 106H162.25C164.736 106 167.121 106.988 168.879 108.746C170.637 110.504 171.625 112.889 171.625 115.375C171.625 117.861 170.637 120.246 168.879 122.004C167.121 123.762 164.736 124.75 162.25 124.75H124.75V162.25C124.75 164.736 123.762 167.121 122.004 168.879C120.246 170.637 117.861 171.625 115.375 171.625ZM396.625 171.625C394.139 171.625 391.754 170.637 389.996 168.879C388.238 167.121 387.25 164.736 387.25 162.25V124.75H349.75C347.264 124.75 344.879 123.762 343.121 122.004C341.363 120.246 340.375 117.861 340.375 115.375C340.375 112.889 341.363 110.504 343.121 108.746C344.879 106.988 347.264 106 349.75 106H396.625C399.111 106 401.496 106.988 403.254 108.746C405.012 110.504 406 112.889 406 115.375V162.25C406 164.736 405.012 167.121 403.254 168.879C401.496 170.637 399.111 171.625 396.625 171.625ZM162.25 406H115.375C112.889 406 110.504 405.012 108.746 403.254C106.988 401.496 106 399.111 106 396.625V349.75C106 347.264 106.988 344.879 108.746 343.121C110.504 341.363 112.889 340.375 115.375 340.375C117.861 340.375 120.246 341.363 122.004 343.121C123.762 344.879 124.75 347.264 124.75 349.75V387.25H162.25C164.736 387.25 167.121 388.238 168.879 389.996C170.637 391.754 171.625 394.139 171.625 396.625C171.625 399.111 170.637 401.496 168.879 403.254C167.121 405.012 164.736 406 162.25 406ZM396.625 406H349.75C347.264 406 344.879 405.012 343.121 403.254C341.363 401.496 340.375 399.111 340.375 396.625C340.375 394.139 341.363 391.754 343.121 389.996C344.879 388.238 347.264 387.25 349.75 387.25H387.25V349.75C387.25 347.264 388.238 344.879 389.996 343.121C391.754 341.363 394.139 340.375 396.625 340.375C399.111 340.375 401.496 341.363 403.254 343.121C405.012 344.879 406 347.264 406 349.75V396.625C406 399.111 405.012 401.496 403.254 403.254C401.496 405.012 399.111 406 396.625 406ZM246.625 261.559L143.5 205.309V316.056C143.5 317.741 143.953 319.394 144.813 320.842C145.672 322.291 146.906 323.481 148.384 324.288L246.625 377.875V261.559ZM256 245.322L359.125 189.072L260.491 135.269C259.113 134.517 257.569 134.123 256 134.123C254.431 134.123 252.887 134.517 251.509 135.269L152.875 189.072L256 245.322ZM265.375 261.569V377.875L363.616 324.288C365.094 323.481 366.328 322.291 367.187 320.842C368.047 319.394 368.5 317.741 368.5 316.056V205.319L265.375 261.569Z" fill="white"/>
</g>
<defs>
<linearGradient id="paint0_linear_210_196" x1="449.28" y1="32" x2="85.76" y2="512" gradientUnits="userSpaceOnUse">
<stop stop-color="#A522E2"/>
<stop offset="1" stop-color="#900AA6"/>
</linearGradient>
<clipPath id="clip0_210_196">
<rect width="300" height="300" fill="white" transform="translate(106 106)"/>
</clipPath>
</defs>
</svg>
