<svg width="512" height="512" viewBox="0 0 512 512" fill="none" xmlns="http://www.w3.org/2000/svg">
<circle cx="256" cy="256" r="256" fill="url(#paint0_linear_210_193)"/>
<path d="M403.458 106H108.542C107.868 106 107.221 106.268 106.745 106.746C106.268 107.224 106 107.872 106 108.548V404.089C106 404.764 106.268 405.412 106.745 405.89C107.221 406.368 107.868 406.636 108.542 406.636H403.458C404.132 406.636 404.779 406.368 405.255 405.89C405.732 405.412 406 404.764 406 404.089V108.548C406 107.872 405.732 107.224 405.255 106.746C404.779 106.268 404.132 106 403.458 106ZM141.593 118.739C142.096 118.739 142.588 118.888 143.006 119.168C143.424 119.448 143.75 119.846 143.942 120.312C144.134 120.777 144.185 121.289 144.087 121.784C143.989 122.278 143.747 122.732 143.391 123.088C143.035 123.444 142.582 123.687 142.089 123.785C141.596 123.884 141.085 123.833 140.62 123.64C140.156 123.448 139.759 123.121 139.479 122.702C139.2 122.283 139.051 121.791 139.051 121.287C139.051 120.611 139.319 119.963 139.795 119.485C140.272 119.007 140.919 118.739 141.593 118.739ZM131.424 118.739C131.927 118.739 132.418 118.888 132.836 119.168C133.254 119.448 133.58 119.846 133.773 120.312C133.965 120.777 134.015 121.289 133.917 121.784C133.819 122.278 133.577 122.732 133.221 123.088C132.866 123.444 132.413 123.687 131.92 123.785C131.427 123.884 130.915 123.833 130.451 123.64C129.986 123.448 129.589 123.121 129.31 122.702C129.03 122.283 128.881 121.791 128.881 121.287C128.881 120.611 129.149 119.963 129.626 119.485C130.103 119.007 130.749 118.739 131.424 118.739ZM121.254 118.739C121.757 118.739 122.249 118.888 122.667 119.168C123.085 119.448 123.411 119.846 123.603 120.312C123.796 120.777 123.846 121.289 123.748 121.784C123.65 122.278 123.408 122.732 123.052 123.088C122.696 123.444 122.243 123.687 121.75 123.785C121.257 123.884 120.746 123.833 120.281 123.64C119.817 123.448 119.42 123.121 119.14 122.702C118.861 122.283 118.712 121.791 118.712 121.287C118.712 120.611 118.98 119.963 119.457 119.485C119.933 119.007 120.58 118.739 121.254 118.739ZM343.648 180.406V192.624C343.652 194.929 344.435 197.165 345.869 198.968C347.303 200.77 349.304 202.032 351.546 202.55V205.416L328.87 205.381H328.845C325.084 205.378 321.455 206.77 318.657 209.29L316.348 209.498L315.209 196.809L330.404 195.438C330.736 195.408 331.06 195.313 331.356 195.158C331.651 195.002 331.914 194.79 332.128 194.533C332.342 194.277 332.503 193.98 332.603 193.661C332.702 193.341 332.738 193.005 332.708 192.672C332.678 192.339 332.583 192.015 332.428 191.718C332.273 191.422 332.062 191.159 331.805 190.945C331.549 190.73 331.253 190.569 330.934 190.469C330.616 190.369 330.281 190.333 329.948 190.363L314.752 191.732L313.612 179.041L328.807 177.671C329.139 177.641 329.462 177.546 329.758 177.391C330.054 177.235 330.316 177.023 330.53 176.767C330.744 176.51 330.906 176.213 331.005 175.894C331.105 175.574 331.141 175.239 331.111 174.905C331.081 174.572 330.986 174.248 330.831 173.952C330.676 173.655 330.464 173.392 330.208 173.178C329.952 172.963 329.656 172.802 329.337 172.702C329.019 172.602 328.683 172.566 328.351 172.596L310.624 174.194C310.291 174.224 309.967 174.319 309.672 174.475C309.376 174.63 309.113 174.842 308.899 175.099C308.685 175.356 308.524 175.652 308.424 175.972C308.325 176.291 308.289 176.627 308.319 176.96L311.51 212.489C311.567 213.122 311.858 213.711 312.326 214.14C312.794 214.57 313.405 214.808 314.039 214.809C314.116 214.809 314.193 214.806 314.27 214.799L314.785 214.753C314.484 215.468 314.237 216.204 314.046 216.957L313.283 220.006L273.724 223.573L273.711 223.041C273.695 222.359 273.497 221.694 273.139 221.115C272.78 220.536 272.273 220.063 271.671 219.746C271.068 219.429 270.392 219.28 269.713 219.313C269.033 219.346 268.375 219.561 267.806 219.935L265.765 221.277L260.091 215.917C259.147 215.023 257.896 214.526 256.598 214.529C255.299 214.531 254.051 215.033 253.11 215.93L250.08 182.216C250.057 181.877 249.967 181.547 249.814 181.244C249.662 180.941 249.451 180.672 249.194 180.452C248.936 180.232 248.637 180.066 248.315 179.963C247.993 179.86 247.653 179.822 247.316 179.853C246.979 179.883 246.651 179.981 246.352 180.14C246.053 180.299 245.789 180.516 245.575 180.778C245.361 181.041 245.201 181.344 245.105 181.669C245.01 181.994 244.979 182.335 245.017 182.672L247.35 208.643L229.379 182.815C229.058 182.354 228.595 182.013 228.06 181.843C227.525 181.674 226.95 181.686 226.423 181.879C225.897 182.071 225.448 182.432 225.147 182.906C224.847 183.381 224.711 183.941 224.761 184.501L227.953 220.025C228.01 220.658 228.301 221.247 228.769 221.677C229.237 222.106 229.848 222.344 230.482 222.345C230.558 222.345 230.635 222.345 230.713 222.334C231.384 222.274 232.004 221.948 232.436 221.43C232.868 220.911 233.077 220.242 233.017 219.569L230.684 193.599L248.656 219.427C249.038 219.971 249.617 220.344 250.27 220.466L247.128 225.975L132.418 236.323L127.854 185.57L339.933 166.437L339.898 171.087C339.877 174.567 341.225 177.915 343.648 180.406ZM369.326 190.076L371.748 184.678C373.378 181.042 373.6 176.928 372.37 173.137C371.14 169.346 368.546 166.149 365.094 164.169L386.132 162.271L390.009 205.473L369.336 205.442V190.076H369.326ZM356.36 197.72H353.818C352.47 197.718 351.177 197.181 350.224 196.225C349.271 195.27 348.735 193.975 348.733 192.624V183.662C349.292 183.864 349.865 184.028 350.446 184.151L352.547 184.585V190.076C352.548 191.427 353.084 192.722 354.038 193.678C354.991 194.633 356.283 195.17 357.631 195.172H363.763C363.929 195.172 364.093 195.155 364.257 195.139V205.363H356.63V202.788C357.278 202.721 357.875 202.407 358.298 201.912C358.721 201.416 358.937 200.776 358.902 200.125C358.868 199.474 358.584 198.861 358.111 198.413C357.638 197.965 357.011 197.717 356.36 197.72ZM295.298 248.675L273.848 228.811V228.684L311.984 225.244L305.958 248.675H295.298ZM304.648 253.77L303.908 256.648L300.799 253.77H304.648ZM250.876 229.682C250.897 229.647 250.917 229.613 250.936 229.578L256.61 219.628L263.745 226.367C264.161 226.759 264.697 227 265.267 227.05C265.836 227.1 266.405 226.957 266.883 226.642L268.687 225.456L268.793 230.009C268.801 230.351 268.878 230.687 269.018 230.998C269.158 231.309 269.359 231.589 269.609 231.821L303.586 263.286C303.909 263.584 304.303 263.793 304.731 263.893C305.159 263.993 305.605 263.98 306.026 263.856C306.448 263.731 306.83 263.5 307.135 263.183C307.44 262.867 307.659 262.477 307.769 262.051L316.445 228.293L329.068 228.309L320.239 266.509C319.586 269.334 318.2 271.936 316.221 274.051C314.242 276.166 311.74 277.72 308.969 278.554C306.198 279.388 303.256 279.473 300.441 278.801C297.626 278.129 295.039 276.723 292.941 274.726L249.027 232.92L250.876 229.682ZM327.225 258.866L329.729 248.033V258.866H327.225ZM268.903 258.866H230.576C229.902 258.866 229.255 259.134 228.779 259.612C228.302 260.09 228.034 260.738 228.034 261.414V286.891C228.034 287.567 228.302 288.215 228.779 288.693C229.255 289.171 229.902 289.439 230.576 289.439H327.281L322.564 324.137C322.247 326.456 322.223 328.805 322.491 331.13L328.833 386.254H222.949V253.77H263.548L268.903 258.866ZM351.495 327.709L357.288 294.535H360.237V324.754C360.238 326.875 360.478 328.989 360.954 331.056L373.665 386.254H359.247L351.495 327.709ZM366.812 401.541H361.21L360.218 393.579C360.218 393.573 360.214 393.566 360.213 393.56L359.919 391.35H374.836L375.237 393.095L366.812 401.541ZM400.915 371.527L390.746 327.366V284.344H391.064C394.692 284.346 398.195 283.019 400.915 280.612V371.527ZM400.915 269.376C400.912 271.993 399.874 274.503 398.027 276.353C396.18 278.204 393.676 279.245 391.064 279.248H390.746V228.297L400.915 228.311V269.376ZM400.915 223.216L388.207 223.197C387.873 223.197 387.542 223.262 387.233 223.39C386.924 223.518 386.644 223.706 386.407 223.942C386.171 224.179 385.983 224.46 385.855 224.769C385.727 225.079 385.661 225.41 385.661 225.745V269.057H334.814V225.767C334.814 225.092 334.546 224.444 334.069 223.966C333.592 223.488 332.945 223.22 332.271 223.22L317.727 223.202L318.976 218.193C319.524 215.987 320.792 214.028 322.58 212.628C324.368 211.229 326.572 210.471 328.841 210.474H328.858L390.757 210.569C393.451 210.577 396.031 211.653 397.934 213.563C399.837 215.473 400.908 218.061 400.912 220.76L400.915 223.216ZM400.915 209.381C399.262 207.893 397.305 206.784 395.18 206.133L390.971 159.273C390.941 158.94 390.846 158.616 390.691 158.319C390.536 158.023 390.324 157.76 390.068 157.546C389.812 157.331 389.516 157.169 389.197 157.07C388.879 156.97 388.544 156.934 388.211 156.964L126.148 180.608C126.273 180.304 126.338 179.98 126.339 179.652V175.02C126.339 174.344 126.071 173.696 125.594 173.218C125.118 172.74 124.471 172.472 123.797 172.472C123.122 172.472 122.476 172.74 121.999 173.218C121.522 173.696 121.254 174.344 121.254 175.02V179.652C121.255 180.164 121.41 180.665 121.699 181.087C121.988 181.51 122.398 181.835 122.874 182.02C122.626 182.466 122.517 182.977 122.562 183.485L127.583 239.314C127.64 239.947 127.931 240.535 128.399 240.964C128.867 241.393 129.478 241.632 130.112 241.632C130.188 241.632 130.265 241.629 130.343 241.623L244.189 231.354C243.894 232.267 243.863 233.244 244.099 234.174C244.336 235.104 244.83 235.948 245.524 236.608L258.196 248.675H220.407C219.733 248.675 219.086 248.943 218.609 249.421C218.132 249.899 217.864 250.547 217.864 251.223V388.802C217.864 389.478 218.132 390.126 218.609 390.604C219.086 391.081 219.733 391.35 220.407 391.35H329.419L329.592 392.854L319.611 401.541H111.085V136.573H400.915V209.381Z" fill="white"/>
<path d="M123.799 168.305C124.473 168.305 125.12 168.037 125.597 167.559C126.073 167.081 126.341 166.433 126.341 165.757V161.125C126.341 160.45 126.073 159.802 125.597 159.324C125.12 158.846 124.473 158.578 123.799 158.578C123.125 158.578 122.478 158.846 122.001 159.324C121.524 159.802 121.257 160.45 121.257 161.125V165.757C121.257 166.433 121.524 167.081 122.001 167.559C122.478 168.037 123.125 168.305 123.799 168.305ZM123.799 154.408C124.473 154.408 125.12 154.14 125.597 153.662C126.073 153.184 126.341 152.536 126.341 151.86C127.016 151.86 127.662 151.592 128.139 151.114C128.616 150.636 128.884 149.988 128.884 149.313C128.884 148.637 128.616 147.989 128.139 147.511C127.662 147.033 127.016 146.765 126.341 146.765H123.799C123.125 146.765 122.478 147.033 122.001 147.511C121.524 147.989 121.257 148.637 121.257 149.313V151.86C121.257 152.536 121.524 153.184 122.001 153.662C122.478 154.14 123.125 154.408 123.799 154.408ZM276.749 151.86H281.934C282.609 151.86 283.255 151.592 283.732 151.114C284.209 150.636 284.477 149.988 284.477 149.313C284.477 148.637 284.209 147.989 283.732 147.511C283.255 147.033 282.609 146.765 281.934 146.765H276.749C276.074 146.765 275.428 147.033 274.951 147.511C274.474 147.989 274.206 148.637 274.206 149.313C274.206 149.988 274.474 150.636 274.951 151.114C275.428 151.592 276.074 151.86 276.749 151.86ZM183.393 151.86H188.579C189.253 151.86 189.899 151.592 190.376 151.114C190.853 150.636 191.121 149.988 191.121 149.313C191.121 148.637 190.853 147.989 190.376 147.511C189.899 147.033 189.253 146.765 188.579 146.765H183.393C182.718 146.765 182.072 147.033 181.595 147.511C181.118 147.989 180.85 148.637 180.85 149.313C180.85 149.988 181.118 150.636 181.595 151.114C182.072 151.592 182.718 151.86 183.393 151.86ZM292.307 151.86H297.494C298.168 151.86 298.815 151.592 299.291 151.114C299.768 150.636 300.036 149.988 300.036 149.313C300.036 148.637 299.768 147.989 299.291 147.511C298.815 147.033 298.168 146.765 297.494 146.765H292.307C291.633 146.765 290.986 147.033 290.509 147.511C290.033 147.989 289.765 148.637 289.765 149.313C289.765 149.988 290.033 150.636 290.509 151.114C290.986 151.592 291.633 151.86 292.307 151.86ZM198.951 151.86H204.138C204.812 151.86 205.459 151.592 205.936 151.114C206.412 150.636 206.68 149.988 206.68 149.313C206.68 148.637 206.412 147.989 205.936 147.511C205.459 147.033 204.812 146.765 204.138 146.765H198.951C198.277 146.765 197.63 147.033 197.154 147.511C196.677 147.989 196.409 148.637 196.409 149.313C196.409 149.988 196.677 150.636 197.154 151.114C197.63 151.592 198.277 151.86 198.951 151.86ZM338.986 151.86H344.172C344.846 151.86 345.493 151.592 345.97 151.114C346.447 150.636 346.715 149.988 346.715 149.313C346.715 148.637 346.447 147.989 345.97 147.511C345.493 147.033 344.846 146.765 344.172 146.765H338.986C338.311 146.765 337.665 147.033 337.188 147.511C336.711 147.989 336.443 148.637 336.443 149.313C336.443 149.988 336.711 150.636 337.188 151.114C337.665 151.592 338.311 151.86 338.986 151.86ZM354.544 151.86H359.731C360.405 151.86 361.052 151.592 361.529 151.114C362.005 150.636 362.273 149.988 362.273 149.313C362.273 148.637 362.005 147.989 361.529 147.511C361.052 147.033 360.405 146.765 359.731 146.765H354.544C353.87 146.765 353.223 147.033 352.747 147.511C352.27 147.989 352.002 148.637 352.002 149.313C352.002 149.988 352.27 150.636 352.747 151.114C353.223 151.592 353.87 151.86 354.544 151.86ZM370.104 151.86H375.291C375.965 151.86 376.612 151.592 377.089 151.114C377.565 150.636 377.833 149.988 377.833 149.313C377.833 148.637 377.565 147.989 377.089 147.511C376.612 147.033 375.965 146.765 375.291 146.765H370.104C369.43 146.765 368.783 147.033 368.307 147.511C367.83 147.989 367.562 148.637 367.562 149.313C367.562 149.988 367.83 150.636 368.307 151.114C368.783 151.592 369.43 151.86 370.104 151.86ZM323.426 151.86H328.612C329.287 151.86 329.933 151.592 330.41 151.114C330.887 150.636 331.155 149.988 331.155 149.313C331.155 148.637 330.887 147.989 330.41 147.511C329.933 147.033 329.287 146.765 328.612 146.765H323.426C322.752 146.765 322.105 147.033 321.628 147.511C321.151 147.989 320.883 148.637 320.883 149.313C320.883 149.988 321.151 150.636 321.628 151.114C322.105 151.592 322.752 151.86 323.426 151.86ZM214.511 151.86H219.697C220.371 151.86 221.018 151.592 221.495 151.114C221.972 150.636 222.24 149.988 222.24 149.313C222.24 148.637 221.972 147.989 221.495 147.511C221.018 147.033 220.371 146.765 219.697 146.765H214.511C213.837 146.765 213.19 147.033 212.714 147.511C212.237 147.989 211.969 148.637 211.969 149.313C211.969 149.988 212.237 150.636 212.714 151.114C213.19 151.592 213.837 151.86 214.511 151.86ZM307.867 151.86H313.052C313.727 151.86 314.373 151.592 314.85 151.114C315.327 150.636 315.595 149.988 315.595 149.313C315.595 148.637 315.327 147.989 314.85 147.511C314.373 147.033 313.727 146.765 313.052 146.765H307.867C307.192 146.765 306.546 147.033 306.069 147.511C305.592 147.989 305.324 148.637 305.324 149.313C305.324 149.988 305.592 150.636 306.069 151.114C306.546 151.592 307.192 151.86 307.867 151.86ZM261.189 151.86H266.375C267.049 151.86 267.696 151.592 268.173 151.114C268.65 150.636 268.917 149.988 268.917 149.313C268.917 148.637 268.65 147.989 268.173 147.511C267.696 147.033 267.049 146.765 266.375 146.765H261.189C260.514 146.765 259.868 147.033 259.391 147.511C258.914 147.989 258.646 148.637 258.646 149.313C258.646 149.988 258.914 150.636 259.391 151.114C259.868 151.592 260.514 151.86 261.189 151.86ZM230.07 151.86H235.256C235.931 151.86 236.577 151.592 237.054 151.114C237.531 150.636 237.799 149.988 237.799 149.313C237.799 148.637 237.531 147.989 237.054 147.511C236.577 147.033 235.931 146.765 235.256 146.765H230.07C229.396 146.765 228.749 147.033 228.272 147.511C227.795 147.989 227.528 148.637 227.528 149.313C227.528 149.988 227.795 150.636 228.272 151.114C228.749 151.592 229.396 151.86 230.07 151.86ZM167.833 151.86H173.019C173.694 151.86 174.34 151.592 174.817 151.114C175.294 150.636 175.562 149.988 175.562 149.313C175.562 148.637 175.294 147.989 174.817 147.511C174.34 147.033 173.694 146.765 173.019 146.765H167.833C167.159 146.765 166.512 147.033 166.035 147.511C165.558 147.989 165.29 148.637 165.29 149.313C165.29 149.988 165.558 150.636 166.035 151.114C166.512 151.592 167.159 151.86 167.833 151.86ZM245.63 151.86H250.816C251.49 151.86 252.137 151.592 252.613 151.114C253.09 150.636 253.358 149.988 253.358 149.313C253.358 148.637 253.09 147.989 252.613 147.511C252.137 147.033 251.49 146.765 250.816 146.765H245.63C244.956 146.765 244.309 147.033 243.832 147.511C243.355 147.989 243.088 148.637 243.088 149.313C243.088 149.988 243.355 150.636 243.832 151.114C244.309 151.592 244.956 151.86 245.63 151.86ZM136.714 151.86H141.901C142.575 151.86 143.222 151.592 143.698 151.114C144.175 150.636 144.443 149.988 144.443 149.313C144.443 148.637 144.175 147.989 143.698 147.511C143.222 147.033 142.575 146.765 141.901 146.765H136.714C136.04 146.765 135.393 147.033 134.916 147.511C134.44 147.989 134.172 148.637 134.172 149.313C134.172 149.988 134.44 150.636 134.916 151.114C135.393 151.592 136.04 151.86 136.714 151.86ZM152.273 151.86H157.459C158.134 151.86 158.78 151.592 159.257 151.114C159.734 150.636 160.002 149.988 160.002 149.313C160.002 148.637 159.734 147.989 159.257 147.511C158.78 147.033 158.134 146.765 157.459 146.765H152.273C151.599 146.765 150.953 147.033 150.476 147.511C149.999 147.989 149.731 148.637 149.731 149.313C149.731 149.988 149.999 150.636 150.476 151.114C150.953 151.592 151.599 151.86 152.273 151.86ZM385.663 151.86C385.663 152.536 385.931 153.184 386.408 153.662C386.884 154.14 387.531 154.408 388.205 154.408C388.88 154.408 389.526 154.14 390.003 153.662C390.48 153.184 390.748 152.536 390.748 151.86V149.313C390.748 148.637 390.48 147.989 390.003 147.511C389.526 147.033 388.88 146.765 388.205 146.765H385.663C384.989 146.765 384.342 147.033 383.865 147.511C383.388 147.989 383.121 148.637 383.121 149.313C383.121 149.988 383.388 150.636 383.865 151.114C384.342 151.592 384.989 151.86 385.663 151.86ZM171.43 215.954C171.302 214.483 170.884 213.051 170.2 211.742C169.516 210.433 168.58 209.273 167.446 208.33L166.638 207.656L167.313 206.846C168.261 205.715 168.976 204.406 169.416 202.995C169.855 201.585 170.012 200.101 169.876 198.63L169.836 198.193C169.569 195.223 168.135 192.481 165.85 190.57C163.566 188.659 160.617 187.735 157.653 188.002L146.041 189.05C145.708 189.08 145.385 189.175 145.089 189.331C144.793 189.486 144.531 189.698 144.317 189.955C144.103 190.212 143.941 190.508 143.842 190.828C143.742 191.147 143.706 191.483 143.736 191.816L146.927 227.338C146.984 227.971 147.275 228.56 147.743 228.989C148.21 229.418 148.822 229.657 149.456 229.658C149.532 229.658 149.609 229.658 149.687 229.647L161.299 228.6C164.263 228.332 166.999 226.895 168.906 224.605C170.813 222.316 171.735 219.361 171.468 216.391L171.43 215.954ZM149.028 193.893L158.108 193.075C158.91 193.002 159.719 193.089 160.489 193.33C161.258 193.571 161.972 193.961 162.591 194.479C163.21 194.996 163.721 195.631 164.095 196.347C164.469 197.062 164.698 197.844 164.771 198.649L164.809 199.084C164.884 199.889 164.799 200.7 164.559 201.471C164.319 202.243 163.929 202.958 163.411 203.577L161.781 205.534L150.17 206.583L149.028 193.893ZM165.004 221.34C164.489 221.962 163.856 222.475 163.142 222.85C162.427 223.225 161.646 223.454 160.843 223.525L151.765 224.344L150.621 211.657L162.233 210.609L164.184 212.241C164.805 212.758 165.317 213.392 165.691 214.108C166.065 214.824 166.294 215.607 166.364 216.412L166.403 216.847C166.478 217.651 166.393 218.463 166.153 219.234C165.913 220.005 165.522 220.721 165.004 221.34ZM196.686 186.176C196.465 185.699 196.103 185.303 195.65 185.041C195.196 184.778 194.673 184.663 194.151 184.71C193.629 184.757 193.135 184.965 192.735 185.304C192.336 185.643 192.05 186.098 191.919 186.606L182.448 223.274C182.359 223.599 182.335 223.94 182.378 224.275C182.422 224.61 182.531 224.933 182.7 225.225C182.869 225.518 183.094 225.773 183.363 225.978C183.631 226.182 183.938 226.331 184.264 226.415C184.591 226.5 184.931 226.518 185.264 226.47C185.598 226.421 185.919 226.307 186.208 226.133C186.497 225.959 186.749 225.73 186.948 225.457C187.148 225.185 187.292 224.876 187.371 224.547L188.951 218.428L205.277 216.955L207.923 222.693C208.207 223.305 208.721 223.778 209.353 224.01C209.985 224.242 210.683 224.213 211.294 223.93C211.905 223.647 212.379 223.133 212.612 222.501C212.845 221.868 212.819 221.169 212.538 220.556L196.686 186.176ZM190.303 213.193L195.055 194.785L203.012 212.046L190.303 213.193ZM293.13 178.335C293.105 177.998 293.013 177.67 292.86 177.369C292.707 177.069 292.495 176.801 292.238 176.583C291.981 176.365 291.683 176.2 291.362 176.098C291.041 175.996 290.703 175.96 290.367 175.99C290.032 176.02 289.706 176.117 289.408 176.275C289.11 176.432 288.846 176.648 288.632 176.908C288.418 177.169 288.258 177.47 288.161 177.793C288.064 178.116 288.032 178.456 288.067 178.792L290.399 204.762L272.427 178.934C272.107 178.472 271.643 178.13 271.108 177.961C270.574 177.791 269.998 177.804 269.471 177.996C268.944 178.188 268.495 178.55 268.195 179.024C267.894 179.499 267.758 180.059 267.809 180.619L271.002 216.144C271.058 216.777 271.349 217.366 271.817 217.795C272.285 218.224 272.896 218.462 273.53 218.463C273.606 218.463 273.683 218.463 273.761 218.454C274.093 218.424 274.417 218.328 274.712 218.173C275.008 218.018 275.27 217.806 275.484 217.549C275.698 217.292 275.86 216.995 275.959 216.676C276.059 216.357 276.095 216.021 276.065 215.688L273.735 189.718L291.707 215.546C292.028 216.007 292.491 216.349 293.026 216.518C293.561 216.688 294.136 216.676 294.663 216.483C295.19 216.291 295.639 215.93 295.94 215.455C296.24 214.981 296.376 214.42 296.325 213.86L293.13 178.335ZM205.155 248.675H123.799C123.125 248.675 122.478 248.944 122.001 249.422C121.524 249.899 121.257 250.547 121.257 251.223V312.369C121.257 313.045 121.524 313.693 122.001 314.171C122.478 314.649 123.125 314.917 123.799 314.917H205.155C205.829 314.917 206.476 314.649 206.953 314.171C207.429 313.693 207.697 313.045 207.697 312.369V251.223C207.697 250.547 207.429 249.899 206.953 249.422C206.476 248.944 205.829 248.675 205.155 248.675ZM154.307 297.418V266.175L177.69 281.796L154.307 297.418ZM205.155 320.013H123.799C123.125 320.013 122.478 320.281 122.001 320.759C121.524 321.237 121.257 321.885 121.257 322.561V388.802C121.257 389.478 121.524 390.126 122.001 390.604C122.478 391.082 123.125 391.35 123.799 391.35H205.155C205.829 391.35 206.476 391.082 206.953 390.604C207.429 390.126 207.697 389.478 207.697 388.802V322.561C207.697 321.885 207.429 321.237 206.953 320.759C206.476 320.281 205.829 320.013 205.155 320.013ZM167.019 330.204C169.031 330.204 170.997 330.802 172.669 331.921C174.341 333.041 175.645 334.633 176.415 336.495C177.184 338.357 177.386 340.406 176.993 342.383C176.601 344.36 175.632 346.176 174.21 347.601C172.788 349.026 170.976 349.997 169.003 350.39C167.031 350.783 164.986 350.582 163.128 349.81C161.269 349.039 159.681 347.733 158.564 346.057C157.446 344.381 156.85 342.41 156.85 340.395C156.853 337.693 157.925 335.103 159.832 333.192C161.738 331.282 164.323 330.207 167.019 330.204ZM126.341 386.255V366.933L144.289 346.778L162.221 367.078L143.085 386.255H126.341ZM202.612 386.255H150.275L184.692 351.766L202.612 372.29V386.255ZM230.578 304.726H286.511C287.185 304.726 287.832 304.458 288.308 303.98C288.785 303.502 289.053 302.854 289.053 302.178C289.053 301.503 288.785 300.855 288.308 300.377C287.832 299.899 287.185 299.631 286.511 299.631H230.578C229.904 299.631 229.258 299.899 228.781 300.377C228.304 300.855 228.036 301.503 228.036 302.178C228.036 302.854 228.304 303.502 228.781 303.98C229.258 304.458 229.904 304.726 230.578 304.726ZM230.578 314.917H317.019C317.693 314.917 318.34 314.649 318.817 314.171C319.294 313.693 319.561 313.045 319.561 312.369C319.561 311.694 319.294 311.046 318.817 310.568C318.34 310.09 317.693 309.822 317.019 309.822H230.578C229.904 309.822 229.258 310.09 228.781 310.568C228.304 311.046 228.036 311.694 228.036 312.369C228.036 313.045 228.304 313.693 228.781 314.171C229.258 314.649 229.904 314.917 230.578 314.917ZM230.578 325.108H266.172C266.846 325.108 267.493 324.84 267.969 324.362C268.446 323.884 268.714 323.236 268.714 322.561C268.714 321.885 268.446 321.237 267.969 320.759C267.493 320.281 266.846 320.013 266.172 320.013H230.578C229.904 320.013 229.258 320.281 228.781 320.759C228.304 321.237 228.036 321.885 228.036 322.561C228.036 323.236 228.304 323.884 228.781 324.362C229.258 324.84 229.904 325.108 230.578 325.108ZM276.341 320.013C275.667 320.013 275.02 320.281 274.543 320.759C274.067 321.237 273.799 321.885 273.799 322.561C273.799 323.236 274.067 323.884 274.543 324.362C275.02 324.84 275.667 325.108 276.341 325.108H306.85C307.524 325.108 308.17 324.84 308.647 324.362C309.124 323.884 309.392 323.236 309.392 322.561C309.392 321.885 309.124 321.237 308.647 320.759C308.17 320.281 307.524 320.013 306.85 320.013H276.341ZM230.578 335.299H317.019C317.693 335.299 318.34 335.031 318.817 334.553C319.294 334.075 319.561 333.427 319.561 332.752C319.561 332.076 319.294 331.428 318.817 330.95C318.34 330.472 317.693 330.204 317.019 330.204H230.578C229.904 330.204 229.258 330.472 228.781 330.95C228.304 331.428 228.036 332.076 228.036 332.752C228.036 333.427 228.304 334.075 228.781 334.553C229.258 335.031 229.904 335.299 230.578 335.299ZM230.578 345.49H317.019C317.693 345.49 318.34 345.222 318.817 344.744C319.294 344.266 319.561 343.618 319.561 342.943C319.561 342.267 319.294 341.619 318.817 341.141C318.34 340.663 317.693 340.395 317.019 340.395H230.578C229.904 340.395 229.258 340.663 228.781 341.141C228.304 341.619 228.036 342.267 228.036 342.943C228.036 343.618 228.304 344.266 228.781 344.744C229.258 345.222 229.904 345.49 230.578 345.49ZM230.578 355.681H271.256C271.931 355.681 272.577 355.413 273.054 354.935C273.531 354.457 273.799 353.809 273.799 353.134C273.799 352.458 273.531 351.81 273.054 351.332C272.577 350.854 271.931 350.586 271.256 350.586H230.578C229.904 350.586 229.258 350.854 228.781 351.332C228.304 351.81 228.036 352.458 228.036 353.134C228.036 353.809 228.304 354.457 228.781 354.935C229.258 355.413 229.904 355.681 230.578 355.681ZM230.578 365.872H317.019C317.693 365.872 318.34 365.604 318.817 365.126C319.294 364.648 319.561 364 319.561 363.325C319.561 362.649 319.294 362.001 318.817 361.523C318.34 361.045 317.693 360.777 317.019 360.777H230.578C229.904 360.777 229.258 361.045 228.781 361.523C228.304 362.001 228.036 362.649 228.036 363.325C228.036 364 228.304 364.648 228.781 365.126C229.258 365.604 229.904 365.872 230.578 365.872ZM230.578 376.064H317.019C317.693 376.064 318.34 375.795 318.817 375.317C319.294 374.84 319.561 374.191 319.561 373.516C319.561 372.84 319.294 372.192 318.817 371.714C318.34 371.236 317.693 370.968 317.019 370.968H230.578C229.904 370.968 229.258 371.236 228.781 371.714C228.304 372.192 228.036 372.84 228.036 373.516C228.036 374.191 228.304 374.84 228.781 375.317C229.258 375.795 229.904 376.064 230.578 376.064Z" fill="white"/>
<defs>
<linearGradient id="paint0_linear_210_193" x1="449.28" y1="32" x2="85.76" y2="512" gradientUnits="userSpaceOnUse">
<stop stop-color="#A522E2"/>
<stop offset="1" stop-color="#900AA6"/>
</linearGradient>
</defs>
</svg>
