<svg width="512" height="512" viewBox="0 0 512 512" fill="none" xmlns="http://www.w3.org/2000/svg">
<circle cx="256" cy="256" r="256" fill="url(#paint0_linear_210_199)"/>
<path d="M157.219 340.148L108.736 388.632C106.926 390.598 105.947 393.188 106.002 395.859C106.058 398.531 107.144 401.077 109.033 402.967C110.922 404.856 113.469 405.942 116.141 405.998C118.812 406.053 121.402 405.073 123.368 403.264L171.851 354.78C166.448 350.459 161.541 345.552 157.219 340.148ZM292.092 188.842H255.848V192.575C269.295 196.49 281.685 203.397 292.092 212.768V188.842ZM297.27 126.71C294.523 126.71 291.889 127.801 289.947 129.743C288.005 131.685 286.914 134.319 286.914 137.066H307.625C307.625 134.319 306.534 131.685 304.592 129.743C302.65 127.801 300.016 126.71 297.27 126.71ZM323.158 152.599C323.158 151.225 322.612 149.909 321.641 148.938C320.67 147.967 319.353 147.421 317.98 147.421H276.559C275.186 147.421 273.869 147.967 272.898 148.938C271.927 149.909 271.381 151.225 271.381 152.599V157.776H323.158V152.599ZM245.814 235.876L224.783 253.397V297.573C224.783 298.946 224.237 300.263 223.266 301.234C222.295 302.205 220.978 302.75 219.605 302.75C218.232 302.75 216.915 302.205 215.944 301.234C214.973 300.263 214.427 298.946 214.427 297.573V250.974C214.427 250.215 214.593 249.466 214.914 248.779C215.236 248.092 215.704 247.484 216.286 246.997L245.493 222.657V221.979C232.952 218.748 219.714 219.519 207.633 224.185C195.552 228.85 185.232 237.176 178.118 247.998C171.004 258.82 167.452 271.595 167.959 284.536C168.466 297.476 173.006 309.935 180.945 320.167C188.884 330.399 199.823 337.893 212.232 341.599C224.641 345.305 237.898 345.039 250.148 340.837C262.398 336.634 273.028 328.707 280.549 318.164C288.07 307.621 292.106 294.99 292.092 282.04V281.76C280.3 280.541 269.28 275.325 260.862 266.978C252.444 258.632 247.134 247.657 245.814 235.876Z" fill="white"/>
<path d="M229.96 199.198C184.205 199.198 147.118 236.285 147.118 282.04C147.118 327.795 184.205 364.882 229.96 364.882C275.715 364.882 312.802 327.795 312.802 282.04C312.751 236.311 275.689 199.249 229.96 199.198ZM229.96 354.527C189.927 354.527 157.473 322.073 157.473 282.04C157.473 242.006 189.927 209.553 229.96 209.553C269.994 209.553 302.447 242.006 302.447 282.04C302.406 322.058 269.978 354.486 229.96 354.527ZM302.447 223.59C311.916 235.281 318.401 249.097 321.346 263.851C326.688 260.024 331.046 254.984 334.061 249.145C337.076 243.306 338.663 236.835 338.691 230.264V188.842H302.447V223.59ZM333.513 168.132H261.026C259.653 168.132 258.336 168.677 257.365 169.648C256.394 170.619 255.848 171.936 255.848 173.309V178.487H338.691V173.309C338.691 171.936 338.145 170.619 337.174 169.648C336.203 168.677 334.886 168.132 333.513 168.132Z" fill="white"/>
<path d="M255.848 225.629V230.263C255.88 240.158 259.445 249.716 265.9 257.216C272.355 264.715 281.276 269.663 291.056 271.167C289.287 261.303 285.162 252.012 279.032 244.084C272.902 236.156 264.949 229.825 255.848 225.629ZM245.545 172.636C245.502 172.858 245.484 173.084 245.493 173.309V186.098L216.291 161.763C215.704 161.278 215.233 160.669 214.91 159.98C214.588 159.29 214.423 158.538 214.427 157.776V111.178C214.427 109.804 214.973 108.487 215.944 107.516C216.915 106.546 218.232 106 219.605 106C220.978 106 222.295 106.546 223.266 107.516C224.237 108.487 224.782 109.804 224.782 111.178V155.343L245.545 172.636ZM380.112 111.178V157.776C380.116 158.538 379.951 159.29 379.628 159.98C379.306 160.669 378.834 161.278 378.248 161.763L349.046 186.098V173.309C349.054 173.084 349.037 172.858 348.994 172.636L369.756 155.343V111.178C369.756 109.804 370.302 108.487 371.273 107.516C372.244 106.546 373.561 106 374.934 106C376.307 106 377.624 106.546 378.595 107.516C379.566 108.487 380.112 109.804 380.112 111.178ZM380.112 250.974V297.573C380.112 298.946 379.566 300.263 378.595 301.234C377.624 302.205 376.307 302.75 374.934 302.75C373.561 302.75 372.244 302.205 371.273 301.234C370.302 300.263 369.756 298.946 369.756 297.573V253.407L348.683 235.855C348.932 234.002 349.056 232.133 349.046 230.263V222.652L378.248 246.987C379.439 247.971 380.122 249.431 380.112 250.974ZM406 204.375C406 205.748 405.454 207.065 404.483 208.036C403.512 209.007 402.195 209.553 400.822 209.553H349.046V199.198H400.822C402.195 199.198 403.512 199.743 404.483 200.714C405.454 201.685 406 203.002 406 204.375Z" fill="white"/>
<defs>
<linearGradient id="paint0_linear_210_199" x1="344.32" y1="96" x2="85.76" y2="512" gradientUnits="userSpaceOnUse">
<stop stop-color="#36B85A"/>
<stop offset="1" stop-color="#119937"/>
</linearGradient>
</defs>
</svg>
