<svg width="512" height="512" viewBox="0 0 512 512" fill="none" xmlns="http://www.w3.org/2000/svg">
<circle cx="256" cy="256" r="256" fill="url(#paint0_linear_210_194)"/>
<path d="M387.423 96.6982C387.423 89.276 384.886 83.8006 380.383 81.3063C378.036 80.0287 375.372 79.542 372.391 79.907C369.41 80.2112 366.112 81.3671 362.751 83.2531L179.394 184.791C179.394 184.791 179.331 184.791 179.267 184.852C177.999 185.582 176.73 186.434 175.525 187.285C174.891 187.711 174.32 188.137 173.749 188.624C172.481 189.597 171.212 190.692 170.007 191.848L169.88 191.97C168.485 193.369 167.153 194.829 165.885 196.35C165.821 196.411 165.758 196.411 165.758 196.472C165.631 196.593 165.568 196.715 165.504 196.776C158.781 205.05 153.834 215.392 152.629 225.065C152.42 226.598 152.335 228.144 152.376 229.689L152.439 257.492L171.72 246.784C174.13 245.507 176.223 242.039 176.159 239.423V229.628C176.159 223.484 180.472 216.305 185.99 213.202L239.71 183.452C242.183 182.114 244.657 181.688 246.813 182.297C248.589 182.783 250.048 183.878 250.999 185.582L258.102 198.175C258.61 198.479 259.117 198.419 259.815 198.053L387.549 127.299L387.423 96.6982ZM316.071 146.402C312.456 148.41 309.539 146.828 309.539 142.813C309.539 138.919 312.393 134.052 316.008 132.045C319.623 130.098 322.477 131.741 322.477 135.634C322.54 139.649 319.623 144.395 316.071 146.402ZM340.236 133.018C336.621 135.026 333.703 133.444 333.703 129.429C333.703 125.535 336.62 120.668 340.172 118.661C343.787 116.714 346.705 118.356 346.705 122.25C346.705 126.204 343.851 131.011 340.236 133.018ZM364.4 119.634C360.848 121.581 357.867 119.999 357.867 116.044C357.867 112.151 360.785 107.284 364.337 105.276C367.952 103.329 370.869 104.972 370.869 108.866C370.869 112.82 368.015 117.626 364.4 119.634ZM150.866 211.924C151.044 211.456 151.253 211 151.443 210.531C151.678 209.99 151.894 209.454 152.16 208.901L128.205 195.577C126.76 198.757 125.677 202.078 124.977 205.482C124.934 205.713 124.859 205.938 124.755 206.151C124.685 206.67 124.62 207.189 124.558 207.708C124.393 208.432 124.342 208.822 124.298 209.223C124.11 210.789 124.011 212.363 124 213.938L124.057 244.503L137.186 251.834L147.321 257.492L147.27 229.75V229.713C147.27 228.04 147.397 226.294 147.6 224.493C147.727 223.502 147.892 222.589 148.076 221.646L148.209 220.88C148.386 220.028 148.57 219.164 148.805 218.239C148.824 218.166 148.856 218.087 148.868 218.008C149.131 216.909 149.449 215.823 149.82 214.753C150.092 213.871 150.467 212.898 150.866 211.924Z" fill="white"/>
<path d="M154.633 203.863C154.95 203.298 155.268 202.738 155.616 202.203C155.908 201.619 156.396 200.882 156.885 200.146C157.24 199.587 157.595 199.027 157.963 198.473C158.47 197.731 158.94 197.056 159.422 196.429C159.752 195.967 160.157 195.504 160.519 195.042C161.274 194.081 162.035 193.15 162.834 192.243C163.202 191.805 163.506 191.404 163.938 190.96C164.584 190.209 165.27 189.491 165.992 188.806L166.094 188.709C166.411 188.405 166.728 188.131 167.045 187.839C167.743 187.17 168.453 186.488 169.157 185.892C169.576 185.533 170.02 185.265 170.438 184.931C171.155 184.359 171.878 183.824 172.607 183.306C173.089 182.96 173.559 182.546 174.047 182.224C174.874 181.666 175.729 181.149 176.609 180.672L176.66 180.642L176.762 180.593C176.806 180.575 176.844 180.532 176.889 180.514L360.169 79.0066C363.122 77.4 366.291 76.1921 369.588 75.4172C369.639 75.4172 369.689 75.3868 369.74 75.3807L352.019 65.5189C347.421 62.9759 341.161 63.639 334.362 67.411L151.069 168.931C150.978 168.978 150.885 169.021 150.79 169.058C149.185 169.971 147.65 171.005 146.16 172.143L143.724 174.114C140.985 176.444 138.46 179.127 136.247 182.053L135.676 182.814C135.257 183.361 134.852 183.897 134.471 184.456L132.759 187.011C132.353 187.62 131.985 188.24 131.636 188.861L131.236 189.53C130.888 190.09 130.602 190.625 130.336 191.136L154.284 204.46L154.633 203.863ZM148.45 437.48C148.07 435.553 147.866 433.599 147.841 431.639L147.333 263.131L124.07 250.143L124.571 415.785C124.615 423.231 127.108 428.695 131.573 431.159L149.325 441.045C149.115 440.436 149.008 439.743 148.849 439.098C148.71 438.563 148.551 438.045 148.45 437.48ZM387.492 132.957L262.358 202.251C260.519 203.285 258.616 203.529 256.967 203.103C256.259 202.908 255.601 202.575 255.033 202.125C254.466 201.675 254.001 201.117 253.669 200.487L246.565 187.894C246.319 187.462 245.911 187.136 245.424 186.981C244.599 186.738 243.458 187.042 242.253 187.711L188.533 217.461C184.537 219.651 181.239 225.187 181.239 229.567V239.423C181.303 243.742 178.195 248.853 174.326 251.043L152.445 263.089L152.953 431.609C152.953 433.495 153.143 435.198 153.397 436.78C154.348 441.464 156.568 444.993 159.866 446.879C159.929 446.879 159.929 446.94 159.993 447.001H160.056C164.622 449.495 170.838 448.826 177.624 445.115L360.981 343.577C375.949 335.303 388.063 315.105 388 298.618L387.492 132.957ZM233.627 338.345C232.993 339.379 232.232 340.17 231.344 340.657C230.393 341.204 229.631 341.265 228.997 340.9C228.426 340.596 228.109 339.866 228.109 338.892L228.046 317.843L200.837 332.93L200.901 353.98C200.901 354.953 200.584 355.988 199.949 357.022C199.315 358.056 198.491 358.847 197.603 359.334C196.715 359.82 195.89 359.942 195.319 359.577C194.685 359.273 194.368 358.543 194.368 357.569L194.178 308.778C194.178 307.804 194.495 306.77 195.129 305.675C195.763 304.641 196.524 303.85 197.412 303.363C198.364 302.877 199.125 302.755 199.759 303.12C200.393 303.485 200.71 304.154 200.71 305.188L200.774 326.238L227.982 311.15L227.919 290.101C227.919 289.127 228.236 288.093 228.87 286.998C229.441 285.964 230.202 285.173 231.154 284.686C232.042 284.199 232.803 284.139 233.5 284.443C234.134 284.808 234.452 285.477 234.452 286.511L234.578 335.303C234.642 336.276 234.261 337.311 233.627 338.345ZM265.022 320.945C263.182 322.953 261.153 324.535 259.06 325.691C252.083 329.584 248.595 328.002 248.595 321.067L248.468 296.549L243.394 299.348C243.014 299.591 242.697 299.591 242.443 299.47C242.189 299.348 242.062 299.044 242.062 298.618C242.062 298.07 242.253 297.523 242.697 296.914L252.4 280.975C252.844 280.245 253.225 279.819 253.605 279.576C253.986 279.393 254.367 279.393 254.557 279.576C254.874 279.697 255.001 280.002 255.001 280.427V286.755L263.119 282.253C263.943 281.827 264.641 281.705 265.149 282.009C265.656 282.313 265.91 282.861 265.91 283.834C265.91 284.625 265.656 285.538 265.149 286.39C264.641 287.302 263.943 287.971 263.119 288.458L255.001 292.899L255.064 316.808C255.128 318.877 255.572 319.911 256.46 319.972C257.347 320.033 258.426 319.729 259.758 318.938C260.709 318.451 261.724 317.721 262.675 316.869C262.865 316.748 263.056 316.565 263.246 316.382C263.436 316.261 263.753 316.078 264.07 315.896C264.768 315.47 265.339 315.47 265.846 315.713C266.417 315.957 266.671 316.504 266.671 317.295C266.671 318.512 266.1 319.729 265.022 320.945ZM327.747 286.207C327.113 287.302 326.352 288.032 325.401 288.58C324.513 289.066 323.752 289.127 323.117 288.762C322.547 288.458 322.23 287.789 322.166 286.755V265.401C322.103 261.994 321.595 259.804 320.454 258.769C319.375 257.796 317.473 258.039 314.809 259.499C312.335 260.838 310.306 262.663 308.72 264.975C307.135 267.287 305.739 269.903 304.471 272.823L304.534 296.549C304.534 297.523 304.217 298.557 303.583 299.591C302.949 300.686 302.188 301.416 301.236 301.964C300.348 302.451 299.587 302.512 298.953 302.207C298.319 301.842 298.002 301.173 298.002 300.2L297.938 278.846C297.938 275.378 297.368 273.188 296.289 272.214C295.148 271.18 293.308 271.424 290.645 272.884C288.171 274.222 286.142 276.047 284.556 278.359C282.97 280.671 281.512 283.287 280.307 286.207L280.37 309.934C280.37 310.907 280.053 311.941 279.419 312.976C278.877 313.957 278.065 314.778 277.072 315.348C276.184 315.835 275.423 315.896 274.789 315.592C274.155 315.227 273.838 314.557 273.838 313.584L273.774 279.637C273.774 278.602 274.028 277.568 274.662 276.534C275.296 275.5 276.057 274.709 276.945 274.222C277.897 273.675 278.658 273.614 279.292 273.979C279.926 274.344 280.307 275.013 280.307 276.047V279.272C281.639 276.412 283.224 273.796 285.127 271.363C286.966 268.929 289.44 266.922 292.421 265.218C295.148 263.758 297.431 263.271 299.334 263.758C301.236 264.306 302.632 265.461 303.456 267.287C306.437 260.229 310.813 255.058 316.648 251.834C319.312 250.374 321.532 249.887 323.371 250.313C325.147 250.8 326.479 251.956 327.367 253.841C328.191 255.667 328.635 257.857 328.635 260.412L328.699 283.165C328.699 284.139 328.382 285.173 327.747 286.207ZM345.252 276.534C344.618 277.568 343.857 278.359 342.969 278.846C342.018 279.332 341.257 279.454 340.622 279.089C340.051 278.724 339.734 278.055 339.734 277.081L339.544 225.735C339.544 224.761 339.861 223.727 340.495 222.632C341.13 221.598 341.827 220.868 342.779 220.32C343.73 219.833 344.491 219.712 345.125 220.077C345.76 220.381 346.077 221.05 346.077 222.145L346.267 273.492C346.267 274.465 345.886 275.5 345.252 276.534Z" fill="white"/>
<defs>
<linearGradient id="paint0_linear_210_194" x1="449.28" y1="32" x2="85.76" y2="512" gradientUnits="userSpaceOnUse">
<stop stop-color="#A522E2"/>
<stop offset="1" stop-color="#900AA6"/>
</linearGradient>
</defs>
</svg>
