<svg width="512" height="512" viewBox="0 0 512 512" fill="none" xmlns="http://www.w3.org/2000/svg">
<circle cx="256" cy="256" r="256" fill="url(#paint0_linear_210_210)"/>
<g clip-path="url(#clip0_210_210)">
<path fill-rule="evenodd" clip-rule="evenodd" d="M204.459 201.474C197.16 201.474 192.129 202.202 189.593 202.93V250.188C192.69 250.854 196.433 251.082 201.63 251.082C220.862 251.082 232.817 241.352 232.817 224.927C232.735 210.228 222.567 201.474 204.459 201.474Z" fill="white"/>
<path fill-rule="evenodd" clip-rule="evenodd" d="M106 106V406H406V106H106ZM253.837 262.061C241.57 273.662 223.232 278.861 201.858 278.861C197.16 278.861 192.856 278.695 189.53 278.216V335.476H153.706V177.502C164.83 175.632 180.506 174.175 202.587 174.175C224.938 174.175 240.842 178.396 251.488 187.003C261.8 195.05 268.62 208.377 268.62 224.054C268.62 239.71 263.423 253.038 253.837 262.061ZM307.936 337.825C292.738 337.825 279.183 334.497 270.409 329.716L276.833 303.872C283.487 307.864 297.209 312.646 307.936 312.646C318.81 312.646 323.364 308.842 323.364 302.895C323.364 296.969 319.787 294.142 306.316 289.588C282.26 281.543 273.007 268.464 273.257 254.659C273.257 233.057 291.782 216.652 320.516 216.652C334.093 216.652 346.193 219.729 353.325 223.305L346.92 248.254C341.639 245.406 331.722 241.58 321.743 241.58C312.969 241.58 308.02 245.156 308.02 251.083C308.02 256.529 312.491 259.378 326.691 264.41C348.792 271.957 358.044 283.164 358.295 300.234C358.294 321.919 341.141 337.825 307.936 337.825Z" fill="white"/>
</g>
<defs>
<linearGradient id="paint0_linear_210_210" x1="344.32" y1="96" x2="85.76" y2="512" gradientUnits="userSpaceOnUse">
<stop stop-color="#FFB700"/>
<stop offset="1" stop-color="#FF9738"/>
</linearGradient>
<clipPath id="clip0_210_210">
<rect width="300" height="300" fill="white" transform="translate(106 106)"/>
</clipPath>
</defs>
</svg>
