<svg width="512" height="512" viewBox="0 0 512 512" fill="none" xmlns="http://www.w3.org/2000/svg">
<circle cx="256" cy="256" r="256" fill="url(#paint0_linear_210_207)"/>
<path d="M286.374 305.558C286.213 318.145 283.428 330.56 278.198 342.009C272.968 353.459 265.407 363.692 255.998 372.054C246.589 363.692 239.028 353.459 233.798 342.009C228.567 330.56 225.783 318.145 225.622 305.558C245.4 311.744 266.595 311.744 286.374 305.558Z" fill="white"/>
<path d="M406 304.674C406.022 321.116 401.546 337.25 393.056 351.33C384.567 365.411 372.388 376.901 357.838 384.558C343.288 392.214 326.921 395.744 310.508 394.767C294.095 393.789 278.263 388.341 264.724 379.012C275.03 369.565 283.258 358.078 288.886 345.28C294.515 332.483 297.421 318.655 297.42 304.674C297.42 303.569 297.309 302.465 297.199 301.36C312.686 294.425 326.183 283.711 336.45 270.201C346.718 256.691 353.427 240.818 355.962 224.04C370.966 231.51 383.594 243.01 392.431 257.252C401.268 271.493 405.967 287.913 406 304.674Z" fill="white"/>
<path d="M345.469 219.621C343.69 234.458 338.259 248.622 329.661 260.844C321.063 273.066 309.568 282.964 296.205 289.652C292.771 266.904 281.664 246.013 264.724 230.446C276.372 222.395 289.762 217.216 303.796 215.335C317.831 213.453 332.111 214.922 345.469 219.621ZM285.711 294.07C266.482 300.845 245.514 300.845 226.285 294.07C228.886 272.171 239.464 251.998 255.998 237.405C272.532 251.998 283.11 272.171 285.711 294.07ZM247.272 230.446C230.332 246.013 219.224 266.904 215.791 289.652C202.428 282.964 190.932 273.066 182.335 260.844C173.737 248.622 168.305 234.458 166.527 219.621C179.884 214.922 194.165 213.453 208.2 215.335C222.234 217.216 235.624 222.395 247.272 230.446Z" fill="white"/>
<path d="M346.132 208.134C336.349 205.011 326.135 203.446 315.866 203.495C294.307 203.497 273.319 210.429 255.998 223.267C238.677 210.429 217.689 203.497 196.13 203.495C185.86 203.446 175.647 205.011 165.864 208.134C165.864 184.229 175.36 161.303 192.264 144.4C209.167 127.496 232.093 118 255.998 118C279.903 118 302.829 127.496 319.732 144.4C336.635 161.303 346.132 184.229 346.132 208.134ZM247.272 379.012C237.078 386.032 225.549 390.877 213.401 393.246C201.254 395.616 188.748 395.458 176.664 392.783C164.58 390.109 153.177 384.975 143.163 377.701C133.15 370.426 124.742 361.168 118.463 350.503C112.184 339.838 108.168 327.994 106.666 315.709C105.164 303.424 106.208 290.961 109.733 279.097C113.257 267.233 119.187 256.222 127.153 246.75C135.119 237.277 144.95 229.547 156.033 224.04C158.568 240.818 165.278 256.691 175.545 270.201C185.813 283.711 199.31 294.425 214.797 301.36C214.687 302.465 214.576 303.57 214.576 304.674C214.575 318.655 217.481 332.483 223.109 345.28C228.738 358.078 236.966 369.565 247.272 379.012Z" fill="white"/>
<defs>
<linearGradient id="paint0_linear_210_207" x1="344.32" y1="96" x2="85.76" y2="512" gradientUnits="userSpaceOnUse">
<stop stop-color="#E02B2B"/>
<stop offset="1" stop-color="#B11313"/>
</linearGradient>
</defs>
</svg>
