<svg width="512" height="512" viewBox="0 0 512 512" fill="none" xmlns="http://www.w3.org/2000/svg">
<circle cx="256" cy="256" r="256" fill="url(#paint0_linear_210_202)"/>
<path d="M214.775 389.82H297.225V404.544C297.22 406.104 296.598 407.599 295.495 408.703C294.391 409.806 292.896 410.428 291.336 410.433H220.664C219.104 410.428 217.609 409.806 216.505 408.703C215.402 407.599 214.78 406.104 214.775 404.544V389.82ZM355.234 259.432C356.182 259.422 357.128 259.501 358.061 259.667V147.418C358.064 146.644 357.913 145.877 357.618 145.161C357.323 144.445 356.889 143.795 356.342 143.248C355.794 142.701 355.144 142.267 354.428 141.972C353.713 141.677 352.946 141.526 352.172 141.528H313.951C314.575 149.519 313.54 157.552 310.911 165.124C308.282 172.695 304.115 179.641 298.673 185.525C293.231 191.41 286.631 196.105 279.287 199.316C271.943 202.527 264.015 204.184 256 204.184C247.985 204.184 240.057 202.527 232.713 199.316C225.369 196.105 218.769 191.41 213.327 185.525C207.885 179.641 203.718 172.695 201.089 165.124C198.46 157.552 197.425 149.519 198.049 141.528H159.828C159.054 141.526 158.287 141.677 157.572 141.972C156.856 142.267 156.206 142.701 155.658 143.248C155.111 143.795 154.677 144.445 154.382 145.161C154.087 145.877 153.936 146.644 153.939 147.418V259.667C154.872 259.501 155.818 259.422 156.766 259.432H355.234ZM209.887 141.528C216.671 86.1631 295.323 86.1514 302.113 141.528C302.757 147.971 302.044 154.476 300.019 160.626C297.995 166.776 294.704 172.434 290.36 177.234C286.015 182.034 280.713 185.871 274.795 188.497C268.877 191.123 262.474 192.479 256 192.479C249.526 192.479 243.123 191.123 237.205 188.497C231.287 185.871 225.985 182.034 221.64 177.234C217.296 172.434 214.005 166.776 211.981 160.626C209.956 154.476 209.243 147.971 209.887 141.528ZM232.325 150.068L245.458 163.201C246.577 164.292 248.077 164.902 249.64 164.902C251.202 164.902 252.702 164.292 253.821 163.201C256.766 160.268 277.266 139.661 279.675 137.288C280.776 136.187 281.395 134.693 281.395 133.136C281.395 131.579 280.776 130.085 279.675 128.984C278.574 127.883 277.08 127.264 275.523 127.264C273.966 127.264 272.472 127.883 271.371 128.984C266.094 134.267 254.881 145.474 249.64 150.657L240.629 141.705L240.452 141.528C239.305 140.536 237.82 140.024 236.306 140.098C234.791 140.171 233.363 140.825 232.318 141.924C231.272 143.022 230.69 144.481 230.691 145.997C230.693 147.514 231.278 148.971 232.325 150.068ZM406 367.853C405.117 415.038 339.263 423.083 326.789 378.042H190.806C180.729 428.454 107.143 422.347 106 370.327C107.69 315.922 184.84 312.818 191.336 366.263H214.775C214.333 361.97 215.647 357.582 220.664 357.429H250.464C250.343 356.453 250.304 355.468 250.346 354.485V311.198H137.567C136.502 311.172 135.463 310.863 134.558 310.302C133.652 309.741 132.912 308.949 132.414 308.007C131.917 307.065 131.679 306.008 131.725 304.944C131.771 303.88 132.101 302.847 132.678 301.952L151.936 273.802C152.468 273.008 153.186 272.356 154.028 271.904C154.87 271.453 155.81 271.214 156.766 271.21H355.234C356.19 271.213 357.13 271.451 357.972 271.903C358.815 272.355 359.533 273.007 360.064 273.802L379.322 301.952C379.899 302.847 380.229 303.88 380.275 304.944C380.321 306.008 380.083 307.065 379.586 308.007C379.088 308.949 378.348 309.741 377.442 310.302C376.537 310.863 375.498 311.172 374.433 311.198H262.125V354.485C262.167 355.468 262.128 356.453 262.007 357.429H291.336C296.359 357.588 297.667 361.964 297.225 366.263H325.552C329.051 314.22 404.186 315.262 406 367.853ZM166.542 365.439C167.643 364.33 168.258 362.829 168.253 361.266C168.247 359.703 167.621 358.207 166.512 357.105C165.403 356.004 163.902 355.389 162.34 355.394C160.777 355.4 159.28 356.026 158.179 357.135L144.339 371.034L139.333 366.028C138.232 364.919 136.736 364.293 135.173 364.287C133.61 364.282 132.109 364.897 131 365.998C129.891 367.099 129.265 368.596 129.259 370.159C129.254 371.722 129.869 373.223 130.971 374.332L140.158 383.519C141.276 384.61 142.777 385.22 144.339 385.22C145.902 385.22 147.402 384.61 148.521 383.519C152.861 379.131 162.113 369.844 166.542 365.439ZM374.021 367.853L382.207 359.667C382.753 359.122 383.186 358.475 383.482 357.763C383.777 357.05 383.93 356.287 383.93 355.515C383.93 354.744 383.777 353.98 383.482 353.268C383.186 352.555 382.753 351.908 382.207 351.363C381.095 350.26 379.592 349.641 378.026 349.641C376.459 349.641 374.956 350.26 373.845 351.363L365.717 359.491L357.531 351.363C356.604 350.468 355.409 349.902 354.13 349.752C352.85 349.601 351.556 349.874 350.447 350.529C349.337 351.184 348.473 352.185 347.987 353.378C347.501 354.571 347.419 355.891 347.755 357.135C349.051 360.627 354.94 364.991 357.355 367.853C353.762 372.306 343.379 378.001 349.227 384.343C350.333 385.436 351.825 386.049 353.379 386.049C354.934 386.049 356.426 385.436 357.531 384.343L365.717 376.157L373.845 384.343C374.394 384.892 375.046 385.328 375.763 385.625C376.48 385.922 377.249 386.075 378.026 386.075C378.802 386.075 379.571 385.922 380.289 385.625C381.006 385.328 381.658 384.892 382.207 384.343C382.756 383.794 383.192 383.142 383.489 382.425C383.786 381.707 383.939 380.938 383.939 380.162C383.939 379.385 383.786 378.616 383.489 377.899C383.192 377.182 382.756 376.53 382.207 375.981L374.021 367.853Z" fill="white"/>
<defs>
<linearGradient id="paint0_linear_210_202" x1="344.32" y1="96" x2="85.76" y2="512" gradientUnits="userSpaceOnUse">
<stop stop-color="#36B85A"/>
<stop offset="1" stop-color="#119937"/>
</linearGradient>
</defs>
</svg>
