<svg width="512" height="512" viewBox="0 0 512 512" fill="none" xmlns="http://www.w3.org/2000/svg">
<circle cx="256" cy="256" r="256" fill="url(#paint0_linear_210_213)"/>
<path d="M396.625 227.5H277.875C275.389 227.5 273.004 228.488 271.246 230.246C269.488 232.004 268.5 234.389 268.5 236.875C268.5 239.361 269.488 241.746 271.246 243.504C273.004 245.262 275.389 246.25 277.875 246.25H396.625C399.111 246.25 401.496 245.262 403.254 243.504C405.012 241.746 406 239.361 406 236.875C406 234.389 405.012 232.004 403.254 230.246C401.496 228.488 399.111 227.5 396.625 227.5ZM396.625 265H277.875C275.389 265 273.004 265.988 271.246 267.746C269.488 269.504 268.5 271.889 268.5 274.375C268.5 276.861 269.488 279.246 271.246 281.004C273.004 282.762 275.389 283.75 277.875 283.75H396.625C399.111 283.75 401.496 282.762 403.254 281.004C405.012 279.246 406 276.861 406 274.375C406 271.889 405.012 269.504 403.254 267.746C401.496 265.988 399.111 265 396.625 265ZM396.625 302.5H277.875C275.389 302.5 273.004 303.488 271.246 305.246C269.488 307.004 268.5 309.389 268.5 311.875C268.5 314.361 269.488 316.746 271.246 318.504C273.004 320.262 275.389 321.25 277.875 321.25H396.625C399.111 321.25 401.496 320.262 403.254 318.504C405.012 316.746 406 314.361 406 311.875C406 309.389 405.012 307.004 403.254 305.246C401.496 303.488 399.111 302.5 396.625 302.5ZM396.625 340H277.875C275.389 340 273.004 340.988 271.246 342.746C269.488 344.504 268.5 346.889 268.5 349.375C268.5 351.861 269.488 354.246 271.246 356.004C273.004 357.762 275.389 358.75 277.875 358.75H396.625C399.111 358.75 401.496 357.762 403.254 356.004C405.012 354.246 406 351.861 406 349.375C406 346.889 405.012 344.504 403.254 342.746C401.496 340.988 399.111 340 396.625 340ZM396.625 377.5H277.875C275.389 377.5 273.004 378.488 271.246 380.246C269.488 382.004 268.5 384.389 268.5 386.875C268.5 389.361 269.488 391.746 271.246 393.504C273.004 395.262 275.389 396.25 277.875 396.25H396.625C399.111 396.25 401.496 395.262 403.254 393.504C405.012 391.746 406 389.361 406 386.875C406 384.389 405.012 382.004 403.254 380.246C401.496 378.488 399.111 377.5 396.625 377.5ZM390 160.75C392.25 156.5 393.5 151.5 393.5 146.25C393.5 137.962 390.208 130.013 384.347 124.153C378.487 118.292 370.538 115 362.25 115C353.962 115 346.013 118.292 340.153 124.153C334.292 130.013 331 137.962 331 146.25C331 154.538 334.292 162.487 340.153 168.347C346.013 174.208 353.962 177.5 362.25 177.5C367.5 177.5 372.488 176.25 376.738 174L389.987 187.25C390.856 188.124 391.89 188.818 393.028 189.291C394.166 189.765 395.386 190.008 396.619 190.008C397.851 190.008 399.072 189.765 400.21 189.291C401.348 188.818 402.381 188.124 403.25 187.25C404.121 186.379 404.812 185.346 405.284 184.208C405.755 183.07 405.998 181.85 405.998 180.619C405.998 179.387 405.755 178.168 405.284 177.03C404.812 175.892 404.121 174.858 403.25 173.987L390 160.75ZM349.75 146.25C349.75 139.375 355.375 133.75 362.25 133.75C369.125 133.75 374.75 139.375 374.75 146.25C374.75 153.125 369.125 158.75 362.25 158.75C355.375 158.75 349.75 153.125 349.75 146.25ZM127.875 190H284.125C296.187 190 306 180.187 306 168.125V136.875C306 124.813 296.187 115 284.125 115H127.875C115.813 115 106 124.813 106 136.875V168.125C106 180.187 115.813 190 127.875 190ZM162.75 311.875L124.75 264.375L115.375 252.75L107.25 242.625C106.375 244.75 106 247 106 249.375V374.375C106 376.75 106.375 379 107.25 381.125L115.375 371L124.75 359.25L162.75 311.875ZM120.25 229L126.75 237L134.125 246.25L174.75 296.875L215.375 246.25L222.75 237L229.25 229C226.875 228 224.25 227.5 221.625 227.5H127.875C125.25 227.5 122.625 228 120.25 229ZM234.125 252.875L224.75 264.5L186.75 311.875L224.75 359.25L234.125 371L242.25 381.125C243.125 379 243.5 376.75 243.5 374.375V249.375C243.5 247 243.125 244.75 242.25 242.625L234.125 252.875ZM215.375 377.5L174.75 326.875L134.125 377.5L126.75 386.75L120.375 394.75C122.75 395.75 125.25 396.25 127.875 396.25H221.625C224.25 396.25 226.875 395.75 229.25 394.75L222.75 386.75L215.375 377.5Z" fill="white"/>
<defs>
<linearGradient id="paint0_linear_210_213" x1="344.32" y1="96" x2="85.76" y2="512" gradientUnits="userSpaceOnUse">
<stop stop-color="#FFB700"/>
<stop offset="1" stop-color="#FF9738"/>
</linearGradient>
</defs>
</svg>
