<svg width="512" height="512" viewBox="0 0 512 512" fill="none" xmlns="http://www.w3.org/2000/svg">
<circle cx="256" cy="256" r="256" fill="url(#paint0_linear_210_205)"/>
<path d="M161.624 365.526V290.033C165.65 290.425 170.399 290.629 175.582 290.629C207.17 290.629 232.711 282.297 249.451 266.524C263.163 253.496 270.718 234.088 270.718 211.875C270.718 190.302 261.695 170.795 245.979 158.367C230.528 146.009 207.824 140 176.568 140C149.492 140 126.613 141.558 108.56 144.631C107.844 144.752 107.194 145.123 106.725 145.678C106.257 146.233 106 146.936 106 147.662V365.526C106 366.342 106.324 367.124 106.901 367.701C107.478 368.278 108.26 368.602 109.076 368.602H158.548C159.364 368.602 160.146 368.278 160.723 367.701C161.3 367.124 161.624 366.342 161.624 365.526ZM161.624 245.374V185.173C164.644 184.593 170.317 183.827 179.186 183.827C202.008 183.827 215.097 194.528 215.097 213.184C215.097 233.823 200.205 246.147 175.255 246.147C169.27 246.147 165.007 245.911 161.624 245.374ZM360.368 264.666C339.985 257.533 336.547 254.136 336.547 249.222C336.547 240.496 346.523 239.193 352.473 239.193C365.105 239.193 378.282 243.932 385.728 247.99C386.139 248.214 386.595 248.341 387.063 248.361C387.53 248.382 387.996 248.296 388.425 248.11C388.854 247.923 389.235 247.641 389.539 247.285C389.842 246.929 390.061 246.509 390.178 246.056L399.024 211.659C399.199 210.978 399.136 210.257 398.844 209.618C398.552 208.978 398.05 208.457 397.421 208.143C388.238 203.552 371.178 198.644 350.833 198.644C310.635 198.644 282.561 221.464 282.561 254.086C282.289 270.002 290.332 291.792 330.202 305.213C349.569 311.669 351.689 315.024 351.689 320.643C351.689 323.204 351.689 330.999 333.47 330.999C319.822 330.999 301.395 324.938 292.148 319.323C291.736 319.072 291.27 318.922 290.789 318.885C290.308 318.847 289.825 318.924 289.379 319.108C288.932 319.292 288.536 319.578 288.221 319.944C287.906 320.309 287.681 320.744 287.565 321.212L278.721 356.924C278.557 357.586 278.618 358.284 278.894 358.907C279.169 359.531 279.644 360.045 280.244 360.369C293.774 367.682 313.176 371.877 333.47 371.877C378.208 371.877 406 350.864 406 316.997C405.646 291.542 391.567 275.401 360.368 264.666Z" fill="white"/>
<defs>
<linearGradient id="paint0_linear_210_205" x1="344.32" y1="96" x2="85.76" y2="512" gradientUnits="userSpaceOnUse">
<stop stop-color="#E02B2B"/>
<stop offset="1" stop-color="#B11313"/>
</linearGradient>
</defs>
</svg>
