<svg width="512" height="512" viewBox="0 0 512 512" fill="none" xmlns="http://www.w3.org/2000/svg">
<circle cx="256" cy="256" r="256" fill="url(#paint0_linear_210_216)"/>
<path d="M256 116H284.665L288.45 146.255C302.705 149.16 315.975 154.776 327.705 162.541L351.795 143.806L378.195 170.206L359.46 194.296C367.359 206.214 372.888 219.542 375.745 233.551L406 237.336V274.666L375.745 278.451C372.84 292.706 367.225 305.976 359.46 317.706L378.195 341.796L351.795 368.196L327.705 349.461C315.787 357.36 302.459 362.889 288.45 365.746L284.665 396.002H256V315.17C259.305 315.723 262.65 316.001 266 316C299.115 316 326 289.115 326 256C326 222.885 299.115 196 266 196C262.59 196 259.25 196.285 256 196.83V116ZM216 106C193.925 106 176 123.925 176 146C176 146.425 176.005 146.845 176.02 147.271C172.747 146.425 169.38 145.998 165.999 146C143.924 146 125.999 163.926 125.999 186C125.999 198.18 131.454 209.1 140.059 216.44C120.795 219.31 106 235.94 106 256C106 276.06 120.795 292.69 140.06 295.56C131.455 302.9 126 313.82 126 326C126 348.075 143.925 366 166 366C169.46 366 172.815 365.56 176.02 364.73C176.006 365.153 175.999 365.577 176 366C176 388.075 193.926 406.001 216 406.001C238.075 406.001 256 388.075 256 366V146C256 123.925 238.075 106 216 106Z" stroke="white" stroke-width="20" stroke-miterlimit="10" stroke-linecap="round" stroke-linejoin="round"/>
<path d="M176 146C176 168.075 193.926 186 216 186M176 366C176 343.925 193.926 325.999 216 325.999M181 296C181 273.925 198.925 256 221 256M221 256C198.925 256 181 238.074 181 216M221 256H256" stroke="white" stroke-width="20" stroke-miterlimit="10" stroke-linecap="round" stroke-linejoin="round"/>
<defs>
<linearGradient id="paint0_linear_210_216" x1="344.32" y1="96" x2="85.76" y2="512" gradientUnits="userSpaceOnUse">
<stop stop-color="#3340B5"/>
<stop offset="1" stop-color="#182068"/>
</linearGradient>
</defs>
</svg>
