<svg width="512" height="512" viewBox="0 0 512 512" fill="none" xmlns="http://www.w3.org/2000/svg">
<circle cx="256" cy="256" r="256" fill="url(#paint0_linear_210_198)"/>
<g clip-path="url(#clip0_210_198)">
<path fill-rule="evenodd" clip-rule="evenodd" d="M224.84 306.76L224.816 306.713C225.268 306.473 225.725 306.221 226.193 305.969C228.373 314.037 228.133 321.566 225.877 328.387C225.631 329.143 225.355 329.893 225.051 330.631C224.752 331.369 224.43 332.102 224.084 332.822C222.344 336.426 220.012 339.807 217.152 342.924C208.439 352.428 196.264 356.025 191.043 352.996C185.4 349.727 188.225 336.32 198.332 325.639C209.201 314.148 224.84 306.76 224.84 306.76Z" fill="white"/>
<path fill-rule="evenodd" clip-rule="evenodd" d="M256 106C173.16 106 106 173.16 106 256C106 338.84 173.16 406 256 406C338.84 406 406 338.84 406 256C406 173.16 338.84 106 256 106ZM304.908 238.996C278.904 249.057 257.4 247.463 248.57 244.568C238.527 241.27 232.639 234.648 231.203 230.91C230.641 229.451 229.668 226.99 231.203 226.141C232.146 225.619 232.521 225.742 235.047 228.525C237.449 231.168 247.088 238.27 265.404 236.213C313.469 230.828 342.42 193.48 333.273 173.383C326.869 159.32 289.814 152.969 243.531 176.037C187.029 204.191 183.965 227.4 183.484 236.213C182.16 260.459 213.408 273.221 230.313 291.256C230.711 291.678 231.098 292.105 231.473 292.539C236.588 290.635 243.672 289.563 254.934 289.369C282.273 288.9 297.719 306.924 297.086 323.037C296.588 335.729 284.934 340.961 282.771 341.324C281.195 341.594 280.34 341.635 280.117 340.404C279.965 339.555 280.527 339.162 282.373 338.02C284.219 336.877 289.738 333.098 290.723 326.219C291.707 319.346 286.545 302.916 260.236 299.84C250.908 298.75 243.572 299.494 237.279 301.158C241.838 311.213 242.717 331.439 232.217 347.096C221.336 363.326 201.092 373.199 181.363 367.709C174.994 365.939 165.379 352.779 173.676 334.439C181.539 317.055 215.137 300.051 219.73 297.789V297.713C204.162 284.307 166.287 266.242 160.949 238.604C159.437 230.77 163.111 212.02 186.139 190.486C205.504 172.369 232.439 158.494 257.318 149.658C299.125 134.805 343.299 143.564 350.09 170.201C356.77 196.398 334.029 227.734 304.908 238.996Z" fill="white"/>
</g>
<defs>
<linearGradient id="paint0_linear_210_198" x1="449.28" y1="32" x2="85.76" y2="512" gradientUnits="userSpaceOnUse">
<stop stop-color="#A522E2"/>
<stop offset="1" stop-color="#900AA6"/>
</linearGradient>
<clipPath id="clip0_210_198">
<rect width="300" height="300" fill="white" transform="translate(106 106)"/>
</clipPath>
</defs>
</svg>
