<svg width="512" height="512" viewBox="0 0 512 512" fill="none" xmlns="http://www.w3.org/2000/svg">
<circle cx="256" cy="256" r="256" fill="url(#paint0_linear_210_217)"/>
<path d="M260.003 225.054C260.003 223.384 259.675 221.731 259.036 220.188C258.398 218.645 257.462 217.243 256.281 216.062C255.101 214.881 253.699 213.944 252.156 213.305C250.614 212.665 248.96 212.336 247.29 212.336H220.97L227.276 166.967C229.097 154.276 240.101 147.263 252.047 148.565C263.388 148.565 272.619 158.208 272.619 170.052C272.584 171.743 272.887 173.424 273.51 174.997C274.133 176.569 275.064 178.002 276.248 179.21C277.431 180.418 278.844 181.378 280.404 182.033C281.963 182.688 283.637 183.026 285.329 183.026C287.02 183.026 288.694 182.688 290.254 182.033C291.813 181.378 293.226 180.418 294.41 179.21C295.593 178.002 296.524 176.569 297.147 174.997C297.77 173.424 298.073 171.743 298.038 170.052C298.038 144.177 277.408 123.134 252.047 123.134C227.736 121.286 205.429 138.692 202.092 163.463L195.299 212.336H172.595C169.223 212.336 165.989 213.676 163.604 216.061C161.22 218.445 159.88 221.679 159.88 225.052C159.88 228.424 161.22 231.658 163.604 234.043C165.989 236.427 169.223 237.767 172.595 237.767H191.763L176.977 344.171C175.52 354.687 166.745 362.616 156.583 362.616H152.034C140.672 362.616 131.425 352.951 131.425 341.08C131.013 324.28 106.397 324.355 106 341.08C105.893 368.857 129.599 390.194 156.583 388.041C179.367 388.041 198.963 370.683 202.161 347.669L217.429 237.767H247.285C248.954 237.767 250.607 237.438 252.15 236.799C253.692 236.16 255.093 235.224 256.274 234.044C257.454 232.863 258.391 231.462 259.03 229.919C259.668 228.377 259.997 226.724 259.997 225.054H260.003Z" fill="white"/>
<path d="M282.09 224.095C280.552 223.446 278.901 223.106 277.231 223.095C275.562 223.085 273.907 223.402 272.36 224.031C270.813 224.66 269.406 225.587 268.217 226.76C267.029 227.933 266.084 229.328 265.435 230.867C245.27 278.653 245.27 327.081 265.435 374.814C272.41 390.114 294.99 380.487 288.856 364.914C271.221 323.171 271.221 282.558 288.856 240.756C289.506 239.218 289.847 237.567 289.859 235.897C289.871 234.227 289.553 232.571 288.925 231.024C288.297 229.477 287.37 228.069 286.197 226.88C285.024 225.691 283.629 224.745 282.09 224.095ZM390.878 230.867C383.989 215.615 361.317 225.108 367.451 240.756C385.092 282.558 385.092 323.171 367.451 364.914C366.138 368.02 366.113 371.52 367.381 374.644C368.649 377.769 371.106 380.262 374.212 381.574C377.318 382.887 380.818 382.912 383.942 381.645C387.067 380.377 389.56 377.92 390.873 374.814C411.042 327.081 411.048 278.653 390.878 230.867Z" fill="white"/>
<path d="M359.035 259.222C356.283 257.275 352.87 256.501 349.547 257.07C346.224 257.638 343.262 259.503 341.314 262.254L328.156 280.833L314.999 262.254C313.018 259.586 310.071 257.8 306.79 257.277C303.508 256.755 300.152 257.537 297.44 259.457C294.728 261.378 292.875 264.283 292.278 267.552C291.681 270.821 292.387 274.194 294.246 276.949L312.578 302.84L294.246 328.726C292.387 331.481 291.681 334.854 292.278 338.123C292.875 341.392 294.728 344.297 297.44 346.218C300.152 348.138 303.508 348.92 306.79 348.398C310.071 347.875 313.018 346.088 314.999 343.421L328.156 324.842L341.314 343.421C342.488 345.082 344.045 346.437 345.853 347.371C347.66 348.306 349.666 348.792 351.701 348.788C361.633 349.072 368.153 336.778 362.067 328.726L343.735 302.84L362.067 276.949C364.016 274.196 364.791 270.782 364.222 267.458C363.653 264.133 361.788 261.171 359.035 259.222Z" fill="white"/>
<defs>
<linearGradient id="paint0_linear_210_217" x1="344.32" y1="96" x2="85.76" y2="512" gradientUnits="userSpaceOnUse">
<stop stop-color="#3340B5"/>
<stop offset="1" stop-color="#182068"/>
</linearGradient>
</defs>
</svg>
