<svg width="512" height="512" viewBox="0 0 512 512" fill="none" xmlns="http://www.w3.org/2000/svg">
<circle cx="256" cy="256" r="256" fill="url(#paint0_linear_210_208)"/>
<g clip-path="url(#clip0_210_208)">
<path d="M312.897 188.759H292.207V178.414H312.897V168.069H281.862V157.724H312.897V147.379H292.207V137.034H312.897V126.69H281.862V116.345H312.897V106H261.172V209.448H312.897V188.759ZM224.966 116.055L218.583 126.69H231.348L224.966 116.055Z" fill="white"/>
<path d="M173.241 354.276C181.811 354.276 188.759 347.328 188.759 338.758C188.759 330.189 181.811 323.241 173.241 323.241C164.671 323.241 157.724 330.189 157.724 338.758C157.724 347.328 164.671 354.276 173.241 354.276Z" fill="white"/>
<path d="M199.103 168.069H209.448V209.448H199.103V168.069ZM240.483 168.069H250.828V209.448H240.483V168.069ZM219.793 168.069H230.138V209.448H219.793V168.069ZM173.241 302.552C153.276 302.552 137.034 318.793 137.034 338.759C137.034 358.724 153.276 374.966 173.241 374.966C193.207 374.966 209.448 358.724 209.448 338.759C209.448 318.793 193.207 302.552 173.241 302.552ZM173.241 364.621C158.981 364.621 147.379 353.019 147.379 338.759C147.379 324.498 158.981 312.897 173.241 312.897C187.502 312.897 199.103 324.498 199.103 338.759C199.103 353.019 187.502 364.621 173.241 364.621ZM237.555 137.035H212.376L199.962 157.724H249.969L237.555 137.035ZM178.414 261.173H193.931V276.323C193.931 279.529 196.372 280.792 197.122 281.102C197.872 281.412 200.49 282.255 202.76 279.979L213.472 269.267L242.733 298.528L232.021 309.24C229.755 311.505 230.588 314.128 230.898 314.878C231.209 315.628 232.471 318.069 235.678 318.069H250.828V359.448H235.678C234.652 359.436 233.646 359.734 232.793 360.303C231.94 360.873 231.279 361.687 230.898 362.64C230.492 363.583 230.383 364.627 230.583 365.633C230.783 366.64 231.285 367.562 232.021 368.278L242.733 378.99L236.412 385.311H292.207C315.022 385.311 333.586 366.747 333.586 343.931V250.828H178.414V261.173ZM364.621 261.173H343.931V271.517H364.621C381.736 271.517 395.655 285.436 395.655 302.552C395.655 319.667 381.736 333.586 364.621 333.586H343.931V343.931H364.621C387.436 343.931 406 325.367 406 302.552C406 279.736 387.436 261.173 364.621 261.173ZM178.414 219.793H333.586V240.483H178.414V219.793Z" fill="white"/>
<path d="M221.34 358.683C222.486 355.827 224.468 353.385 227.027 351.675C229.585 349.966 232.601 349.07 235.678 349.103H240.483V328.414H235.678C232.602 328.447 229.587 327.55 227.03 325.84C224.472 324.131 222.491 321.689 221.345 318.834C220.138 316.005 219.814 312.878 220.413 309.861C221.013 306.844 222.51 304.078 224.707 301.926L228.105 298.528L213.472 283.895L210.074 287.293C207.924 289.494 205.158 290.993 202.141 291.593C199.123 292.193 195.994 291.866 193.166 290.655C190.31 289.51 187.867 287.529 186.158 284.971C184.448 282.413 183.552 279.399 183.586 276.322V271.517H162.897V276.322C162.929 279.398 162.032 282.413 160.323 284.97C158.614 287.528 156.172 289.509 153.317 290.655C150.488 291.865 147.36 292.191 144.343 291.591C141.325 290.991 138.56 289.493 136.409 287.293L133.01 283.895L118.378 298.528L121.776 301.926C123.976 304.077 125.474 306.842 126.074 309.86C126.674 312.877 126.347 316.006 125.138 318.834C123.993 321.69 122.012 324.133 119.454 325.842C116.896 327.552 113.881 328.448 110.805 328.414H106V349.103H110.805C117.203 349.103 122.697 352.771 125.143 358.683C126.35 361.512 126.674 364.64 126.075 367.657C125.475 370.673 123.978 373.439 121.781 375.591L118.383 378.99L133.016 393.622L136.414 390.224C138.566 388.027 141.332 386.53 144.349 385.931C147.365 385.331 150.493 385.655 153.322 386.862C156.177 388.008 158.619 389.989 160.327 392.547C162.036 395.105 162.931 398.119 162.897 401.195V406H183.586V401.195C183.586 394.802 187.253 389.309 193.166 386.862C195.995 385.655 199.122 385.331 202.139 385.931C205.156 386.53 207.922 388.027 210.074 390.224L213.472 393.622L228.105 378.99L224.707 375.591C222.508 373.44 221.009 370.675 220.408 367.658C219.808 364.641 220.132 361.512 221.34 358.683ZM173.241 385.31C147.576 385.31 126.69 364.424 126.69 338.759C126.69 313.093 147.576 292.207 173.241 292.207C198.907 292.207 219.793 313.093 219.793 338.759C219.793 364.424 198.907 385.31 173.241 385.31ZM374.966 137.034H385.31V126.69H395.655V116.345H385.31V106H374.966V116.345H364.621V126.69H374.966V137.034ZM374.966 188.759H385.31V178.414H395.655V168.069H385.31V157.724H374.966V168.069H364.621V178.414H374.966V188.759ZM374.966 240.483H385.31V230.138H395.655V219.793H385.31V209.448H374.966V219.793H364.621V230.138H374.966V240.483ZM126.69 157.724H137.034V147.379H147.379V137.034H137.034V126.69H126.69V137.034H116.345V147.379H126.69V157.724ZM126.69 209.448H137.034V199.103H147.379V188.759H137.034V178.414H126.69V188.759H116.345V199.103H126.69V209.448ZM126.69 261.172H137.034V250.828H147.379V240.483H137.034V230.138H126.69V240.483H116.345V250.828H126.69V261.172Z" fill="white"/>
</g>
<defs>
<linearGradient id="paint0_linear_210_208" x1="344.32" y1="96" x2="85.76" y2="512" gradientUnits="userSpaceOnUse">
<stop stop-color="#E02B2B"/>
<stop offset="1" stop-color="#B11313"/>
</linearGradient>
<clipPath id="clip0_210_208">
<rect width="300" height="300" fill="white" transform="translate(106 106)"/>
</clipPath>
</defs>
</svg>
