<svg width="512" height="512" viewBox="0 0 512 512" fill="none" xmlns="http://www.w3.org/2000/svg">
<circle cx="256" cy="256" r="256" fill="url(#paint0_linear_210_206)"/>
<path d="M109.237 380.634H163.741C164.449 380.634 165.137 380.401 165.701 379.973C166.265 379.544 166.673 378.943 166.862 378.261L182.758 320.958H244.464L261.709 378.328C261.91 378.995 262.32 379.579 262.879 379.995C263.438 380.41 264.116 380.634 264.812 380.634H321.408C321.95 380.634 322.483 380.498 322.959 380.239C323.435 379.979 323.838 379.605 324.132 379.149C324.425 378.694 324.6 378.172 324.639 377.632C324.679 377.091 324.582 376.549 324.358 376.056L252.383 143.942C252.178 143.281 251.767 142.704 251.21 142.293C250.653 141.883 249.98 141.662 249.288 141.662H180.298C179.604 141.662 178.929 141.885 178.371 142.297C177.814 142.71 177.403 143.29 177.201 143.954L106.142 376.448C105.994 376.933 105.961 377.445 106.047 377.943C106.132 378.442 106.334 378.914 106.635 379.321C106.936 379.728 107.328 380.059 107.78 380.287C108.232 380.515 108.731 380.634 109.237 380.634ZM234.958 275.156H192.156L204.803 229.945C207.1 221.799 209.271 212.159 211.371 202.836C211.851 200.695 212.324 198.594 212.793 196.54C215.572 207.708 218.627 219.774 221.691 229.979L234.958 275.156ZM348.604 205.478C347.745 205.478 346.922 205.819 346.314 206.426C345.707 207.033 345.366 207.857 345.366 208.716V377.395C345.366 378.254 345.707 379.078 346.314 379.685C346.922 380.293 347.745 380.634 348.604 380.634H401.036C401.895 380.634 402.719 380.293 403.326 379.685C403.933 379.078 404.275 378.254 404.275 377.395V208.716C404.275 207.857 403.933 207.033 403.326 206.426C402.719 205.819 401.895 205.478 401.036 205.478H348.604ZM374.476 191.255C392.743 191.255 406 178.867 406 161.727C405.602 144.224 392.781 132 374.821 132C365.652 132 357.511 135.163 351.897 140.909C346.629 146.298 343.822 153.715 343.985 161.8C343.818 169.627 346.631 176.911 351.911 182.318C357.538 188.081 365.553 191.255 374.476 191.255Z" fill="white"/>
<defs>
<linearGradient id="paint0_linear_210_206" x1="344.32" y1="96" x2="85.76" y2="512" gradientUnits="userSpaceOnUse">
<stop stop-color="#E02B2B"/>
<stop offset="1" stop-color="#B11313"/>
</linearGradient>
</defs>
</svg>
