<svg width="512" height="512" viewBox="0 0 512 512" fill="none" xmlns="http://www.w3.org/2000/svg">
<circle cx="256" cy="256" r="256" fill="url(#paint0_linear_210_215)"/>
<path d="M390.961 151H204.567C197.356 151 191.143 156.141 189.795 163.224L167.814 278.579L157.469 239.139C155.737 232.531 149.755 227.915 142.923 227.915H121.039C112.746 227.916 106 234.662 106 242.954C106 251.247 112.746 257.993 121.039 257.993H131.32L155.593 350.537C157.326 357.145 163.306 361.761 170.136 361.761C170.307 361.761 170.481 361.758 170.652 361.752C177.725 361.511 183.589 356.487 184.912 349.537L217.011 181.077H390.961C399.254 181.077 406 174.331 406 166.038C406 157.746 399.254 151 390.961 151Z" fill="white"/>
<path d="M374.128 223.205C366.764 215.838 354.774 215.837 347.401 223.203L307.615 262.989L267.827 223.202C260.461 215.836 248.473 215.836 241.103 223.204C233.736 230.572 233.736 242.56 241.103 249.929L280.889 289.714L241.104 329.501C233.736 336.869 233.736 348.857 241.104 356.226C244.673 359.795 249.419 361.761 254.466 361.761C259.513 361.761 264.258 359.795 267.829 356.226L307.615 316.44L347.402 356.227C350.972 359.796 355.717 361.761 360.764 361.761C365.81 361.761 370.556 359.795 374.127 356.226C381.494 348.858 381.495 336.869 374.127 329.5L334.341 289.715L374.127 249.929C381.494 242.561 381.495 230.572 374.128 223.205Z" fill="white"/>
<defs>
<linearGradient id="paint0_linear_210_215" x1="344.32" y1="96" x2="85.76" y2="512" gradientUnits="userSpaceOnUse">
<stop stop-color="#3340B5"/>
<stop offset="1" stop-color="#182068"/>
</linearGradient>
</defs>
</svg>
