<svg width="512" height="512" viewBox="0 0 512 512" fill="none" xmlns="http://www.w3.org/2000/svg">
<circle cx="256" cy="256" r="256" fill="url(#paint0_linear_210_204)"/>
<path d="M336.357 148.857H360.924L325.643 113.576V138.143C325.646 140.983 326.776 143.707 328.785 145.715C330.793 147.724 333.517 148.854 336.357 148.857ZM106 406H237.71L106 274.29V406ZM127.429 336.357C127.429 335.297 127.743 334.262 128.331 333.381C128.92 332.5 129.757 331.813 130.736 331.407C131.715 331.002 132.792 330.896 133.831 331.103C134.87 331.309 135.825 331.82 136.574 332.569L179.431 375.426C180.18 376.175 180.691 377.13 180.897 378.169C181.104 379.208 180.998 380.285 180.592 381.264C180.187 382.243 179.5 383.08 178.619 383.668C177.738 384.257 176.702 384.571 175.643 384.571H132.786C131.365 384.571 130.002 384.007 128.998 383.002C127.993 381.998 127.429 380.635 127.429 379.214V336.357Z" fill="white"/>
<path d="M138.143 349.29V373.857H162.71L138.143 349.29ZM403.131 219.15C404.945 217.308 405.957 214.824 405.947 212.239C405.937 209.655 404.906 207.178 403.078 205.351C401.251 203.523 398.775 202.492 396.19 202.482C393.605 202.471 391.121 203.484 389.279 205.297L386.791 207.785L400.643 221.638L403.131 219.15ZM289.615 318.814L298.705 316.996L291.433 309.723L289.615 318.814ZM295.68 298.86L379.163 215.377L393.013 229.227L309.531 312.71L295.68 298.86ZM213.143 252.518L250.643 269.185V221.981L213.143 205.314V252.518Z" fill="white"/>
<path d="M368.5 268.933L313.36 324.074C312.612 324.822 311.659 325.332 310.622 325.539L283.836 330.896C282.972 331.069 282.077 331.026 281.233 330.771C280.389 330.515 279.621 330.055 278.997 329.431C278.374 328.808 277.914 328.04 277.658 327.195C277.403 326.351 277.359 325.457 277.532 324.592L282.89 297.806C283.097 296.769 283.607 295.817 284.355 295.069L368.5 210.924V159.571H336.357C330.676 159.565 325.229 157.305 321.212 153.288C317.195 149.271 314.935 143.824 314.929 138.143V106H154.214C151.374 106.003 148.65 107.133 146.642 109.142C144.633 111.15 143.503 113.874 143.5 116.714V296.638L210.005 363.143H256V347.071C256 345.651 256.564 344.288 257.569 343.283C258.574 342.279 259.936 341.714 261.357 341.714H368.5V268.933ZM344.763 176.166L349.383 185.834L326.95 196.548L322.329 186.88L344.763 176.166ZM250.643 132.786H261.357V159.571H250.643V132.786ZM175.643 116.714H186.357V127.429H175.643V116.714ZM154.214 116.714H164.929V127.429H154.214V116.714ZM167.237 282.263L162.617 272.594L185.05 261.88L189.671 271.548L167.237 282.263ZM185.05 196.548L162.617 185.834L167.237 176.166L189.671 186.88L185.05 196.548ZM197.071 116.714H207.786V127.429H197.071V116.714ZM205.61 260.896C204.663 260.475 203.858 259.788 203.294 258.919C202.729 258.05 202.429 257.036 202.429 256V197.071C202.42 196.034 202.718 195.017 203.284 194.147C203.851 193.278 204.661 192.595 205.613 192.183V192.176L253.828 170.747C254.513 170.443 255.254 170.286 256.004 170.286C256.754 170.286 257.495 170.443 258.18 170.747L306.395 192.176V192.183C307.346 192.596 308.154 193.28 308.719 194.149C309.284 195.018 309.58 196.035 309.571 197.071V256C309.571 257.036 309.271 258.05 308.706 258.919C308.142 259.788 307.337 260.475 306.39 260.896L258.176 282.324V282.32C257.491 282.627 256.75 282.786 256 282.786C255.25 282.787 254.508 282.63 253.823 282.324L205.61 260.896ZM261.357 325.643H250.643V298.857H261.357V325.643Z" fill="white"/>
<path d="M261.357 269.185L298.857 252.518V205.315L261.357 221.981V269.185ZM291.024 197.071L256 181.505L220.976 197.071L256 212.637L291.024 197.071ZM395.286 363.143H384.571V352.429H373.857V363.143H363.143V352.429H352.429V363.143H341.714V352.429H331V363.143H320.286V352.429H309.571V363.143H298.857V352.429H288.143V363.143H277.429V352.429H266.714V384.571H406V352.429H395.286V363.143Z" fill="white"/>
<defs>
<linearGradient id="paint0_linear_210_204" x1="344.32" y1="96" x2="85.76" y2="512" gradientUnits="userSpaceOnUse">
<stop stop-color="#E02B2B"/>
<stop offset="1" stop-color="#B11313"/>
</linearGradient>
</defs>
</svg>
