<svg width="512" height="512" viewBox="0 0 512 512" fill="none" xmlns="http://www.w3.org/2000/svg">
<circle cx="256" cy="256" r="256" fill="url(#paint0_linear_210_211)"/>
<path fill-rule="evenodd" clip-rule="evenodd" d="M156.008 256.052C156.008 243.868 160.848 232.183 169.464 223.568C178.079 214.952 189.764 210.112 201.948 210.112H247.904V301.992H201.948C189.764 301.992 178.079 297.152 169.464 288.536C160.848 279.921 156.008 268.236 156.008 256.052ZM201.948 193.896H247.904V102H201.948C189.762 102 178.075 106.841 169.458 115.458C160.841 124.075 156 135.762 156 147.948C156 160.134 160.841 171.821 169.458 180.438C178.075 189.055 189.762 193.896 201.948 193.896ZM356 147.94C356.002 153.974 354.815 159.95 352.508 165.525C350.2 171.101 346.816 176.167 342.55 180.435C338.284 184.702 333.219 188.088 327.644 190.398C322.07 192.707 316.094 193.896 310.06 193.896H264.12V102H310.06C322.244 102 333.929 106.84 342.545 115.455C351.16 124.071 356 135.756 356 147.94ZM264.12 256.052C264.12 243.868 268.96 232.183 277.576 223.568C286.191 214.952 297.876 210.112 310.06 210.112C322.244 210.112 333.929 214.952 342.545 223.568C351.16 232.183 356 243.868 356 256.052C356 268.236 351.16 279.921 342.545 288.536C333.929 297.152 322.244 301.992 310.06 301.992C297.876 301.992 286.191 297.152 277.576 288.536C268.96 279.921 264.12 268.236 264.12 256.052ZM201.948 318.208H247.904V364.164C247.901 373.249 245.204 382.128 240.155 389.681C235.106 397.233 227.931 403.119 219.537 406.594C211.143 410.069 201.908 410.977 192.998 409.204C184.088 407.431 175.904 403.056 169.48 396.632C163.056 390.208 158.681 382.024 156.908 373.114C155.135 364.204 156.043 354.969 159.518 346.575C162.993 338.181 168.879 331.006 176.431 325.957C183.984 320.908 192.863 318.211 201.948 318.208Z" fill="white"/>
<defs>
<linearGradient id="paint0_linear_210_211" x1="344.32" y1="96" x2="85.76" y2="512" gradientUnits="userSpaceOnUse">
<stop stop-color="#FFB700"/>
<stop offset="1" stop-color="#FF9738"/>
</linearGradient>
</defs>
</svg>
