<svg width="512" height="512" viewBox="0 0 512 512" fill="none" xmlns="http://www.w3.org/2000/svg">
<circle cx="256" cy="256" r="256" fill="url(#paint0_linear_210_218)"/>
<path fill-rule="evenodd" clip-rule="evenodd" d="M205.09 87.6136C208.042 84.6604 212.046 83.0009 216.222 83H342.19C354.719 83 366.734 87.9769 375.593 96.8357C384.451 105.695 389.428 117.71 389.428 130.238V208.968C389.428 213.144 387.769 217.149 384.816 220.102C381.863 223.055 377.858 224.714 373.682 224.714C369.506 224.714 365.501 223.055 362.548 220.102C359.595 217.149 357.936 213.144 357.936 208.968V130.238C357.936 126.062 356.277 122.057 353.324 119.104C350.371 116.151 346.366 114.492 342.19 114.492H231.968V193.222C231.968 197.398 230.309 201.403 227.356 204.356C224.403 207.309 220.398 208.968 216.222 208.968H137.492V382.174C137.496 386.348 139.157 390.349 142.109 393.298C145.062 396.248 149.065 397.905 153.238 397.905H168.984C173.16 397.905 177.165 399.564 180.118 402.516C183.071 405.469 184.73 409.474 184.73 413.651C184.73 417.827 183.071 421.832 180.118 424.785C177.165 427.738 173.16 429.397 168.984 429.397H153.238C140.71 429.397 128.695 424.42 119.836 415.561C110.977 406.702 106 394.687 106 382.159V193.222C106.005 189.052 107.664 185.054 110.614 182.105L205.09 87.6136ZM159.757 177.476H200.476V136.757L159.757 177.476ZM310.698 299.508C310.698 293.821 311.818 288.191 313.994 282.937C316.17 277.683 319.36 272.91 323.381 268.889C327.402 264.868 332.175 261.678 337.429 259.502C342.683 257.326 348.313 256.206 354 256.206H389.428C393.604 256.206 397.609 257.865 400.562 260.818C403.515 263.771 405.174 267.776 405.174 271.952C405.174 276.128 403.515 280.133 400.562 283.086C397.609 286.039 393.604 287.698 389.428 287.698H354C350.868 287.698 347.864 288.942 345.649 291.157C343.434 293.372 342.19 296.376 342.19 299.508C342.19 302.64 343.434 305.644 345.649 307.858C347.864 310.073 350.868 311.317 354 311.317H361.873C367.628 311.207 373.347 312.246 378.695 314.373C384.044 316.499 388.915 319.67 393.024 323.702C397.133 327.733 400.396 332.542 402.624 337.85C404.852 343.157 406 348.855 406 354.611C406 360.367 404.852 366.065 402.624 371.372C400.396 376.679 397.133 381.489 393.024 385.52C388.915 389.551 384.044 392.723 378.695 394.849C373.347 396.976 367.628 398.014 361.873 397.905H326.444C322.268 397.905 318.263 396.246 315.31 393.293C312.357 390.34 310.698 386.335 310.698 382.159C310.698 377.982 312.357 373.977 315.31 371.024C318.263 368.071 322.268 366.413 326.444 366.413H361.873C365.005 366.413 368.009 365.168 370.223 362.954C372.438 360.739 373.682 357.735 373.682 354.603C373.682 351.471 372.438 348.467 370.223 346.252C368.009 344.038 365.005 342.794 361.873 342.794H354C342.518 342.794 331.507 338.234 323.386 330.116C315.266 321.999 310.702 310.989 310.698 299.508ZM294.952 271.952C294.952 267.776 293.293 263.771 290.34 260.818C287.387 257.865 283.382 256.206 279.206 256.206C275.03 256.206 271.025 257.865 268.072 260.818C265.119 263.771 263.46 267.776 263.46 271.952V350.682C263.46 354.858 261.801 358.863 258.848 361.816C255.895 364.769 251.89 366.428 247.714 366.428C243.538 366.428 239.533 364.769 236.58 361.816C233.627 358.863 231.968 354.858 231.968 350.682V345.423C231.968 341.247 230.309 337.242 227.356 334.289C224.403 331.336 220.398 329.677 216.222 329.677C212.046 329.677 208.041 331.336 205.088 334.289C202.135 337.242 200.476 341.247 200.476 345.423V350.682C200.476 363.211 205.453 375.226 214.312 384.085C223.171 392.943 235.186 397.92 247.714 397.92C260.242 397.92 272.258 392.943 281.116 384.085C289.975 375.226 294.952 363.211 294.952 350.682V271.952Z" fill="white"/>
<defs>
<linearGradient id="paint0_linear_210_218" x1="344.32" y1="96" x2="85.76" y2="512" gradientUnits="userSpaceOnUse">
<stop stop-color="#3340B5"/>
<stop offset="1" stop-color="#182068"/>
</linearGradient>
</defs>
</svg>
