<svg width="512" height="512" viewBox="0 0 512 512" fill="none" xmlns="http://www.w3.org/2000/svg">
<circle cx="256" cy="256" r="256" fill="url(#paint0_linear_210_203)"/>
<path d="M172.772 197.489C170.31 197.489 168.591 202.193 168.591 208.928C168.591 215.477 170.288 220.051 172.718 220.051C176.696 220.051 176.898 210.522 176.898 208.612C176.898 206.002 176.6 197.489 172.772 197.489ZM172.772 262.18C170.31 262.18 168.591 266.885 168.591 273.62C168.591 280.169 170.288 284.743 172.718 284.743C176.696 284.743 176.898 275.213 176.898 273.303C176.898 270.694 176.6 262.18 172.772 262.18ZM136.6 197.489C134.138 197.489 132.419 202.193 132.419 208.928C132.419 215.477 134.117 220.051 136.547 220.051C140.524 220.051 140.726 210.522 140.726 208.612C140.726 206.002 140.428 197.489 136.6 197.489ZM136.6 262.18C134.138 262.18 132.419 266.885 132.419 273.62C132.419 280.169 134.117 284.743 136.547 284.743C140.524 284.743 140.726 275.213 140.726 273.303C140.726 270.694 140.428 262.18 136.6 262.18ZM328.279 157.678V122.884C328.279 119.088 325.143 116 321.286 116H112.994C109.137 116 106 119.088 106 122.884V157.678L328.279 157.678ZM304.455 132.275H317.273V143.29H304.455V132.275ZM279.511 132.275H292.328V143.29H279.511V132.275ZM254.567 132.275H267.384V143.29H254.567V132.275ZM118.041 132.275H233.918V143.29H118.041V132.275ZM208.943 197.489C206.482 197.489 204.763 202.193 204.763 208.928C204.763 215.477 206.46 220.051 208.89 220.051C212.868 220.051 213.069 210.522 213.069 208.612C213.069 206.002 212.771 197.489 208.943 197.489Z" fill="white"/>
<path d="M106 168.692V304.896C106 308.692 109.137 311.78 112.994 311.78H227.569C224.256 303.314 222.554 294.304 222.55 285.214C222.55 262.903 232.662 242.89 248.585 229.421H240.767V200.472L235.493 203.294L233.04 193.7L243.562 188.117H251.426V227.136C263.953 217.551 279.649 211.838 296.669 211.838C307.68 211.838 318.447 214.235 328.28 218.83V168.692H106ZM136.28 294.114C129.422 294.114 122.043 288.724 121.901 273.595C121.901 260.967 127.775 252.81 136.867 252.81C145.871 252.81 151.246 260.392 151.246 273.092C151.246 292.066 140.78 294.114 136.28 294.114ZM136.28 229.422C129.422 229.422 122.043 224.032 121.901 208.903C121.901 196.274 127.775 188.118 136.867 188.118C145.871 188.118 151.246 195.7 151.246 208.4C151.246 227.373 140.78 229.422 136.28 229.422ZM172.452 294.114C165.594 294.114 158.215 288.724 158.073 273.595C158.073 260.967 163.946 252.81 173.038 252.81C182.042 252.81 187.417 260.392 187.417 273.092C187.417 292.066 176.951 294.114 172.452 294.114ZM172.452 229.422C165.594 229.422 158.215 224.032 158.073 208.903C158.073 196.274 163.946 188.118 173.038 188.118C182.042 188.118 187.417 195.7 187.417 208.4C187.417 227.373 176.951 229.422 172.452 229.422ZM215.253 294.114H204.594V265.164L199.32 267.987L196.867 258.393L207.389 252.81H215.253V294.114ZM208.623 229.422C201.765 229.422 194.387 224.032 194.244 208.903C194.244 196.274 200.118 188.118 209.21 188.118C218.214 188.118 223.589 195.7 223.589 208.4C223.589 227.373 213.123 229.422 208.623 229.422ZM331.292 350.096L371.202 389.572C379.175 397.459 392.148 397.459 400.121 389.573C407.959 381.819 407.96 368.895 400.121 361.141L360.711 322.158C353.737 333.936 343.46 343.694 331.292 350.096ZM291.163 281.219C284.396 280.088 278.193 277.032 273.303 272.44C265.75 289.015 271.166 316.072 291.163 321.573V281.219ZM320.862 272.286C315.766 277.134 309.252 280.29 302.175 281.329V321.801C314.814 318.873 324.408 305.198 324.408 288.807C324.407 282.803 323.114 277.168 320.862 272.286Z" fill="white"/>
<path d="M279.575 263.112C283.809 267.777 289.889 270.557 296.493 270.698C303.528 270.859 310.075 268.012 314.555 262.999C309.823 258.149 303.743 255.226 297.118 255.226C290.443 255.226 284.323 258.196 279.575 263.112Z" fill="white"/>
<path d="M296.669 222.853C261.871 222.853 233.561 250.828 233.561 285.214C233.561 319.601 261.871 347.576 296.669 347.576C331.467 347.576 359.777 319.601 359.777 285.214C359.777 250.828 331.467 222.853 296.669 222.853ZM334.959 321.514C333.506 321.514 332.112 320.939 331.08 319.915C330.049 318.891 329.465 317.501 329.454 316.048C329.534 315.279 329.489 314.031 329.048 313.4C322.182 325.443 310.436 333.402 297.118 333.402C283.401 333.402 271.326 324.531 264.871 312.823C263.964 313.47 263.741 314.995 263.884 316.045C263.874 317.498 263.29 318.889 262.259 319.913C261.227 320.938 259.833 321.513 258.379 321.513H258.34C255.3 321.492 252.851 319.009 252.872 315.968C252.64 310.348 255.466 305.008 260.696 302.581C257.906 292.605 258.237 281.636 261.694 271.87C256.965 269.571 254.174 264.749 254.076 259.587C254.071 258.864 254.208 258.147 254.48 257.477C254.752 256.807 255.153 256.197 255.66 255.682C256.168 255.166 256.772 254.756 257.438 254.475C258.104 254.193 258.819 254.045 259.542 254.04C263.075 254.04 264.973 256.765 265.092 259.968C265.099 260.853 265.691 261.62 266.534 261.996C269.237 257.834 272.828 253.93 276.83 251.007C275.285 246.17 276.186 240.818 279.504 236.618L279.701 236.368C281.585 233.978 285.047 233.571 287.434 235.455C289.821 237.339 290.23 240.802 288.347 243.189C287.741 243.911 287.353 244.762 287.184 245.741C293.282 243.835 299.8 243.725 305.959 245.423C305.84 244.608 305.507 243.838 304.994 243.193C304.089 242.046 303.676 240.588 303.846 239.137C304.016 237.686 304.756 236.363 305.902 235.457C308.286 233.572 311.749 233.978 313.635 236.365C315.171 238.302 316.225 240.577 316.709 243.002C317.193 245.427 317.093 247.932 316.418 250.311C320.487 253.087 324.078 256.711 327.013 260.975C327.264 260.525 327.379 260.014 327.346 259.5C327.359 258.048 327.944 256.66 328.975 255.637C330.006 254.615 331.399 254.041 332.852 254.041L332.899 254.041C333.622 254.047 334.337 254.196 335.003 254.479C335.669 254.761 336.272 255.172 336.779 255.688C337.286 256.204 337.686 256.814 337.957 257.485C338.228 258.155 338.364 258.873 338.358 259.596C338.379 261.858 337.827 264.089 336.753 266.08C335.68 268.072 334.12 269.759 332.218 270.985C336.025 281.11 336.424 292.585 333.428 302.968C338.146 305.537 340.611 310.729 340.466 315.966C340.472 316.69 340.335 317.407 340.063 318.077C339.791 318.747 339.39 319.357 338.882 319.872C338.375 320.388 337.771 320.798 337.105 321.08C336.439 321.361 335.723 321.509 335 321.514H334.959Z" fill="white"/>
<defs>
<linearGradient id="paint0_linear_210_203" x1="344.32" y1="96" x2="85.76" y2="512" gradientUnits="userSpaceOnUse">
<stop stop-color="#36B85A"/>
<stop offset="1" stop-color="#119937"/>
</linearGradient>
</defs>
</svg>
