<svg width="512" height="512" viewBox="0 0 512 512" fill="none" xmlns="http://www.w3.org/2000/svg">
<circle cx="256" cy="256" r="256" fill="url(#paint0_linear_210_201)"/>
<path d="M190.593 126.66C159.2 126.66 133.66 152.2 133.66 183.593C133.66 214.987 159.2 240.528 190.593 240.528C221.987 240.528 247.528 214.987 247.528 183.593C247.527 152.201 221.986 126.66 190.593 126.66ZM207.102 212.323L204.108 209.086C189.081 217.39 170.308 211.246 163.685 194.357C157.854 179.497 164.836 163.213 178.858 156.847C185.876 153.664 194.946 153.59 202.003 157.009C219.633 165.556 224.326 188.765 211.31 203.259L219.564 212.323H207.102Z" fill="white"/>
<path d="M275.186 183.594C275.186 136.949 237.238 99 190.593 99C143.949 99.0007 106 136.949 106 183.594C106 220.414 129.521 252.763 164.529 264.09C165.41 264.375 166.146 264.991 166.582 265.809C167.017 266.626 167.118 267.58 166.864 268.471L160.514 290.651L191.475 268.788C192.045 268.386 192.72 268.159 193.418 268.136C239.28 266.631 275.186 229.467 275.186 183.594ZM190.594 247.671C155.261 247.671 126.517 218.926 126.517 183.594C126.517 148.261 155.261 119.517 190.594 119.517C225.926 119.517 254.671 148.261 254.671 183.594C254.671 218.926 225.925 247.671 190.594 247.671ZM354.214 163.286C363.076 163.286 370.286 156.077 370.286 147.215C370.286 138.353 363.076 131.144 354.214 131.144C345.353 131.144 338.143 138.353 338.143 147.215C338.143 156.076 345.353 163.286 354.214 163.286ZM310.968 312.391H324.563L317.846 292.078L310.968 312.391Z" fill="white"/>
<path d="M196.623 167.732C192.758 165.714 187.211 165.833 183.594 167.773C173.875 172.988 172.776 187.83 178.981 195.612C180.248 197.204 181.826 198.484 183.715 199.456C187.483 201.394 192.586 201.278 195.854 199.86L186.629 189.664H199.092L202.652 193.629C205.432 188.764 205.978 182.559 204.271 177.08C203.008 173.031 200.443 169.726 196.623 167.732ZM152.429 352.572C146.521 352.572 141.714 357.378 141.714 363.287C141.714 369.194 146.521 374.001 152.429 374.001C158.336 374.001 163.143 369.194 163.143 363.287C163.143 357.378 158.336 352.572 152.429 352.572ZM317.846 248.74C286.453 248.74 260.912 274.28 260.912 305.674C260.912 337.067 286.453 362.608 317.846 362.608C349.24 362.608 374.781 337.067 374.781 305.674C374.781 274.28 349.24 248.74 317.846 248.74ZM331.199 334.403L326.749 321.535H308.864L304.494 334.403H290.898L311.859 276.945H323.836L344.797 334.403H331.199Z" fill="white"/>
<path d="M343.91 386.171C378.919 374.844 402.439 342.494 402.439 305.674C402.439 259.029 364.491 221.081 317.846 221.081C271.201 221.081 233.252 259.029 233.252 305.674C233.252 351.576 269.169 388.711 315.021 390.216C315.719 390.239 316.394 390.466 316.964 390.868L347.924 412.731L341.576 390.551C341.321 389.661 341.422 388.706 341.858 387.889C342.293 387.072 343.029 386.456 343.91 386.171ZM317.846 369.751C282.514 369.751 253.769 341.007 253.769 305.674C253.769 270.342 282.514 241.597 317.846 241.597C353.179 241.597 381.924 270.342 381.924 305.674C381.924 341.006 353.179 369.751 317.846 369.751Z" fill="white"/>
<path d="M293.5 124.001C296.459 124.001 298.857 121.602 298.857 118.644C298.857 115.685 296.459 113.286 293.5 113.286C290.541 113.286 288.143 115.685 288.143 118.644C288.143 121.602 290.541 124.001 293.5 124.001Z" fill="white"/>
<path d="M118.5 109.715C121.459 109.715 123.857 107.317 123.857 104.358C123.857 101.399 121.459 99.0007 118.5 99.0007C115.541 99.0007 113.143 101.399 113.143 104.358C113.143 107.317 115.541 109.715 118.5 109.715Z" fill="white"/>
<path d="M400.643 391.858C403.601 391.858 406 389.459 406 386.501C406 383.542 403.601 381.144 400.643 381.144C397.684 381.144 395.286 383.542 395.286 386.501C395.286 389.459 397.684 391.858 400.643 391.858Z" fill="white"/>
<path d="M389.929 195.429C392.887 195.429 395.286 193.031 395.286 190.072C395.286 187.113 392.887 184.715 389.929 184.715C386.97 184.715 384.572 187.113 384.572 190.072C384.572 193.031 386.97 195.429 389.929 195.429Z" fill="white"/>
<path d="M197.071 331.143C200.03 331.143 202.429 328.745 202.429 325.786C202.429 322.828 200.03 320.429 197.071 320.429C194.113 320.429 191.714 322.828 191.714 325.786C191.714 328.745 194.113 331.143 197.071 331.143Z" fill="white"/>
<path d="M114.929 291.858C117.887 291.858 120.286 289.459 120.286 286.501C120.286 283.542 117.887 281.144 114.929 281.144C111.97 281.144 109.572 283.542 109.572 286.501C109.572 289.459 111.97 291.858 114.929 291.858Z" fill="white"/>
<path d="M247.071 399.001C250.03 399.001 252.429 396.602 252.429 393.644C252.429 390.685 250.03 388.286 247.071 388.286C244.113 388.286 241.714 390.685 241.714 393.644C241.714 396.602 244.113 399.001 247.071 399.001Z" fill="white"/>
<path d="M190.593 126.66C159.2 126.66 133.66 152.2 133.66 183.593C133.66 214.987 159.2 240.528 190.593 240.528C221.987 240.528 247.528 214.987 247.528 183.593C247.527 152.201 221.986 126.66 190.593 126.66ZM207.102 212.323L204.108 209.086C189.081 217.39 170.308 211.246 163.685 194.357C157.854 179.497 164.836 163.213 178.858 156.847C185.876 153.664 194.946 153.59 202.003 157.009C219.633 165.556 224.326 188.765 211.31 203.259L219.564 212.323H207.102Z" fill="white"/>
<path d="M275.186 183.594C275.186 136.949 237.238 99 190.593 99C143.949 99.0007 106 136.949 106 183.594C106 220.414 129.521 252.763 164.529 264.09C165.41 264.375 166.146 264.991 166.582 265.809C167.017 266.626 167.118 267.58 166.864 268.471L160.514 290.651L191.475 268.788C192.045 268.386 192.72 268.159 193.418 268.136C239.28 266.631 275.186 229.467 275.186 183.594ZM190.594 247.671C155.261 247.671 126.517 218.926 126.517 183.594C126.517 148.261 155.261 119.517 190.594 119.517C225.926 119.517 254.671 148.261 254.671 183.594C254.671 218.926 225.925 247.671 190.594 247.671ZM354.214 163.286C363.076 163.286 370.286 156.077 370.286 147.215C370.286 138.353 363.076 131.144 354.214 131.144C345.353 131.144 338.143 138.353 338.143 147.215C338.143 156.076 345.353 163.286 354.214 163.286ZM310.968 312.391H324.563L317.846 292.078L310.968 312.391Z" fill="white"/>
<path d="M196.623 167.732C192.758 165.714 187.211 165.833 183.594 167.773C173.875 172.988 172.776 187.83 178.981 195.612C180.248 197.204 181.826 198.484 183.715 199.456C187.483 201.394 192.586 201.278 195.854 199.86L186.629 189.664H199.092L202.652 193.629C205.432 188.764 205.978 182.559 204.271 177.08C203.008 173.031 200.443 169.726 196.623 167.732ZM152.429 352.572C146.521 352.572 141.714 357.378 141.714 363.287C141.714 369.194 146.521 374.001 152.429 374.001C158.336 374.001 163.143 369.194 163.143 363.287C163.143 357.378 158.336 352.572 152.429 352.572ZM317.846 248.74C286.453 248.74 260.912 274.28 260.912 305.674C260.912 337.067 286.453 362.608 317.846 362.608C349.24 362.608 374.781 337.067 374.781 305.674C374.781 274.28 349.24 248.74 317.846 248.74ZM331.199 334.403L326.749 321.535H308.864L304.494 334.403H290.898L311.859 276.945H323.836L344.797 334.403H331.199Z" fill="white"/>
<path d="M343.91 386.171C378.919 374.844 402.439 342.494 402.439 305.674C402.439 259.029 364.491 221.081 317.846 221.081C271.201 221.081 233.252 259.029 233.252 305.674C233.252 351.576 269.169 388.711 315.021 390.216C315.719 390.239 316.394 390.466 316.964 390.868L347.924 412.731L341.576 390.551C341.321 389.661 341.422 388.706 341.858 387.889C342.293 387.072 343.029 386.456 343.91 386.171ZM317.846 369.751C282.514 369.751 253.769 341.007 253.769 305.674C253.769 270.342 282.514 241.597 317.846 241.597C353.179 241.597 381.924 270.342 381.924 305.674C381.924 341.006 353.179 369.751 317.846 369.751Z" fill="white"/>
<path d="M293.5 124.001C296.459 124.001 298.857 121.602 298.857 118.644C298.857 115.685 296.459 113.286 293.5 113.286C290.541 113.286 288.143 115.685 288.143 118.644C288.143 121.602 290.541 124.001 293.5 124.001Z" fill="white"/>
<path d="M118.5 109.715C121.459 109.715 123.857 107.317 123.857 104.358C123.857 101.399 121.459 99.0007 118.5 99.0007C115.541 99.0007 113.143 101.399 113.143 104.358C113.143 107.317 115.541 109.715 118.5 109.715Z" fill="white"/>
<path d="M400.643 391.858C403.601 391.858 406 389.459 406 386.501C406 383.542 403.601 381.144 400.643 381.144C397.684 381.144 395.286 383.542 395.286 386.501C395.286 389.459 397.684 391.858 400.643 391.858Z" fill="white"/>
<path d="M389.929 195.429C392.887 195.429 395.286 193.031 395.286 190.072C395.286 187.113 392.887 184.715 389.929 184.715C386.97 184.715 384.572 187.113 384.572 190.072C384.572 193.031 386.97 195.429 389.929 195.429Z" fill="white"/>
<path d="M197.071 331.143C200.03 331.143 202.429 328.745 202.429 325.786C202.429 322.828 200.03 320.429 197.071 320.429C194.113 320.429 191.714 322.828 191.714 325.786C191.714 328.745 194.113 331.143 197.071 331.143Z" fill="white"/>
<path d="M114.929 291.858C117.887 291.858 120.286 289.459 120.286 286.501C120.286 283.542 117.887 281.144 114.929 281.144C111.97 281.144 109.572 283.542 109.572 286.501C109.572 289.459 111.97 291.858 114.929 291.858Z" fill="white"/>
<path d="M247.071 399.001C250.03 399.001 252.429 396.602 252.429 393.644C252.429 390.685 250.03 388.286 247.071 388.286C244.113 388.286 241.714 390.685 241.714 393.644C241.714 396.602 244.113 399.001 247.071 399.001Z" fill="white"/>
<defs>
<linearGradient id="paint0_linear_210_201" x1="344.32" y1="96" x2="85.76" y2="512" gradientUnits="userSpaceOnUse">
<stop stop-color="#36B85A"/>
<stop offset="1" stop-color="#119937"/>
</linearGradient>
</defs>
</svg>
