<svg width="512" height="512" viewBox="0 0 512 512" fill="none" xmlns="http://www.w3.org/2000/svg">
<circle cx="256" cy="256" r="256" fill="url(#paint0_linear_210_200)"/>
<path d="M126 126H186V106H106V186H126V126ZM326 106V126H386V186H406V106H326ZM126 326H106V406H186V386H126V326ZM386 386H326V406H406V326H386V386ZM371 261V251H350.75C349.521 227.595 339.671 205.474 323.098 188.902C306.526 172.329 284.405 162.479 261 161.25V141H251V161.25C227.595 162.479 205.474 172.329 188.902 188.902C172.329 205.474 162.479 227.595 161.25 251H141V261H161.25C162.479 284.405 172.329 306.526 188.902 323.098C205.474 339.671 227.595 349.521 251 350.75V371H261V350.75C284.405 349.521 306.526 339.671 323.098 323.098C339.671 306.526 349.521 284.405 350.75 261H371ZM330.75 261C329.544 279.102 321.808 296.151 308.979 308.979C296.151 321.808 279.102 329.544 261 330.75V311H251V330.75C232.898 329.544 215.849 321.808 203.021 308.979C190.192 296.151 182.456 279.102 181.25 261H201V251H181.25C182.456 232.898 190.192 215.849 203.021 203.021C215.849 190.192 232.898 182.456 251 181.25V201H261V181.25C279.102 182.456 296.151 190.192 308.979 203.021C321.808 215.849 329.544 232.898 330.75 251H311V261H330.75Z" fill="white"/>
<path d="M241 271C241 274.978 242.58 278.794 245.393 281.607C248.206 284.42 252.022 286 256 286C259.978 286 263.794 284.42 266.607 281.607C269.42 278.794 271 274.978 271 271V251H241V271ZM256 226C252.022 226 248.206 227.58 245.393 230.393C242.58 233.207 241 237.022 241 241H271C271 237.022 269.42 233.207 266.607 230.393C263.794 227.58 259.978 226 256 226ZM258.66 216.27C262.404 216.651 266.012 217.881 269.21 219.865L279.535 209.535L272.465 202.465L258.66 216.27ZM253.34 216.27L239.535 202.465L232.465 209.535L242.79 219.865C245.988 217.881 249.596 216.651 253.34 216.27ZM226 256H231V246H226C224.674 246 223.402 245.473 222.464 244.536C221.527 243.598 221 242.326 221 241V231H211V241C211 244.978 212.58 248.794 215.393 251.607C218.206 254.42 222.022 256 226 256ZM291 241C291 242.326 290.473 243.598 289.536 244.536C288.598 245.473 287.326 246 286 246H281V256H286C289.978 256 293.794 254.42 296.607 251.607C299.42 248.794 301 244.978 301 241V231H291V241ZM286 266H281V271C281.002 272.679 280.834 274.354 280.5 276H286C287.326 276 288.598 276.527 289.536 277.465C290.473 278.402 291 279.674 291 281V291H301V281C301 277.022 299.42 273.207 296.607 270.393C293.794 267.58 289.978 266 286 266ZM231 266H226C222.022 266 218.206 267.58 215.393 270.393C212.58 273.207 211 277.022 211 281V291H221V281C221 279.674 221.527 278.402 222.464 277.465C223.402 276.527 224.674 276 226 276H231.5C231.166 274.354 230.998 272.679 231 271V266Z" fill="white"/>
<defs>
<linearGradient id="paint0_linear_210_200" x1="344.32" y1="96" x2="85.76" y2="512" gradientUnits="userSpaceOnUse">
<stop stop-color="#36B85A"/>
<stop offset="1" stop-color="#119937"/>
</linearGradient>
</defs>
</svg>
