<svg width="512" height="512" viewBox="0 0 512 512" fill="none" xmlns="http://www.w3.org/2000/svg">
<circle cx="256" cy="256" r="256" fill="url(#paint0_linear_210_209)"/>
<path d="M365.065 118.91C365.6 118.163 365.918 117.282 365.986 116.366C366.053 115.449 365.866 114.532 365.446 113.715C365.026 112.897 364.389 112.211 363.605 111.733C362.82 111.254 361.919 111 361 111H347.785C346.993 111.001 346.213 111.191 345.509 111.555C344.805 111.918 344.199 112.445 343.74 113.09L317.545 149.915C317.087 150.561 316.48 151.088 315.776 151.451C315.073 151.815 314.292 152.005 313.5 152.005C312.708 152.005 311.927 151.815 311.224 151.451C310.52 151.088 309.913 150.561 309.455 149.915L283.26 113.09C282.801 112.445 282.195 111.918 281.491 111.555C280.787 111.191 280.007 111.001 279.215 111H266C265.083 111.004 264.184 111.26 263.403 111.74C262.621 112.221 261.987 112.907 261.569 113.723C261.152 114.54 260.967 115.456 261.035 116.371C261.103 117.286 261.421 118.164 261.955 118.91L266.59 125.41L276.85 139.83L298.72 170.575C299.327 171.424 299.654 172.441 299.654 173.485C299.654 174.529 299.327 175.546 298.72 176.395L261.935 228.09C261.4 228.837 261.082 229.718 261.014 230.634C260.947 231.551 261.134 232.468 261.554 233.285C261.974 234.103 262.611 234.789 263.395 235.267C264.18 235.746 265.081 236 266 236H279.235C280.027 235.999 280.807 235.809 281.511 235.445C282.215 235.082 282.821 234.555 283.28 233.91L309.475 197.085C309.933 196.438 310.539 195.91 311.243 195.546C311.947 195.182 312.728 194.992 313.52 194.992C314.312 194.992 315.093 195.182 315.797 195.546C316.501 195.91 317.107 196.438 317.565 197.085L343.76 233.91C344.219 234.555 344.825 235.082 345.529 235.445C346.233 235.809 347.013 235.999 347.805 236H361C361.917 235.996 362.816 235.74 363.597 235.26C364.379 234.779 365.013 234.093 365.431 233.277C365.848 232.46 366.033 231.544 365.965 230.629C365.897 229.714 365.579 228.836 365.045 228.09L328.3 176.41C327.693 175.561 327.366 174.544 327.366 173.5C327.366 172.456 327.693 171.439 328.3 170.59L365.065 118.91ZM166 111H151C149.674 111 148.402 111.527 147.464 112.464C146.527 113.402 146 114.674 146 116V191C146 197.162 147.266 203.259 149.718 208.912C152.171 214.565 155.759 219.654 160.259 223.863C164.759 228.073 170.076 231.313 175.88 233.384C181.684 235.454 187.851 236.311 194 235.9C205.571 234.891 216.332 229.542 224.123 220.927C231.913 212.312 236.156 201.069 236 189.455V116C236 114.674 235.473 113.402 234.536 112.464C233.598 111.527 232.326 111 231 111H216C214.674 111 213.402 111.527 212.464 112.464C211.527 113.402 211 114.674 211 116V191C211 193.791 210.416 196.552 209.285 199.104C208.154 201.656 206.501 203.943 204.433 205.818C202.365 207.693 199.928 209.114 197.278 209.99C194.627 210.866 191.823 211.178 189.045 210.905C184.006 210.281 179.376 207.817 176.045 203.985C172.714 200.154 170.917 195.226 171 190.15V116C171 114.674 170.473 113.402 169.536 112.464C168.598 111.527 167.326 111 166 111ZM231 276H216C214.674 276 213.402 276.527 212.464 277.464C211.527 278.402 211 279.674 211 281V356C211 358.791 210.416 361.552 209.285 364.104C208.154 366.656 206.501 368.943 204.433 370.818C202.365 372.693 199.928 374.114 197.278 374.99C194.627 375.866 191.823 376.178 189.045 375.905C184.006 375.281 179.376 372.817 176.045 368.985C172.714 365.154 170.917 360.226 171 355.15V281C171 279.674 170.473 278.402 169.536 277.464C168.598 276.527 167.326 276 166 276H151C149.674 276 148.402 276.527 147.464 277.464C146.527 278.402 146 279.674 146 281V356C146 362.162 147.266 368.259 149.718 373.912C152.171 379.565 155.759 384.654 160.259 388.863C164.759 393.073 170.076 396.313 175.88 398.384C181.684 400.454 187.851 401.311 194 400.9C205.571 399.891 216.332 394.542 224.123 385.927C231.913 377.312 236.156 366.069 236 354.455V281C236 279.674 235.473 278.402 234.536 277.464C233.598 276.527 232.326 276 231 276ZM361 276H271C269.674 276 268.402 276.527 267.464 277.464C266.527 278.402 266 279.674 266 281V296C266 297.326 266.527 298.598 267.464 299.536C268.402 300.473 269.674 301 271 301H301C302.326 301 303.598 301.527 304.536 302.464C305.473 303.402 306 304.674 306 306V371C306 372.326 305.473 373.598 304.536 374.536C303.598 375.473 302.326 376 301 376H271C269.674 376 268.402 376.527 267.464 377.464C266.527 378.402 266 379.674 266 381V396C266 397.326 266.527 398.598 267.464 399.536C268.402 400.473 269.674 401 271 401H361C362.326 401 363.598 400.473 364.536 399.536C365.473 398.598 366 397.326 366 396V381C366 379.674 365.473 378.402 364.536 377.464C363.598 376.527 362.326 376 361 376H331C329.674 376 328.402 375.473 327.464 374.536C326.527 373.598 326 372.326 326 371V306C326 304.674 326.527 303.402 327.464 302.464C328.402 301.527 329.674 301 331 301H361C362.326 301 363.598 300.473 364.536 299.536C365.473 298.598 366 297.326 366 296V281C366 279.674 365.473 278.402 364.536 277.464C363.598 276.527 362.326 276 361 276ZM401 251H111C109.674 251 108.402 251.527 107.464 252.464C106.527 253.402 106 254.674 106 256C106 257.326 106.527 258.598 107.464 259.536C108.402 260.473 109.674 261 111 261H401C402.326 261 403.598 260.473 404.536 259.536C405.473 258.598 406 257.326 406 256C406 254.674 405.473 253.402 404.536 252.464C403.598 251.527 402.326 251 401 251Z" fill="white"/>
<defs>
<linearGradient id="paint0_linear_210_209" x1="344.32" y1="96" x2="85.76" y2="512" gradientUnits="userSpaceOnUse">
<stop stop-color="#FFB700"/>
<stop offset="1" stop-color="#FF9738"/>
</linearGradient>
</defs>
</svg>
