<svg width="512" height="512" viewBox="0 0 512 512" fill="none" xmlns="http://www.w3.org/2000/svg">
<circle cx="256" cy="256" r="256" fill="url(#paint0_linear_210_195)"/>
<path d="M409.629 309.645L391.405 299.084L271.787 367.417C266.955 370.198 261.474 371.662 255.894 371.662C250.315 371.662 244.833 370.198 240.001 367.417L120.595 299.295L102.371 309.856C100.741 310.778 99.3843 312.113 98.4407 313.728C97.4972 315.342 97 317.177 97 319.045C97 320.913 97.4972 322.748 98.4407 324.362C99.3843 325.977 100.741 327.312 102.371 328.234L250.702 412.726C252.313 413.653 254.14 414.141 256 414.141C257.86 414.141 259.687 413.653 261.298 412.726L409.629 328.234C411.259 327.312 412.616 325.977 413.559 324.362C414.503 322.748 415 320.913 415 319.045C415 317.177 414.503 315.342 413.559 313.728C412.616 312.113 411.259 310.778 409.629 309.856V309.645Z" fill="white"/>
<path d="M409.629 246.276L391.405 235.714L271.787 304.047C266.955 306.828 261.474 308.292 255.894 308.292C250.315 308.292 244.833 306.828 240.001 304.047L120.595 235.926L102.371 246.487C100.741 247.408 99.3843 248.744 98.4407 250.358C97.4972 251.973 97 253.807 97 255.676C97 257.544 97.4972 259.379 98.4407 260.993C99.3843 262.607 100.741 263.943 102.371 264.864L250.702 349.356C252.313 350.283 254.14 350.771 256 350.771C257.86 350.771 259.687 350.283 261.298 349.356L409.629 264.864C411.259 263.943 412.616 262.607 413.559 260.993C414.503 259.379 415 257.544 415 255.676C415 253.807 414.503 251.973 413.559 250.358C412.616 248.744 411.259 247.408 409.629 246.487V246.276Z" fill="white"/>
<path d="M102.371 201.284L250.702 285.776C252.313 286.703 254.14 287.191 256 287.191C257.86 287.191 259.687 286.703 261.298 285.776L409.629 201.284C411.259 200.363 412.616 199.027 413.559 197.413C414.503 195.799 415 193.964 415 192.096C415 190.227 414.503 188.392 413.559 186.778C412.616 185.164 411.259 183.828 409.629 182.907L261.298 98.415C259.687 97.488 257.86 97 256 97C254.14 97 252.313 97.488 250.702 98.415L102.371 182.907C100.741 183.828 99.3843 185.164 98.4407 186.778C97.4972 188.392 97 190.227 97 192.096C97 193.964 97.4972 195.799 98.4407 197.413C99.3843 199.027 100.741 200.363 102.371 201.284ZM295.732 172.662L310.671 157.771L337.688 184.597C338.681 185.579 339.469 186.747 340.007 188.034C340.545 189.321 340.822 190.701 340.822 192.096C340.822 193.49 340.545 194.87 340.007 196.157C339.469 197.444 338.681 198.612 337.688 199.594L310.671 226.42L295.732 211.529L315.227 192.096L295.732 172.662ZM256 148.265L277.19 153.335L256 235.926L235.446 230.856L256 148.265ZM174.312 184.597L201.329 157.771L216.268 172.662L196.773 192.096L216.268 211.529L201.329 226.42L174.312 199.594C173.319 198.612 172.531 197.444 171.993 196.157C171.455 194.87 171.178 193.49 171.178 192.096C171.178 190.701 171.455 189.321 171.993 188.034C172.531 186.747 173.319 185.579 174.312 184.597Z" fill="white"/>
<defs>
<linearGradient id="paint0_linear_210_195" x1="449.28" y1="32" x2="85.76" y2="512" gradientUnits="userSpaceOnUse">
<stop stop-color="#A522E2"/>
<stop offset="1" stop-color="#900AA6"/>
</linearGradient>
</defs>
</svg>
