<svg width="512" height="512" viewBox="0 0 512 512" fill="none" xmlns="http://www.w3.org/2000/svg">
<circle cx="256" cy="256" r="256" fill="url(#paint0_linear_210_214)"/>
<path d="M207.695 129H182.271C154.189 129 131.424 151.765 131.424 179.847V230.695C131.424 244.736 120.041 256.119 106 256.119C120.041 256.119 131.424 267.501 131.424 281.542V332.39C131.424 360.472 154.189 383.237 182.271 383.237H207.695M306.847 129H329.729C357.811 129 380.576 151.765 380.576 179.847V230.695C380.576 244.736 391.959 256.119 406 256.119C391.959 256.119 380.576 267.501 380.576 281.542V332.39C380.576 360.472 357.811 383.237 329.729 383.237H306.847M182.271 179.847H207.695M258.542 179.847H329.729M329.729 332.39H304.305M253.458 332.39H182.271M329.729 230.695H304.305M253.458 230.695H182.271M182.271 281.542H207.695M258.542 281.542H329.729" stroke="white" stroke-width="25" stroke-miterlimit="10" stroke-linecap="round" stroke-linejoin="round"/>
<defs>
<linearGradient id="paint0_linear_210_214" x1="344.32" y1="96" x2="85.76" y2="512" gradientUnits="userSpaceOnUse">
<stop stop-color="#3340B5"/>
<stop offset="1" stop-color="#182068"/>
</linearGradient>
</defs>
</svg>
