<svg width="222" height="222" viewBox="0 0 222 222" fill="none" xmlns="http://www.w3.org/2000/svg">
<g clip-path="url(#clip0_202_6)">
<circle cx="111" cy="75" r="60.4714" fill="#E22828"/>
<path d="M113.29 78.6024C114.119 76.825 113.346 74.7039 111.569 73.8757C109.791 73.0474 107.67 73.8201 106.842 75.5975C106.013 77.3755 106.786 79.4956 108.564 80.3242C110.341 81.1524 112.462 80.3812 113.29 78.6024Z" fill="white"/>
<path d="M103.93 42.2768L139.387 58.7992C140.827 59.4702 142.625 58.6608 143.403 56.9914C144.18 55.3225 143.644 53.4247 142.204 52.7537L140.118 51.7818L141.685 48.4202C142.463 46.7508 141.926 44.8535 140.486 44.1825L114.415 32.0336C112.975 31.3628 111.177 32.1723 110.4 33.8417L108.833 37.2033L106.747 36.2313C105.307 35.5603 103.509 36.3703 102.732 38.0392C101.954 39.7085 102.49 41.6058 103.93 42.2768Z" fill="white"/>
<path fill-rule="evenodd" clip-rule="evenodd" d="M118.899 56.6105L135.833 64.5015L135.856 87.3454C135.857 87.9561 135.699 88.5742 135.401 89.1282C135.104 89.6823 134.678 90.1495 134.174 90.476L94.1396 116.403L108.739 86.685C112.355 86.8499 116.613 84.9473 118.449 81.0063C120.779 76.0063 117.747 70.1967 113.434 68.187L118.899 56.6105Z" fill="white"/>
<path d="M89.039 113.729L102.908 83.9675C100.455 81.3047 99.1182 77.0133 100.955 73.0723C103.285 68.0723 109.122 66.1773 113.434 68.187L118.899 56.6105L101.965 48.7195L84.3573 63.3294C83.8837 63.7222 83.5072 64.2436 83.272 64.8324C83.0367 65.4211 82.9525 66.0529 83.0292 66.6534L89.039 113.729Z" fill="white" fill-opacity="0.75"/>
</g>
<path d="M73.1807 167.003H70.0195V171.471H66.2617V167.003H62.6055C60.1341 167.003 58.2679 166.393 57.0068 165.175C55.7458 163.947 55.1152 162.123 55.1152 159.703C55.1152 157.308 55.7458 155.518 57.0068 154.333C58.2764 153.139 60.1383 152.543 62.5928 152.543C65.0557 152.543 66.9092 153.139 68.1533 154.333C69.3975 155.526 70.0195 157.316 70.0195 159.703V163.854H73.1807V167.003ZM66.2617 163.854V159.703C66.2617 158.256 65.9697 157.215 65.3857 156.58C64.8018 155.945 63.8708 155.628 62.5928 155.628C61.2894 155.628 60.3542 155.954 59.7871 156.605C59.2285 157.248 58.9492 158.281 58.9492 159.703C58.9492 161.125 59.2285 162.174 59.7871 162.851C60.3457 163.52 61.2767 163.854 62.5801 163.854H66.2617ZM78.8555 160.795V171.471H75.0977V160.515C75.0977 157.595 75.6986 155.539 76.9004 154.345C78.1107 153.144 79.9854 152.543 82.5244 152.543C85.0635 152.543 86.9339 153.139 88.1357 154.333C89.346 155.526 89.9512 157.587 89.9512 160.515V161.607H86.1934V160.795C86.1934 159.271 86.0791 158.201 85.8506 157.583C85.6305 156.956 85.2581 156.474 84.7334 156.135C84.2171 155.797 83.4808 155.628 82.5244 155.628C81.568 155.628 80.8275 155.797 80.3027 156.135C79.7865 156.474 79.4141 156.956 79.1855 157.583C78.9655 158.201 78.8555 159.271 78.8555 160.795ZM108.778 172.03C108.118 171.734 107.555 171.442 107.09 171.154C106.633 170.866 106.227 170.583 105.871 170.303C105.287 170.777 104.563 171.146 103.7 171.408C102.837 171.662 101.787 171.789 100.552 171.789C97.9704 171.789 96.0661 171.175 94.8389 169.948C93.6117 168.712 92.998 166.668 92.998 163.816V152.86H96.7559V163.283C96.7559 164.925 96.8743 166.076 97.1113 166.736C97.3483 167.388 97.7419 167.879 98.292 168.209C98.8421 168.539 99.5954 168.704 100.552 168.704C101.119 168.704 101.614 168.67 102.037 168.602C102.46 168.526 102.824 168.42 103.129 168.285C102.841 168.133 102.52 167.984 102.164 167.841C101.809 167.688 101.402 167.54 100.945 167.396L102.05 164.21C102.575 164.421 103.04 164.641 103.446 164.87C103.853 165.098 104.225 165.335 104.563 165.581C104.547 165.225 104.504 164.857 104.437 164.476C104.377 164.087 104.348 163.689 104.348 163.283V152.86H108.105V163.816C108.105 164.569 108.063 165.285 107.979 165.962C107.894 166.639 107.746 167.269 107.534 167.853C107.864 168.056 108.228 168.255 108.626 168.45C109.024 168.636 109.477 168.814 109.984 168.983L108.778 172.03ZM115.291 164.4C115.291 164.468 115.287 164.569 115.278 164.705C115.278 165.932 115.566 166.829 116.142 167.396C116.717 167.963 117.707 168.315 119.112 168.45V160.96C117.149 160.926 115.651 160.558 114.618 159.855C113.586 159.153 113.069 158.154 113.069 156.859C113.069 155.573 113.594 154.587 114.644 153.901C115.701 153.207 117.191 152.86 119.112 152.86H122.87V158.065C125.392 158.141 127.305 158.759 128.608 159.919C129.912 161.078 130.563 162.712 130.563 164.819C130.563 167.121 129.751 168.869 128.126 170.062C126.509 171.256 124.144 171.852 121.029 171.852C117.872 171.852 115.477 171.251 113.844 170.05C112.219 168.848 111.406 167.104 111.406 164.819C111.406 164.599 111.41 164.383 111.419 164.172C111.436 163.952 111.461 163.74 111.495 163.537L115.291 164.4ZM122.87 168.45C124.343 168.298 125.346 167.942 125.879 167.384C126.421 166.816 126.691 165.962 126.691 164.819C126.691 163.693 126.399 162.847 125.815 162.28C125.24 161.713 124.258 161.37 122.87 161.252V168.45ZM119.112 157.976V155.615C117.961 155.64 117.225 155.759 116.903 155.97C116.582 156.174 116.421 156.47 116.421 156.859C116.421 157.248 116.641 157.532 117.081 157.71C117.521 157.887 118.198 157.976 119.112 157.976ZM137.508 165.492V171.471H133.75V152.86H137.508V158.497C138.041 158.218 138.595 158.01 139.171 157.875C139.755 157.739 140.424 157.672 141.177 157.672C143.716 157.672 145.586 158.268 146.788 159.462C147.998 160.655 148.604 162.716 148.604 165.644V166.736H144.846V165.924C144.846 164.4 144.731 163.33 144.503 162.712C144.283 162.085 143.91 161.603 143.386 161.264C142.869 160.926 142.133 160.757 141.177 160.757C140.263 160.757 139.548 160.913 139.031 161.226C138.515 161.531 138.134 161.971 137.889 162.547C137.652 163.122 137.525 164.104 137.508 165.492ZM162.619 159.22V157.989H166.377V171.471H162.619V166.216C162.162 166.503 161.625 166.715 161.007 166.85C160.389 166.977 159.703 167.041 158.95 167.041C156.411 167.041 154.536 166.444 153.326 165.251C152.124 164.049 151.523 161.988 151.523 159.068V152.86H155.281V158.789C155.281 160.312 155.391 161.391 155.611 162.026C155.84 162.652 156.212 163.131 156.729 163.461C157.253 163.791 157.994 163.956 158.95 163.956C159.873 163.956 160.596 163.799 161.121 163.486C161.646 163.173 162.027 162.716 162.264 162.115C162.501 161.514 162.619 160.549 162.619 159.22ZM66.2744 190.795C66.2744 189.364 66.1644 188.306 65.9443 187.621C65.7243 186.935 65.3519 186.432 64.8271 186.11C64.3024 185.788 63.5618 185.628 62.6055 185.628C61.6491 185.628 60.9085 185.788 60.3838 186.11C59.859 186.432 59.4867 186.935 59.2666 187.621C59.0465 188.306 58.9365 189.364 58.9365 190.795V191.353H55.1787V190.515C55.1787 187.595 55.7796 185.539 56.9814 184.345C58.1917 183.144 60.0664 182.543 62.6055 182.543C65.1445 182.543 67.015 183.144 68.2168 184.345C69.4271 185.539 70.0322 187.595 70.0322 190.515V193.854H73.2061V197.003H70.0322V201.471H66.2744V190.795ZM78.9951 195.492V201.471H75.2373V182.86H78.9951V188.497C79.5283 188.218 80.0827 188.01 80.6582 187.875C81.2422 187.739 81.9108 187.672 82.6641 187.672C85.2031 187.672 87.0736 188.268 88.2754 189.462C89.4857 190.655 90.0908 192.716 90.0908 195.644V196.736H86.333V195.924C86.333 194.4 86.2188 193.33 85.9902 192.712C85.7702 192.085 85.3978 191.603 84.873 191.264C84.3568 190.926 83.6204 190.757 82.6641 190.757C81.75 190.757 81.0348 190.913 80.5186 191.226C80.0023 191.531 79.6214 191.971 79.376 192.547C79.139 193.122 79.012 194.104 78.9951 195.492ZM97.1494 198.298C98.4189 198.298 99.6123 197.9 100.729 197.104C101.847 196.309 102.74 195.234 103.408 193.88C104.077 192.517 104.411 191.125 104.411 189.703C104.411 188.34 104.085 187.32 103.434 186.643C102.782 185.966 101.842 185.628 100.615 185.628C99.3711 185.628 98.4316 185.962 97.7969 186.631C97.1621 187.291 96.8447 188.357 96.8447 189.83C96.8447 189.982 96.849 190.101 96.8574 190.185L93.0869 191.061C93.0361 190.63 93.0107 190.177 93.0107 189.703C93.0107 187.452 93.6836 185.695 95.0293 184.434C96.375 183.173 98.237 182.543 100.615 182.543C102.993 182.543 104.868 183.177 106.239 184.447C107.61 185.708 108.296 187.46 108.296 189.703C108.296 191.514 107.873 193.215 107.026 194.806C106.18 196.389 105.198 197.553 104.081 198.298H108.436V201.471H93.3789V196.482H97.1494V198.298ZM127.885 202.03C127.225 201.734 126.662 201.442 126.196 201.154C125.739 200.866 125.333 200.583 124.978 200.303C124.394 200.777 123.67 201.146 122.807 201.408C121.943 201.662 120.894 201.789 119.658 201.789C117.077 201.789 115.173 201.175 113.945 199.948C112.718 198.712 112.104 196.668 112.104 193.816V182.86H115.862V193.283C115.862 194.925 115.981 196.076 116.218 196.736C116.455 197.388 116.848 197.879 117.398 198.209C117.949 198.539 118.702 198.704 119.658 198.704C120.225 198.704 120.72 198.67 121.144 198.602C121.567 198.526 121.931 198.42 122.235 198.285C121.948 198.133 121.626 197.984 121.271 197.841C120.915 197.688 120.509 197.54 120.052 197.396L121.156 194.21C121.681 194.421 122.146 194.641 122.553 194.87C122.959 195.098 123.331 195.335 123.67 195.581C123.653 195.225 123.611 194.857 123.543 194.476C123.484 194.087 123.454 193.689 123.454 193.283V182.86H127.212V193.816C127.212 194.569 127.17 195.285 127.085 195.962C127 196.639 126.852 197.269 126.641 197.853C126.971 198.056 127.335 198.255 127.732 198.45C128.13 198.636 128.583 198.814 129.091 198.983L127.885 202.03ZM139.234 201.802C136.628 201.802 134.63 201.256 133.242 200.164C131.854 199.072 131.114 197.498 131.021 195.441L134.74 195.048C134.876 196.309 135.324 197.223 136.086 197.79C136.848 198.348 137.897 198.628 139.234 198.628C140.572 198.628 141.575 198.386 142.243 197.904C142.92 197.422 143.259 196.719 143.259 195.797C143.259 194.984 142.903 194.362 142.192 193.93C141.49 193.499 140.504 193.283 139.234 193.283H131.236V190.135H139.234C140.199 190.135 140.948 189.936 141.481 189.538C142.023 189.14 142.294 188.56 142.294 187.799C142.294 187.045 142.019 186.499 141.469 186.161C140.919 185.822 140.174 185.653 139.234 185.653C138.126 185.653 137.339 185.852 136.873 186.25C136.408 186.639 136.137 187.265 136.061 188.129L132.315 187.824C132.375 186.114 133.014 184.807 134.232 183.901C135.46 182.996 137.127 182.543 139.234 182.543C141.359 182.543 143.043 182.987 144.287 183.876C145.54 184.764 146.166 186.025 146.166 187.659C146.166 188.565 145.899 189.373 145.366 190.084C144.841 190.795 144.19 191.264 143.411 191.493C144.486 191.705 145.375 192.221 146.077 193.042C146.78 193.863 147.131 194.794 147.131 195.835C147.131 197.722 146.454 199.191 145.1 200.24C143.745 201.281 141.79 201.802 139.234 201.802ZM155.713 193.537C155.713 194.967 155.823 196.025 156.043 196.711C156.263 197.396 156.635 197.9 157.16 198.221C157.685 198.543 158.425 198.704 159.382 198.704C160.338 198.704 161.079 198.543 161.604 198.221C162.128 197.9 162.501 197.396 162.721 196.711C162.941 196.025 163.051 194.967 163.051 193.537V192.978H166.809V193.816C166.809 196.745 166.203 198.805 164.993 199.999C163.791 201.192 161.921 201.789 159.382 201.789C156.843 201.789 154.968 201.192 153.758 199.999C152.556 198.797 151.955 196.736 151.955 193.816V186.009H148.794V182.86H155.713V193.537Z" fill="black"/>
<defs>
<clipPath id="clip0_202_6">
<rect width="120.943" height="120.943" fill="white" transform="translate(50.5286 14.5286)"/>
</clipPath>
</defs>
</svg>
