<svg width="222" height="222" viewBox="0 0 222 222" fill="none" xmlns="http://www.w3.org/2000/svg">
<circle cx="111" cy="74.5" r="60.4714" fill="#313C9D"/>
<path d="M98.9056 110.783C92.226 110.783 86.8113 105.368 86.8113 98.6885V95.448C86.8113 86.8062 82.2011 78.8207 74.7171 74.5C82.2011 70.1793 86.8113 62.1938 86.8113 53.552V50.3115C86.8113 43.6321 92.226 38.2172 98.9056 38.2172" stroke="white" stroke-width="7" stroke-miterlimit="10" stroke-linecap="round" stroke-linejoin="round"/>
<path opacity="0.75" d="M123.094 38.2172C129.774 38.2172 135.188 43.6321 135.188 50.3115V53.552C135.188 62.1938 139.799 70.1793 147.283 74.5C139.799 78.8207 135.188 86.8062 135.188 95.448V98.6885C135.188 105.368 129.774 110.783 123.094 110.783" stroke="white" stroke-width="7" stroke-miterlimit="10" stroke-linecap="round" stroke-linejoin="round"/>
<path d="M95.1309 168.823H98.3047V171.971H91.373V166.716C90.9329 166.978 90.3997 167.181 89.7734 167.325C89.1471 167.469 88.4574 167.541 87.7041 167.541C85.165 167.541 83.2904 166.944 82.0801 165.751C80.8783 164.549 80.2773 162.488 80.2773 159.568V158.476H84.0352V159.289C84.0352 160.812 84.1452 161.891 84.3652 162.526C84.5938 163.152 84.9661 163.631 85.4824 163.961C86.0072 164.291 86.7477 164.456 87.7041 164.456C88.6182 164.456 89.3333 164.303 89.8496 163.999C90.3659 163.686 90.7425 163.241 90.9795 162.666C91.2249 162.09 91.3561 161.108 91.373 159.72V153.36H95.1309V168.823ZM111.305 163.923H115.062V164.507C115.062 167.325 114.457 169.327 113.247 170.511C112.037 171.696 110.166 172.289 107.636 172.289C105.097 172.289 103.222 171.692 102.012 170.499C100.81 169.297 100.209 167.236 100.209 164.316V153.36H103.967V158.489H115.57V161.637H103.967V164.037C103.967 165.56 104.077 166.639 104.297 167.274C104.525 167.9 104.898 168.379 105.414 168.709C105.939 169.039 106.679 169.204 107.636 169.204C108.584 169.204 109.316 169.043 109.832 168.721C110.357 168.391 110.733 167.926 110.962 167.325C111.19 166.716 111.305 165.683 111.305 164.227V163.923ZM122.629 161.295V164.354H134.232V167.503H122.629V171.971H118.871V161.015C118.871 158.095 119.472 156.039 120.674 154.845C121.884 153.644 123.759 153.043 126.298 153.043C128.837 153.043 130.707 153.639 131.909 154.833C133.119 156.026 133.725 158.087 133.725 161.015V162.107H129.967V161.295C129.967 159.771 129.853 158.701 129.624 158.083C129.404 157.456 129.032 156.974 128.507 156.635C127.991 156.297 127.254 156.128 126.298 156.128C125.341 156.128 124.601 156.297 124.076 156.635C123.56 156.974 123.188 157.456 122.959 158.083C122.739 158.701 122.629 159.771 122.629 161.295ZM5.51465 186.331C6.61491 185.273 7.87598 184.469 9.29785 183.919C10.7197 183.36 12.2305 183.081 13.8301 183.081C14.7272 183.081 15.6286 183.14 16.5342 183.259C17.4482 183.369 18.2057 183.521 18.8066 183.716V187.296C18.0449 186.957 17.1774 186.691 16.2041 186.496C15.2393 186.293 14.304 186.191 13.3984 186.191C12.8822 186.191 12.3278 186.233 11.7354 186.318C11.1429 186.403 10.6859 186.517 10.3643 186.661C12.9372 186.872 14.9134 187.689 16.293 189.111C17.6725 190.533 18.3623 192.323 18.3623 194.481C18.3623 196.707 17.6302 198.569 16.166 200.067C14.7018 201.557 12.696 202.302 10.1484 202.302C7.60091 202.302 5.59082 201.552 4.11816 200.054C2.65397 198.548 1.92188 196.69 1.92188 194.481C1.92188 193.533 2.04036 192.64 2.27734 191.802C2.52279 190.956 2.84863 190.161 3.25488 189.416H1.45215V183.36H5.20996V186.331H5.51465ZM7.12695 189.416C6.66992 190.135 6.32715 190.927 6.09863 191.79C5.87012 192.645 5.75586 193.542 5.75586 194.481C5.75586 196.013 6.13672 197.185 6.89844 197.998C7.66016 198.81 8.74349 199.217 10.1484 199.217C11.5026 199.217 12.569 198.798 13.3477 197.96C14.1263 197.122 14.5156 195.962 14.5156 194.481C14.5156 192.814 14.0374 191.553 13.0811 190.698C12.1247 189.843 10.7197 189.416 8.86621 189.416H7.12695ZM25.8652 191.295V201.971H22.1074V191.015C22.1074 188.095 22.7083 186.039 23.9102 184.845C25.1204 183.644 26.9951 183.043 29.5342 183.043C32.0732 183.043 33.9437 183.639 35.1455 184.833C36.3558 186.026 36.9609 188.087 36.9609 191.015V192.107H33.2031V191.295C33.2031 189.771 33.0889 188.701 32.8604 188.083C32.6403 187.456 32.2679 186.974 31.7432 186.635C31.2269 186.297 30.4906 186.128 29.5342 186.128C28.5778 186.128 27.8372 186.297 27.3125 186.635C26.7962 186.974 26.4238 187.456 26.1953 188.083C25.9753 188.701 25.8652 189.771 25.8652 191.295ZM55.7881 202.53C55.1279 202.234 54.5651 201.942 54.0996 201.654C53.6426 201.366 53.2363 201.083 52.8809 200.803C52.2969 201.277 51.5732 201.646 50.71 201.908C49.8467 202.162 48.7972 202.289 47.5615 202.289C44.9801 202.289 43.0758 201.675 41.8486 200.448C40.6214 199.212 40.0078 197.168 40.0078 194.316V183.36H43.7656V193.783C43.7656 195.425 43.8841 196.576 44.1211 197.236C44.3581 197.888 44.7516 198.379 45.3018 198.709C45.8519 199.039 46.6051 199.204 47.5615 199.204C48.1286 199.204 48.6237 199.17 49.0469 199.102C49.4701 199.026 49.834 198.92 50.1387 198.785C49.8509 198.633 49.5293 198.484 49.1738 198.341C48.8184 198.188 48.4121 198.04 47.9551 197.896L49.0596 194.71C49.5843 194.921 50.0498 195.141 50.4561 195.37C50.8623 195.598 51.2347 195.835 51.5732 196.081C51.5563 195.725 51.514 195.357 51.4463 194.976C51.387 194.587 51.3574 194.189 51.3574 193.783V183.36H55.1152V194.316C55.1152 195.069 55.0729 195.785 54.9883 196.462C54.9036 197.139 54.7555 197.769 54.5439 198.353C54.874 198.556 55.238 198.755 55.6357 198.95C56.0335 199.136 56.4863 199.314 56.9941 199.483L55.7881 202.53ZM76.6084 197.503H73.4473V201.971H69.6895V197.503H66.0332C63.5618 197.503 61.6956 196.893 60.4346 195.675C59.1735 194.447 58.543 192.623 58.543 190.203C58.543 187.808 59.1735 186.018 60.4346 184.833C61.7041 183.639 63.5661 183.043 66.0205 183.043C68.4834 183.043 70.3369 183.639 71.5811 184.833C72.8252 186.026 73.4473 187.816 73.4473 190.203V194.354H76.6084V197.503ZM69.6895 194.354V190.203C69.6895 188.756 69.3975 187.715 68.8135 187.08C68.2295 186.445 67.2985 186.128 66.0205 186.128C64.7171 186.128 63.7819 186.454 63.2148 187.105C62.6562 187.748 62.377 188.781 62.377 190.203C62.377 191.625 62.6562 192.674 63.2148 193.351C63.7734 194.02 64.7044 194.354 66.0078 194.354H69.6895ZM82.2832 191.295V201.971H78.5254V191.015C78.5254 188.095 79.1263 186.039 80.3281 184.845C81.5384 183.644 83.4131 183.043 85.9521 183.043C88.4912 183.043 90.3617 183.639 91.5635 184.833C92.7738 186.026 93.3789 188.087 93.3789 191.015V192.107H89.6211V191.295C89.6211 189.771 89.5068 188.701 89.2783 188.083C89.0583 187.456 88.6859 186.974 88.1611 186.635C87.6449 186.297 86.9085 186.128 85.9521 186.128C84.9958 186.128 84.2552 186.297 83.7305 186.635C83.2142 186.974 82.8418 187.456 82.6133 188.083C82.3932 188.701 82.2832 189.771 82.2832 191.295ZM112.206 202.53C111.546 202.234 110.983 201.942 110.518 201.654C110.061 201.366 109.654 201.083 109.299 200.803C108.715 201.277 107.991 201.646 107.128 201.908C106.265 202.162 105.215 202.289 103.979 202.289C101.398 202.289 99.4938 201.675 98.2666 200.448C97.0394 199.212 96.4258 197.168 96.4258 194.316V183.36H100.184V193.783C100.184 195.425 100.302 196.576 100.539 197.236C100.776 197.888 101.17 198.379 101.72 198.709C102.27 199.039 103.023 199.204 103.979 199.204C104.547 199.204 105.042 199.17 105.465 199.102C105.888 199.026 106.252 198.92 106.557 198.785C106.269 198.633 105.947 198.484 105.592 198.341C105.236 198.188 104.83 198.04 104.373 197.896L105.478 194.71C106.002 194.921 106.468 195.141 106.874 195.37C107.28 195.598 107.653 195.835 107.991 196.081C107.974 195.725 107.932 195.357 107.864 194.976C107.805 194.587 107.775 194.189 107.775 193.783V183.36H111.533V194.316C111.533 195.069 111.491 195.785 111.406 196.462C111.322 197.139 111.174 197.769 110.962 198.353C111.292 198.556 111.656 198.755 112.054 198.95C112.451 199.136 112.904 199.314 113.412 199.483L112.206 202.53ZM129.688 198.823H132.861V201.971H125.93V196.716C125.49 196.978 124.956 197.181 124.33 197.325C123.704 197.469 123.014 197.541 122.261 197.541C119.722 197.541 117.847 196.944 116.637 195.751C115.435 194.549 114.834 192.488 114.834 189.568V188.476H118.592V189.289C118.592 190.812 118.702 191.891 118.922 192.526C119.15 193.152 119.523 193.631 120.039 193.961C120.564 194.291 121.304 194.456 122.261 194.456C123.175 194.456 123.89 194.303 124.406 193.999C124.923 193.686 125.299 193.241 125.536 192.666C125.782 192.09 125.913 191.108 125.93 189.72V183.36H129.688V198.823ZM138.523 191.295V201.971H134.766V191.015C134.766 188.095 135.367 186.039 136.568 184.845C137.779 183.644 139.653 183.043 142.192 183.043C144.731 183.043 146.602 183.639 147.804 184.833C149.014 186.026 149.619 188.087 149.619 191.015V201.971H145.861V191.295C145.861 189.763 145.747 188.692 145.519 188.083C145.299 187.465 144.93 186.987 144.414 186.648C143.898 186.301 143.157 186.128 142.192 186.128C141.228 186.128 140.487 186.301 139.971 186.648C139.454 186.987 139.082 187.465 138.854 188.083C138.633 188.692 138.523 189.763 138.523 191.295ZM157.186 191.295V201.971H153.428V191.015C153.428 188.095 154.029 186.039 155.23 184.845C156.441 183.644 158.315 183.043 160.854 183.043C163.394 183.043 165.264 183.639 166.466 184.833C167.676 186.026 168.281 188.087 168.281 191.015V192.107H164.523V191.295C164.523 189.771 164.409 188.701 164.181 188.083C163.961 187.456 163.588 186.974 163.063 186.635C162.547 186.297 161.811 186.128 160.854 186.128C159.898 186.128 159.158 186.297 158.633 186.635C158.117 186.974 157.744 187.456 157.516 188.083C157.296 188.701 157.186 189.771 157.186 191.295ZM175.086 191.295V201.971H171.328V191.015C171.328 188.095 171.929 186.039 173.131 184.845C174.341 183.644 176.216 183.043 178.755 183.043C181.294 183.043 183.164 183.639 184.366 184.833C185.576 186.026 186.182 188.087 186.182 191.015V201.971H182.424V191.295C182.424 189.763 182.31 188.692 182.081 188.083C181.861 187.465 181.493 186.987 180.977 186.648C180.46 186.301 179.72 186.128 178.755 186.128C177.79 186.128 177.049 186.301 176.533 186.648C176.017 186.987 175.645 187.465 175.416 188.083C175.196 188.692 175.086 189.763 175.086 191.295ZM193.875 191.637V201.971H190.117V183.36H193.875V188.489H201.911V191.637H193.875ZM214.924 183.36H221.855V186.509H218.682V194.316C218.682 197.236 218.076 199.297 216.866 200.499C215.664 201.692 213.794 202.289 211.255 202.289C208.716 202.289 206.841 201.692 205.631 200.499C204.429 199.297 203.828 197.236 203.828 194.316V183.36H207.586V194.037C207.586 195.467 207.696 196.525 207.916 197.211C208.136 197.896 208.508 198.4 209.033 198.721C209.558 199.043 210.299 199.204 211.255 199.204C212.211 199.204 212.952 199.043 213.477 198.721C214.001 198.4 214.374 197.896 214.594 197.211C214.814 196.525 214.924 195.467 214.924 194.037V183.36Z" fill="black"/>
</svg>
