<svg width="222" height="222" viewBox="0 0 222 222" fill="none" xmlns="http://www.w3.org/2000/svg">
<circle cx="111" cy="75" r="60.4714" fill="#36B85A"/>
<path d="M128.552 77.8441L127.257 77.8297V72.9986C130.411 71.8801 132.676 68.868 132.676 65.3338C132.676 63.8374 131.463 62.6253 129.967 62.6253C128.47 62.6253 127.257 63.8398 127.257 65.3362C127.257 65.9543 127.047 66.5229 126.697 66.9794C125.849 64.5565 124.093 62.558 121.838 61.3916C121.766 60.7166 122.25 57.789 120.3 54.5393L121.767 53.072C122.825 52.0141 122.825 50.2984 121.767 49.2402C120.709 48.1822 118.994 48.1822 117.935 49.2402L116.444 50.7317C114.792 49.767 112.913 49.2587 111 49.2587C109.087 49.2587 107.208 49.767 105.556 50.7317L104.065 49.2402C103.007 48.1822 101.291 48.1822 100.233 49.2402C99.1748 50.2982 99.1748 52.0139 100.233 53.072L101.7 54.5393C99.7531 57.785 100.238 60.6886 100.162 61.3916C97.8159 62.6053 96.0081 64.7191 95.2028 67.2751C94.6972 66.7823 94.3817 66.095 94.3817 65.3338C94.3817 63.8374 93.1685 62.6253 91.6721 62.6253C90.1757 62.6253 88.9626 63.8398 88.9626 65.3362C88.9626 69.002 91.4022 72.1075 94.7429 73.1176V77.8259L93.0869 77.8443C89.3186 77.886 86.2529 80.9859 86.2529 84.7544C86.2529 86.2508 87.466 87.4639 88.9624 87.4639C90.4588 87.4639 91.6719 86.2508 91.6719 84.7544C91.6719 83.941 92.3336 83.2719 93.1468 83.2628L94.7428 83.2451C94.7975 83.9446 94.4297 86.9184 95.9494 90.6272C91.3369 93.0669 91.7679 97.9516 91.7579 97.9867C91.7633 98.3425 91.8387 98.6938 91.9799 99.0204C92.121 99.3471 92.3251 99.6427 92.5806 99.8905C92.836 100.138 93.1378 100.333 93.4686 100.464C93.7994 100.595 94.1528 100.66 94.5086 100.654C96.0049 100.632 97.1994 99.4002 97.1765 97.9038C97.1821 97.885 96.9588 95.8942 98.8457 95.2672C105.294 102.527 116.559 102.565 123.059 95.3743C123.321 95.497 123.56 95.6652 123.763 95.8711C124.608 96.7296 124.448 97.8086 124.462 97.9036C124.439 99.4155 125.658 100.654 127.172 100.654C128.649 100.654 129.858 99.4686 129.881 97.9863C129.871 97.9491 130.235 93.2818 125.983 90.7912C127.58 87.0123 127.199 83.9695 127.257 83.2486L128.492 83.2623C129.305 83.2713 129.967 83.9404 129.967 84.7538C129.967 86.2502 131.18 87.4634 132.676 87.4634C134.173 87.4634 135.386 86.2502 135.386 84.7538C135.386 80.9859 132.32 77.886 128.552 77.8441ZM116.419 60.0975V60.2782H105.581V60.0975C105.581 57.1094 108.012 54.6784 111 54.6784C113.988 54.6784 116.419 57.1094 116.419 60.0975ZM100.162 84.4834V70.2724C100.162 67.7496 102.214 65.6972 104.737 65.6972H108.11V94.9272C103.533 93.6588 100.162 89.4587 100.162 84.4834ZM113.529 95.0206V65.6972H117.263C119.786 65.6972 121.838 67.7496 121.838 70.2724V84.4834C121.838 89.5887 118.289 93.8781 113.529 95.0206Z" fill="white"/>
<path opacity="0.75" d="M154.533 72.2905H153.451C152.105 50.9882 135.012 33.8948 113.71 32.5489V31.4667C113.71 29.9703 112.496 28.7571 111 28.7571C109.504 28.7571 108.29 29.9703 108.29 31.4667V32.5489C86.9882 33.8948 69.8948 50.9882 68.5489 72.2905H67.4667C65.9703 72.2905 64.7571 73.5036 64.7571 75C64.7571 76.4964 65.9703 77.7095 67.4667 77.7095H68.5489C69.8948 99.0118 86.9882 116.105 108.29 117.451V118.533C108.29 120.03 109.504 121.243 111 121.243C112.496 121.243 113.71 120.03 113.71 118.533V117.451C135.012 116.105 152.105 99.0118 153.451 77.7095H154.533C156.03 77.7095 157.243 76.4964 157.243 75C157.243 73.5036 156.03 72.2905 154.533 72.2905ZM113.71 112.021V110.224C113.71 108.728 112.496 107.515 111 107.515C109.504 107.515 108.29 108.728 108.29 110.224V112.021C89.9772 110.694 75.3061 96.0228 73.9786 77.7095H75.7759C77.2723 77.7095 78.4855 76.4964 78.4855 75C78.4855 73.5036 77.2723 72.2905 75.7759 72.2905H73.9786C75.3061 53.9772 89.9772 39.3061 108.29 37.9786V39.7759C108.29 41.2723 109.504 42.4855 111 42.4855C112.496 42.4855 113.71 41.2723 113.71 39.7759V37.9786C132.023 39.3061 146.694 53.9772 148.021 72.2905H146.224C144.728 72.2905 143.515 73.5036 143.515 75C143.515 76.4964 144.728 77.7095 146.224 77.7095H148.021C146.694 96.0228 132.023 110.694 113.71 112.021Z" fill="white"/>
<path d="M66.96 160.795V171.471H63.2021V160.515C63.2021 157.595 63.8031 155.539 65.0049 154.345C66.2152 153.144 68.0898 152.543 70.6289 152.543C73.168 152.543 75.0384 153.139 76.2402 154.333C77.4505 155.526 78.0557 157.587 78.0557 160.515V171.471H74.2979V160.795C74.2979 159.263 74.1836 158.192 73.9551 157.583C73.735 156.965 73.3669 156.487 72.8506 156.148C72.3343 155.801 71.5938 155.628 70.6289 155.628C69.6641 155.628 68.9235 155.801 68.4072 156.148C67.891 156.487 67.5186 156.965 67.29 157.583C67.07 158.192 66.96 159.263 66.96 160.795ZM85.6221 160.795V171.471H81.8643V160.515C81.8643 157.595 82.4652 155.539 83.667 154.345C84.8773 153.144 86.752 152.543 89.291 152.543C91.8301 152.543 93.7005 153.139 94.9023 154.333C96.1126 155.526 96.7178 157.587 96.7178 160.515V161.607H92.96V160.795C92.96 159.271 92.8457 158.201 92.6172 157.583C92.3971 156.956 92.0247 156.474 91.5 156.135C90.9837 155.797 90.2474 155.628 89.291 155.628C88.3346 155.628 87.5941 155.797 87.0693 156.135C86.5531 156.474 86.1807 156.956 85.9521 157.583C85.7321 158.201 85.6221 159.271 85.6221 160.795ZM115.545 172.03C114.885 171.734 114.322 171.442 113.856 171.154C113.399 170.866 112.993 170.583 112.638 170.303C112.054 170.777 111.33 171.146 110.467 171.408C109.604 171.662 108.554 171.789 107.318 171.789C104.737 171.789 102.833 171.175 101.605 169.948C100.378 168.712 99.7646 166.668 99.7646 163.816V152.86H103.522V163.283C103.522 164.925 103.641 166.076 103.878 166.736C104.115 167.388 104.508 167.879 105.059 168.209C105.609 168.539 106.362 168.704 107.318 168.704C107.885 168.704 108.381 168.67 108.804 168.602C109.227 168.526 109.591 168.42 109.896 168.285C109.608 168.133 109.286 167.984 108.931 167.841C108.575 167.688 108.169 167.54 107.712 167.396L108.816 164.21C109.341 164.421 109.807 164.641 110.213 164.87C110.619 165.098 110.992 165.335 111.33 165.581C111.313 165.225 111.271 164.857 111.203 164.476C111.144 164.087 111.114 163.689 111.114 163.283V152.86H114.872V163.816C114.872 164.569 114.83 165.285 114.745 165.962C114.66 166.639 114.512 167.269 114.301 167.853C114.631 168.056 114.995 168.255 115.393 168.45C115.79 168.636 116.243 168.814 116.751 168.983L115.545 172.03ZM129.903 159.22V157.989H133.661V171.471H129.903V166.216C129.446 166.503 128.909 166.715 128.291 166.85C127.673 166.977 126.988 167.041 126.234 167.041C123.695 167.041 121.821 166.444 120.61 165.251C119.409 164.049 118.808 161.988 118.808 159.068V152.86H122.565V158.789C122.565 160.312 122.675 161.391 122.896 162.026C123.124 162.652 123.496 163.131 124.013 163.461C124.537 163.791 125.278 163.956 126.234 163.956C127.157 163.956 127.881 163.799 128.405 163.486C128.93 163.173 129.311 162.716 129.548 162.115C129.785 161.514 129.903 160.549 129.903 159.22ZM141.228 165.492V171.471H137.47V152.86H141.228V158.497C141.761 158.218 142.315 158.01 142.891 157.875C143.475 157.739 144.143 157.672 144.896 157.672C147.436 157.672 149.306 158.268 150.508 159.462C151.718 160.655 152.323 162.716 152.323 165.644V166.736H148.565V165.924C148.565 164.4 148.451 163.33 148.223 162.712C148.003 162.085 147.63 161.603 147.105 161.264C146.589 160.926 145.853 160.757 144.896 160.757C143.982 160.757 143.267 160.913 142.751 161.226C142.235 161.531 141.854 161.971 141.608 162.547C141.371 163.122 141.244 164.104 141.228 165.492ZM44.9082 202.03C44.248 201.734 43.6852 201.442 43.2197 201.154C42.7627 200.866 42.3564 200.583 42.001 200.303C41.417 200.777 40.6934 201.146 39.8301 201.408C38.9668 201.662 37.9173 201.789 36.6816 201.789C34.1003 201.789 32.196 201.175 30.9688 199.948C29.7415 198.712 29.1279 196.668 29.1279 193.816V182.86H32.8857V193.283C32.8857 194.925 33.0042 196.076 33.2412 196.736C33.4782 197.388 33.8717 197.879 34.4219 198.209C34.972 198.539 35.7253 198.704 36.6816 198.704C37.2487 198.704 37.7438 198.67 38.167 198.602C38.5902 198.526 38.9541 198.42 39.2588 198.285C38.971 198.133 38.6494 197.984 38.2939 197.841C37.9385 197.688 37.5322 197.54 37.0752 197.396L38.1797 194.21C38.7044 194.421 39.1699 194.641 39.5762 194.87C39.9824 195.098 40.3548 195.335 40.6934 195.581C40.6764 195.225 40.6341 194.857 40.5664 194.476C40.5072 194.087 40.4775 193.689 40.4775 193.283V182.86H44.2354V193.816C44.2354 194.569 44.193 195.285 44.1084 195.962C44.0238 196.639 43.8757 197.269 43.6641 197.853C43.9941 198.056 44.3581 198.255 44.7559 198.45C45.1536 198.636 45.6064 198.814 46.1143 198.983L44.9082 202.03ZM58.873 195.619H55.1152V185.97C53.7103 186.106 52.7201 186.457 52.1445 187.024C51.569 187.591 51.2812 188.484 51.2812 189.703C51.2812 189.847 51.2855 189.953 51.2939 190.02L47.498 190.884C47.4642 190.68 47.4388 190.473 47.4219 190.261C47.4134 190.041 47.4092 189.821 47.4092 189.601C47.4092 187.316 48.2217 185.573 49.8467 184.371C51.4801 183.169 53.8753 182.568 57.0322 182.568C60.1468 182.568 62.5124 183.165 64.1289 184.358C65.7539 185.552 66.5664 187.299 66.5664 189.601V201.471H62.6943V189.601C62.6943 188.518 62.4489 187.689 61.958 187.113C61.4671 186.538 60.4388 186.157 58.873 185.97V195.619ZM86.168 202.03C85.5078 201.734 84.945 201.442 84.4795 201.154C84.0225 200.866 83.6162 200.583 83.2607 200.303C82.6768 200.777 81.9531 201.146 81.0898 201.408C80.2266 201.662 79.1771 201.789 77.9414 201.789C75.36 201.789 73.4557 201.175 72.2285 199.948C71.0013 198.712 70.3877 196.668 70.3877 193.816V182.86H74.1455V193.283C74.1455 194.925 74.264 196.076 74.501 196.736C74.738 197.388 75.1315 197.879 75.6816 198.209C76.2318 198.539 76.985 198.704 77.9414 198.704C78.5085 198.704 79.0036 198.67 79.4268 198.602C79.8499 198.526 80.2139 198.42 80.5186 198.285C80.2308 198.133 79.9092 197.984 79.5537 197.841C79.1982 197.688 78.792 197.54 78.335 197.396L79.4395 194.21C79.9642 194.421 80.4297 194.641 80.8359 194.87C81.2422 195.098 81.6146 195.335 81.9531 195.581C81.9362 195.225 81.8939 194.857 81.8262 194.476C81.7669 194.087 81.7373 193.689 81.7373 193.283V182.86H85.4951V193.816C85.4951 194.569 85.4528 195.285 85.3682 195.962C85.2835 196.639 85.1354 197.269 84.9238 197.853C85.2539 198.056 85.6178 198.255 86.0156 198.45C86.4134 198.636 86.8662 198.814 87.374 198.983L86.168 202.03ZM102.723 201.471H98.9648V196.19C98.9648 195.149 98.6559 194.404 98.0381 193.956C97.4202 193.507 96.4681 193.283 95.1816 193.283H88.415V190.135H95.1816C96.1803 190.135 96.9463 189.948 97.4795 189.576C98.0212 189.195 98.292 188.679 98.292 188.027C98.292 187.282 98.0677 186.762 97.6191 186.466C97.1706 186.161 96.3581 186.009 95.1816 186.009H89.5957V182.86H95.1816C97.3568 182.86 99.0537 183.283 100.272 184.13C101.5 184.976 102.113 186.119 102.113 187.557C102.113 188.497 101.889 189.301 101.44 189.969C101 190.63 100.357 191.142 99.5107 191.506C100.552 191.76 101.347 192.28 101.897 193.067C102.448 193.846 102.723 194.853 102.723 196.089V201.471ZM110.175 190.795V201.471H106.417V190.515C106.417 187.595 107.018 185.539 108.22 184.345C109.43 183.144 111.305 182.543 113.844 182.543C116.383 182.543 118.253 183.139 119.455 184.333C120.665 185.526 121.271 187.587 121.271 190.515V201.471H117.513V190.795C117.513 189.263 117.398 188.192 117.17 187.583C116.95 186.965 116.582 186.487 116.065 186.148C115.549 185.801 114.809 185.628 113.844 185.628C112.879 185.628 112.138 185.801 111.622 186.148C111.106 186.487 110.733 186.965 110.505 187.583C110.285 188.192 110.175 189.263 110.175 190.795ZM139.171 198.323H142.345V201.471H135.413V196.216C134.973 196.478 134.44 196.681 133.813 196.825C133.187 196.969 132.497 197.041 131.744 197.041C129.205 197.041 127.33 196.444 126.12 195.251C124.918 194.049 124.317 191.988 124.317 189.068V187.976H128.075V188.789C128.075 190.312 128.185 191.391 128.405 192.026C128.634 192.652 129.006 193.131 129.522 193.461C130.047 193.791 130.788 193.956 131.744 193.956C132.658 193.956 133.373 193.803 133.89 193.499C134.406 193.186 134.783 192.741 135.02 192.166C135.265 191.59 135.396 190.608 135.413 189.22V182.86H139.171V198.323ZM148.007 190.795V201.471H144.249V190.515C144.249 187.595 144.85 185.539 146.052 184.345C147.262 183.144 149.137 182.543 151.676 182.543C154.215 182.543 156.085 183.139 157.287 184.333C158.497 185.526 159.103 187.587 159.103 190.515V201.471H155.345V190.795C155.345 189.263 155.23 188.192 155.002 187.583C154.782 186.965 154.414 186.487 153.897 186.148C153.381 185.801 152.641 185.628 151.676 185.628C150.711 185.628 149.97 185.801 149.454 186.148C148.938 186.487 148.565 186.965 148.337 187.583C148.117 188.192 148.007 189.263 148.007 190.795ZM166.796 191.137V201.471H163.038V182.86H166.796V187.989H174.832V191.137H166.796ZM187.845 182.86H194.776V186.009H191.603V193.816C191.603 196.736 190.997 198.797 189.787 199.999C188.585 201.192 186.715 201.789 184.176 201.789C181.637 201.789 179.762 201.192 178.552 199.999C177.35 198.797 176.749 196.736 176.749 193.816V182.86H180.507V193.537C180.507 194.967 180.617 196.025 180.837 196.711C181.057 197.396 181.429 197.9 181.954 198.221C182.479 198.543 183.219 198.704 184.176 198.704C185.132 198.704 185.873 198.543 186.397 198.221C186.922 197.9 187.295 197.396 187.515 196.711C187.735 196.025 187.845 194.967 187.845 193.537V182.86Z" fill="black"/>
</svg>
