<svg width="222" height="222" viewBox="0 0 222 222" fill="none" xmlns="http://www.w3.org/2000/svg">
<circle cx="111" cy="74.5" r="60.4714" fill="#FFB700"/>
<path d="M76.14 35.3714V95.0594H123.919V35.3714H76.14ZM97.7179 88.7645H83.9739C83.1943 88.7645 82.5649 88.1459 82.5649 87.3837C82.5649 86.6214 83.1943 86.0028 83.9739 86.0028H97.7179C98.4956 86.0028 99.1268 86.6214 99.1268 87.3837C99.1268 88.1459 98.4956 88.7645 97.7179 88.7645ZM116.087 88.7645H102.343C101.563 88.7645 100.934 88.1459 100.934 87.3837C100.934 86.6214 101.563 86.0028 102.343 86.0028H116.087C116.865 86.0028 117.496 86.6214 117.496 87.3837C117.496 88.1459 116.865 88.7645 116.087 88.7645ZM116.087 81.7627H83.9739C83.7888 81.7629 83.6055 81.7274 83.4344 81.658C83.2634 81.5887 83.1079 81.487 82.9771 81.3588C82.8462 81.2305 82.7424 81.0782 82.6717 80.9105C82.601 80.7429 82.5647 80.5632 82.5649 80.3818C82.5649 79.6196 83.1943 79.001 83.9739 79.001H116.087C116.865 79.001 117.496 79.6196 117.496 80.3818C117.496 81.1459 116.865 81.7627 116.087 81.7627ZM82.5649 73.3818C82.5649 72.6196 83.1943 72.0009 83.9739 72.0009H97.7179C98.4956 72.0009 99.1268 72.6196 99.1268 73.3818C99.1268 74.144 98.4956 74.7626 97.7179 74.7626H83.9739C83.1943 74.7626 82.5649 74.144 82.5649 73.3818ZM116.087 74.7626H102.343C101.563 74.7626 100.934 74.144 100.934 73.3818C100.934 72.6196 101.563 72.0009 102.343 72.0009H116.087C116.865 72.0009 117.496 72.6196 117.496 73.3818C117.496 74.144 116.865 74.7626 116.087 74.7626ZM117.496 65.2163C117.496 65.9786 116.865 66.5972 116.087 66.5972H83.9739C83.1943 66.5972 82.5649 65.9786 82.5649 65.2163V43.049C82.5649 42.2849 83.1943 41.6681 83.9739 41.6681H116.087C116.865 41.6681 117.496 42.2849 117.496 43.049V65.2163Z" fill="white"/>
<path opacity="0.75" d="M126.737 55.7731V62.068H136.902C137.682 62.068 138.311 62.6866 138.311 63.4488V69.5945C138.311 70.3568 137.682 70.9754 136.902 70.9754C136.124 70.9754 135.493 70.3568 135.493 69.5945V64.8297H126.737V96.4402C126.737 97.2043 126.108 97.8211 125.328 97.8211H106.198V106.403H111.364C112.142 106.403 112.773 107.021 112.773 107.784C112.773 108.548 112.142 109.164 111.364 109.164H104.789C104.011 109.164 103.38 108.548 103.38 107.784V97.8211H96.957V115.461H144.736V55.7731H126.737ZM138.311 107.784C138.311 108.548 137.682 109.164 136.902 109.164H115.989C115.212 109.164 114.58 108.548 114.58 107.784C114.58 107.021 115.212 106.403 115.989 106.403H135.493V74.1274C135.493 73.3634 136.124 72.7466 136.902 72.7466C137.682 72.7466 138.311 73.3634 138.311 74.1274V107.784ZM111.64 63.8354H85.3828V45.7094L111.64 63.8354ZM114.678 44.4298V62.554L88.4206 44.4298H114.678Z" fill="white"/>
<path d="M67.3154 153.36H71.0732V163.44C71.0732 165.04 71.1198 166.077 71.2129 166.551C71.3737 167.312 71.7546 167.926 72.3555 168.391C72.9648 168.848 73.7943 169.077 74.8438 169.077C75.9102 169.077 76.7142 168.861 77.2559 168.429C77.7975 167.989 78.1234 167.452 78.2334 166.817C78.3434 166.182 78.3984 165.129 78.3984 163.656V153.36H82.1562V163.135C82.1562 165.37 82.0547 166.948 81.8516 167.871C81.6484 168.793 81.2718 169.572 80.7217 170.207C80.18 170.842 79.4521 171.349 78.5381 171.73C77.624 172.103 76.4307 172.289 74.958 172.289C73.1807 172.289 71.8307 172.086 70.9082 171.679C69.9941 171.265 69.2705 170.732 68.7373 170.08C68.2041 169.42 67.8529 168.73 67.6836 168.01C67.4382 166.944 67.3154 165.37 67.3154 163.288V153.36ZM86.0156 171.971V153.36H89.7734V171.971H86.0156ZM98.6729 172.289L103.281 153.043H105.96L101.301 172.289H98.6729ZM115.05 153.36H118.808V163.44C118.808 165.04 118.854 166.077 118.947 166.551C119.108 167.312 119.489 167.926 120.09 168.391C120.699 168.848 121.529 169.077 122.578 169.077C123.645 169.077 124.449 168.861 124.99 168.429C125.532 167.989 125.858 167.452 125.968 166.817C126.078 166.182 126.133 165.129 126.133 163.656V153.36H129.891V163.135C129.891 165.37 129.789 166.948 129.586 167.871C129.383 168.793 129.006 169.572 128.456 170.207C127.914 170.842 127.187 171.349 126.272 171.73C125.358 172.103 124.165 172.289 122.692 172.289C120.915 172.289 119.565 172.086 118.643 171.679C117.729 171.265 117.005 170.732 116.472 170.08C115.938 169.42 115.587 168.73 115.418 168.01C115.173 166.944 115.05 165.37 115.05 163.288V153.36ZM131.973 171.971L138.333 162.26L132.569 153.36H136.962L140.694 159.34L144.351 153.36H148.705L142.916 162.399L149.276 171.971H144.744L140.618 165.535L136.479 171.971H131.973ZM66.2744 191.295C66.2744 189.864 66.1644 188.806 65.9443 188.121C65.7243 187.435 65.3519 186.932 64.8271 186.61C64.3024 186.288 63.5618 186.128 62.6055 186.128C61.6491 186.128 60.9085 186.288 60.3838 186.61C59.859 186.932 59.4867 187.435 59.2666 188.121C59.0465 188.806 58.9365 189.864 58.9365 191.295V191.853H55.1787V191.015C55.1787 188.095 55.7796 186.039 56.9814 184.845C58.1917 183.644 60.0664 183.043 62.6055 183.043C65.1445 183.043 67.015 183.644 68.2168 184.845C69.4271 186.039 70.0322 188.095 70.0322 191.015V194.354H73.2061V197.503H70.0322V201.971H66.2744V191.295ZM78.9951 195.992V201.971H75.2373V183.36H78.9951V188.997C79.5283 188.718 80.0827 188.51 80.6582 188.375C81.2422 188.239 81.9108 188.172 82.6641 188.172C85.2031 188.172 87.0736 188.768 88.2754 189.962C89.4857 191.155 90.0908 193.216 90.0908 196.144V197.236H86.333V196.424C86.333 194.9 86.2188 193.83 85.9902 193.212C85.7702 192.585 85.3978 192.103 84.873 191.764C84.3568 191.426 83.6204 191.257 82.6641 191.257C81.75 191.257 81.0348 191.413 80.5186 191.726C80.0023 192.031 79.6214 192.471 79.376 193.047C79.139 193.622 79.012 194.604 78.9951 195.992ZM97.1494 198.798C98.4189 198.798 99.6123 198.4 100.729 197.604C101.847 196.809 102.74 195.734 103.408 194.38C104.077 193.017 104.411 191.625 104.411 190.203C104.411 188.84 104.085 187.82 103.434 187.143C102.782 186.466 101.842 186.128 100.615 186.128C99.3711 186.128 98.4316 186.462 97.7969 187.131C97.1621 187.791 96.8447 188.857 96.8447 190.33C96.8447 190.482 96.849 190.601 96.8574 190.685L93.0869 191.561C93.0361 191.13 93.0107 190.677 93.0107 190.203C93.0107 187.952 93.6836 186.195 95.0293 184.934C96.375 183.673 98.237 183.043 100.615 183.043C102.993 183.043 104.868 183.677 106.239 184.947C107.61 186.208 108.296 187.96 108.296 190.203C108.296 192.014 107.873 193.715 107.026 195.306C106.18 196.889 105.198 198.053 104.081 198.798H108.436V201.971H93.3789V196.982H97.1494V198.798ZM127.885 202.53C127.225 202.234 126.662 201.942 126.196 201.654C125.739 201.366 125.333 201.083 124.978 200.803C124.394 201.277 123.67 201.646 122.807 201.908C121.943 202.162 120.894 202.289 119.658 202.289C117.077 202.289 115.173 201.675 113.945 200.448C112.718 199.212 112.104 197.168 112.104 194.316V183.36H115.862V193.783C115.862 195.425 115.981 196.576 116.218 197.236C116.455 197.888 116.848 198.379 117.398 198.709C117.949 199.039 118.702 199.204 119.658 199.204C120.225 199.204 120.72 199.17 121.144 199.102C121.567 199.026 121.931 198.92 122.235 198.785C121.948 198.633 121.626 198.484 121.271 198.341C120.915 198.188 120.509 198.04 120.052 197.896L121.156 194.71C121.681 194.921 122.146 195.141 122.553 195.37C122.959 195.598 123.331 195.835 123.67 196.081C123.653 195.725 123.611 195.357 123.543 194.976C123.484 194.587 123.454 194.189 123.454 193.783V183.36H127.212V194.316C127.212 195.069 127.17 195.785 127.085 196.462C127 197.139 126.852 197.769 126.641 198.353C126.971 198.556 127.335 198.755 127.732 198.95C128.13 199.136 128.583 199.314 129.091 199.483L127.885 202.53ZM139.234 202.302C136.628 202.302 134.63 201.756 133.242 200.664C131.854 199.572 131.114 197.998 131.021 195.941L134.74 195.548C134.876 196.809 135.324 197.723 136.086 198.29C136.848 198.848 137.897 199.128 139.234 199.128C140.572 199.128 141.575 198.886 142.243 198.404C142.92 197.922 143.259 197.219 143.259 196.297C143.259 195.484 142.903 194.862 142.192 194.43C141.49 193.999 140.504 193.783 139.234 193.783H131.236V190.635H139.234C140.199 190.635 140.948 190.436 141.481 190.038C142.023 189.64 142.294 189.06 142.294 188.299C142.294 187.545 142.019 186.999 141.469 186.661C140.919 186.322 140.174 186.153 139.234 186.153C138.126 186.153 137.339 186.352 136.873 186.75C136.408 187.139 136.137 187.765 136.061 188.629L132.315 188.324C132.375 186.614 133.014 185.307 134.232 184.401C135.46 183.496 137.127 183.043 139.234 183.043C141.359 183.043 143.043 183.487 144.287 184.376C145.54 185.264 146.166 186.525 146.166 188.159C146.166 189.065 145.899 189.873 145.366 190.584C144.841 191.295 144.19 191.764 143.411 191.993C144.486 192.205 145.375 192.721 146.077 193.542C146.78 194.363 147.131 195.294 147.131 196.335C147.131 198.222 146.454 199.691 145.1 200.74C143.745 201.781 141.79 202.302 139.234 202.302ZM155.713 194.037C155.713 195.467 155.823 196.525 156.043 197.211C156.263 197.896 156.635 198.4 157.16 198.721C157.685 199.043 158.425 199.204 159.382 199.204C160.338 199.204 161.079 199.043 161.604 198.721C162.128 198.4 162.501 197.896 162.721 197.211C162.941 196.525 163.051 195.467 163.051 194.037V193.478H166.809V194.316C166.809 197.245 166.203 199.305 164.993 200.499C163.791 201.692 161.921 202.289 159.382 202.289C156.843 202.289 154.968 201.692 153.758 200.499C152.556 199.297 151.955 197.236 151.955 194.316V186.509H148.794V183.36H155.713V194.037Z" fill="black"/>
</svg>
