<svg width="222" height="222" viewBox="0 0 222 222" fill="none" xmlns="http://www.w3.org/2000/svg">
<circle cx="111" cy="74.5" r="60.4714" fill="#A522E2"/>
<path fill-rule="evenodd" clip-rule="evenodd" d="M86.1923 93.3327C86.7192 93.5513 87.2844 93.6629 87.8548 93.6611C90.2475 93.6611 92.1946 91.714 92.1946 89.3214C92.1946 88.1598 91.7432 87.0691 90.923 86.2532L78.0789 73.4091L90.9216 60.5664C91.7418 59.7491 92.1946 58.6584 92.1946 57.4968C92.1946 55.1042 90.2475 53.1571 87.8548 53.1571C87.2847 53.1552 86.7199 53.2667 86.1932 53.485C85.6664 53.7032 85.1884 54.024 84.7867 54.4286L68.8758 70.3395C68.0556 71.1568 67.6028 72.2475 67.6028 73.4091C67.6028 74.5707 68.0556 75.6614 68.8744 76.4773L84.7852 92.3881C85.187 92.7931 85.6653 93.1142 86.1923 93.3327ZM129.805 90.7679C129.805 93.1606 131.753 95.1077 134.145 95.1077C134.715 95.1098 135.28 94.9985 135.807 94.7802C136.334 94.5619 136.812 94.241 137.213 93.8361L153.124 77.9253C153.944 77.108 154.397 76.0173 154.397 74.8557C154.397 73.697 153.946 72.6062 153.126 71.7875L137.215 55.8766C136.397 55.0564 135.307 54.6037 134.145 54.6037C131.753 54.6037 129.805 56.5507 129.805 58.9434C129.804 59.5134 129.916 60.0781 130.134 60.6047C130.352 61.1314 130.673 61.6095 131.077 62.0116L143.921 74.8557L131.078 87.6983C130.258 88.5156 129.805 89.6064 129.805 90.7679Z" fill="white"/>
<path d="M97.9808 106.68C97.2666 106.679 96.5637 106.502 95.9342 106.164C95.3048 105.827 94.7682 105.339 94.372 104.745C93.9759 104.151 93.7323 103.468 93.6628 102.757C93.5933 102.046 93.7002 101.329 93.9738 100.67L120.014 42.804C120.343 42.0137 120.9 41.3387 121.613 40.8643C122.325 40.3898 123.163 40.1371 124.019 40.1379C124.733 40.1391 125.436 40.3162 126.066 40.6537C126.695 40.9913 127.232 41.4787 127.628 42.073C128.024 42.6673 128.268 43.35 128.337 44.0609C128.407 44.7717 128.3 45.4887 128.026 46.1484L101.986 104.014C101.657 104.804 101.1 105.479 100.387 105.954C99.6746 106.428 98.8372 106.681 97.9808 106.68Z" fill="white" fill-opacity="0.75"/>
<path d="M98.749 168.823H101.923V171.971H94.9912V166.716C94.5511 166.978 94.0179 167.181 93.3916 167.325C92.7653 167.469 92.0755 167.541 91.3223 167.541C88.7832 167.541 86.9085 166.944 85.6982 165.751C84.4964 164.549 83.8955 162.488 83.8955 159.568V158.476H87.6533V159.289C87.6533 160.812 87.7633 161.891 87.9834 162.526C88.2119 163.152 88.5843 163.631 89.1006 163.961C89.6253 164.291 90.3659 164.456 91.3223 164.456C92.2363 164.456 92.9515 164.303 93.4678 163.999C93.984 163.686 94.3607 163.241 94.5977 162.666C94.8431 162.09 94.9743 161.108 94.9912 159.72V153.36H98.749V168.823ZM114.923 163.923H118.681V164.507C118.681 167.325 118.076 169.327 116.865 170.511C115.655 171.696 113.785 172.289 111.254 172.289C108.715 172.289 106.84 171.692 105.63 170.499C104.428 169.297 103.827 167.236 103.827 164.316V153.36H107.585V158.489H119.188V161.637H107.585V164.037C107.585 165.56 107.695 166.639 107.915 167.274C108.144 167.9 108.516 168.379 109.032 168.709C109.557 169.039 110.298 169.204 111.254 169.204C112.202 169.204 112.934 169.043 113.45 168.721C113.975 168.391 114.352 167.926 114.58 167.325C114.809 166.716 114.923 165.683 114.923 164.227V163.923ZM126.247 161.295V164.354H137.851V167.503H126.247V171.971H122.489V161.015C122.489 158.095 123.09 156.039 124.292 154.845C125.502 153.644 127.377 153.043 129.916 153.043C132.455 153.043 134.326 153.639 135.527 154.833C136.738 156.026 137.343 158.087 137.343 161.015V162.107H133.585V161.295C133.585 159.771 133.471 158.701 133.242 158.083C133.022 157.456 132.65 156.974 132.125 156.635C131.609 156.297 130.872 156.128 129.916 156.128C128.96 156.128 128.219 156.297 127.694 156.635C127.178 156.974 126.806 157.456 126.577 158.083C126.357 158.701 126.247 159.771 126.247 161.295ZM59.8506 183.36H66.7822V186.509H63.6084V194.316C63.6084 197.236 63.0033 199.297 61.793 200.499C60.5911 201.692 58.7207 202.289 56.1816 202.289C53.6426 202.289 51.7679 201.692 50.5576 200.499C49.3558 199.297 48.7549 197.236 48.7549 194.316V183.36H52.5127V194.037C52.5127 195.467 52.6227 196.525 52.8428 197.211C53.0628 197.896 53.4352 198.4 53.96 198.721C54.4847 199.043 55.2253 199.204 56.1816 199.204C57.138 199.204 57.8786 199.043 58.4033 198.721C58.9281 198.4 59.3005 197.896 59.5205 197.211C59.7406 196.525 59.8506 195.467 59.8506 194.037V183.36ZM73.6885 187.029C73.3415 186.877 72.9014 186.762 72.3682 186.686C71.8434 186.61 71.2637 186.572 70.6289 186.572H69.2578V183.36H71.6572C72.4951 183.36 73.2272 183.415 73.8535 183.525C74.4798 183.635 75.0469 183.8 75.5547 184.02L82.626 187.207V191.015L78.5508 189.2C78.2969 189.132 78.0387 189.081 77.7764 189.048C77.5225 189.014 77.2728 188.997 77.0273 188.997C75.6224 188.997 74.4671 189.492 73.5615 190.482C72.6559 191.464 72.2031 192.856 72.2031 194.659C72.2031 196.174 72.5163 197.304 73.1426 198.049C73.7689 198.793 74.7253 199.166 76.0117 199.166C77.2897 199.166 78.2376 198.827 78.8555 198.15C79.4733 197.473 79.7822 196.411 79.7822 194.964C79.7822 194.811 79.778 194.693 79.7695 194.608L83.54 193.732C83.5908 194.164 83.6162 194.617 83.6162 195.091C83.6162 197.35 82.9391 199.111 81.585 200.372C80.2393 201.624 78.3815 202.251 76.0117 202.251C73.5742 202.251 71.6784 201.595 70.3242 200.283C68.9785 198.963 68.3057 197.122 68.3057 194.76C68.3057 192.695 68.8473 190.977 69.9307 189.606C71.014 188.235 72.4147 187.444 74.1328 187.232L73.6885 187.029ZM102.824 202.53C102.164 202.234 101.601 201.942 101.136 201.654C100.679 201.366 100.272 201.083 99.917 200.803C99.333 201.277 98.6094 201.646 97.7461 201.908C96.8828 202.162 95.8333 202.289 94.5977 202.289C92.0163 202.289 90.112 201.675 88.8848 200.448C87.6576 199.212 87.0439 197.168 87.0439 194.316V183.36H90.8018V193.783C90.8018 195.425 90.9202 196.576 91.1572 197.236C91.3942 197.888 91.7878 198.379 92.3379 198.709C92.888 199.039 93.6413 199.204 94.5977 199.204C95.1647 199.204 95.6598 199.17 96.083 199.102C96.5062 199.026 96.8701 198.92 97.1748 198.785C96.887 198.633 96.5654 198.484 96.21 198.341C95.8545 198.188 95.4482 198.04 94.9912 197.896L96.0957 194.71C96.6204 194.921 97.0859 195.141 97.4922 195.37C97.8984 195.598 98.2708 195.835 98.6094 196.081C98.5924 195.725 98.5501 195.357 98.4824 194.976C98.4232 194.587 98.3936 194.189 98.3936 193.783V183.36H102.151V194.316C102.151 195.069 102.109 195.785 102.024 196.462C101.94 197.139 101.792 197.769 101.58 198.353C101.91 198.556 102.274 198.755 102.672 198.95C103.07 199.136 103.522 199.314 104.03 199.483L102.824 202.53ZM117.183 189.72V188.489H120.94V201.971H117.183V196.716C116.726 197.003 116.188 197.215 115.57 197.35C114.952 197.477 114.267 197.541 113.514 197.541C110.975 197.541 109.1 196.944 107.89 195.751C106.688 194.549 106.087 192.488 106.087 189.568V183.36H109.845V189.289C109.845 190.812 109.955 191.891 110.175 192.526C110.403 193.152 110.776 193.631 111.292 193.961C111.817 194.291 112.557 194.456 113.514 194.456C114.436 194.456 115.16 194.299 115.685 193.986C116.209 193.673 116.59 193.216 116.827 192.615C117.064 192.014 117.183 191.049 117.183 189.72ZM128.38 191.295V201.971H124.622V191.015C124.622 188.095 125.223 186.039 126.425 184.845C127.635 183.644 129.51 183.043 132.049 183.043C134.588 183.043 136.458 183.639 137.66 184.833C138.87 186.026 139.476 188.087 139.476 191.015V201.971H135.718V191.295C135.718 189.763 135.604 188.692 135.375 188.083C135.155 187.465 134.787 186.987 134.271 186.648C133.754 186.301 133.014 186.128 132.049 186.128C131.084 186.128 130.343 186.301 129.827 186.648C129.311 186.987 128.938 187.465 128.71 188.083C128.49 188.692 128.38 189.763 128.38 191.295ZM147.169 191.637V201.971H143.411V183.36H147.169V188.489H155.205V191.637H147.169ZM168.218 183.36H175.149V186.509H171.976V194.316C171.976 197.236 171.37 199.297 170.16 200.499C168.958 201.692 167.088 202.289 164.549 202.289C162.01 202.289 160.135 201.692 158.925 200.499C157.723 199.297 157.122 197.236 157.122 194.316V183.36H160.88V194.037C160.88 195.467 160.99 196.525 161.21 197.211C161.43 197.896 161.802 198.4 162.327 198.721C162.852 199.043 163.592 199.204 164.549 199.204C165.505 199.204 166.246 199.043 166.771 198.721C167.295 198.4 167.668 197.896 167.888 197.211C168.108 196.525 168.218 195.467 168.218 194.037V183.36Z" fill="black"/>
</svg>
