<svg width="321" height="277" viewBox="0 0 321 277" fill="none" xmlns="http://www.w3.org/2000/svg">
<path fill-rule="evenodd" clip-rule="evenodd" d="M217.673 0H169.45C167.241 0 165.45 1.79086 165.45 4V43.2301C165.45 45.4392 167.241 47.2301 169.45 47.2301H209.847C222.801 47.2301 232.787 50.2888 239.804 56.4062C246.911 62.5237 250.465 70.5753 250.465 80.5611C250.465 87.848 248.62 94.1004 244.932 99.3182C241.333 104.536 236.385 108.584 230.088 111.463C223.881 114.252 216.774 115.646 208.767 115.646H193.943C191.733 115.646 189.943 117.437 189.943 119.646V151.185C189.943 153.394 191.733 155.185 193.943 155.185H214.435C223.791 155.185 231.842 156.849 238.59 160.178C245.427 163.506 250.689 168.094 254.378 173.942C258.066 179.789 259.911 186.536 259.911 194.183C259.911 204.619 256.177 212.985 248.71 219.283C241.243 225.49 229.368 228.594 213.085 228.594H169.501C167.272 228.594 165.473 230.416 165.502 232.645L166.007 272.414C166.035 274.604 167.818 276.364 170.007 276.364H225.095C245.786 276.364 263.194 273.035 277.318 266.378C291.442 259.721 302.103 250.679 309.3 239.254C316.587 227.739 320.23 214.65 320.23 199.986C320.23 186.402 317.351 174.706 311.594 164.901C305.836 155.005 298.324 147.313 289.058 141.825C280.31 136.594 270.949 133.651 260.974 132.998C260.154 132.945 259.506 132.271 259.506 131.449C259.506 130.731 260.005 130.11 260.703 129.943C269.842 127.755 277.989 124.204 285.145 119.29C292.702 114.072 298.639 107.415 302.957 99.3182C307.276 91.1316 309.435 81.6406 309.435 70.8452C309.435 56.991 306.016 44.7562 299.179 34.1406C292.342 23.4351 282.131 15.0687 268.547 9.0412C254.963 3.01373 238.005 0 217.673 0Z" fill="#1E1E1E"/>
<path d="M147.865 48.5384C150.626 48.5384 152.865 46.2998 152.865 43.5384V5.36365C152.865 2.60223 150.626 0.363647 147.865 0.363647H102.5C99.7386 0.363647 97.5 2.60223 97.5 5.36365V43.5384C97.5 46.2998 99.7386 48.5384 102.5 48.5384H147.865Z" fill="#1E1E1E"/>
<path fill-rule="evenodd" clip-rule="evenodd" d="M103.5 59.8636C100.739 59.8636 98.5 62.1022 98.5 64.8636V271.727C98.5 274.489 100.739 276.727 103.5 276.727H147.865C150.626 276.727 152.865 274.489 152.865 271.727V64.8636C152.865 62.1022 150.626 59.8636 147.865 59.8636H103.5Z" fill="#FFB700"/>
<path fill-rule="evenodd" clip-rule="evenodd" d="M5 48.5384C2.23858 48.5384 0 46.2998 0 43.5384V5.36365C0 2.60223 2.23858 0.363647 5 0.363647H82.5C85.2614 0.363647 87.5 2.60222 87.5 5.36365V43.5384C87.5 46.2998 85.2614 48.5384 82.5 48.5384H5Z" fill="#FFB700"/>
<path d="M85.5 156.864C86.6046 156.864 87.5 155.968 87.5 154.864C87.5 153.759 86.6046 152.864 85.5 152.864V156.864ZM35 154.864H33C33 155.968 33.8954 156.864 35 156.864V154.864ZM45.6667 83.3636C45.6667 77.4726 40.891 72.697 35 72.697C29.109 72.697 24.3333 77.4726 24.3333 83.3636C24.3333 89.2547 29.109 94.0303 35 94.0303C40.891 94.0303 45.6667 89.2547 45.6667 83.3636ZM85.5 152.864H35V156.864H85.5V152.864ZM37 154.864L37 83.3636H33L33 154.864H37Z" fill="#1E1E1E"/>
<path d="M77 169.364C78.1046 169.364 79 170.259 79 171.364C79 172.468 78.1046 173.364 77 173.364V169.364ZM14 171.364H12C12 170.259 12.8954 169.364 14 169.364V171.364ZM24.6667 225.364C24.6667 231.255 19.891 236.03 14 236.03C8.10896 236.03 3.33334 231.255 3.33334 225.364C3.33334 219.473 8.10896 214.697 14 214.697C19.891 214.697 24.6667 219.473 24.6667 225.364ZM77 173.364H14V169.364H77V173.364ZM16 171.364L16 225.364H12V171.364H16Z" fill="#1E1E1E"/>
</svg>
