<svg width="929" height="253" viewBox="0 0 929 253" fill="none" xmlns="http://www.w3.org/2000/svg">
<path d="M456.801 243.958C456.801 245.615 455.458 246.958 453.801 246.958H412.465C410.808 246.958 409.465 245.615 409.465 243.958V67.958C409.465 66.3012 410.808 64.958 412.465 64.958H450.432C452.089 64.958 453.432 66.3012 453.432 67.958V74.0562C453.432 77.0689 457.66 78.3837 459.656 76.1268C464.201 70.987 467.95 68.603 468.719 68.1413C468.818 68.0818 468.913 68.0358 469.021 67.9932C470.479 67.4156 481.855 63.1301 493.863 64.958C502.436 65.8604 520.894 71.2624 531.761 76.682C533.463 77.531 533.797 79.7616 532.415 81.0684C528.994 84.3022 527.51 84.797 523 92.5869C519.612 98.439 517.552 105.207 516.47 109.541C515.947 111.636 513.456 112.716 511.506 111.79C503.857 108.154 494.256 106.465 488.471 106.465C481.845 106.465 476.23 108.318 471.625 112.024C467.021 115.618 463.371 122.188 460.676 131.733C458.093 141.279 456.801 161.27 456.801 191.704V243.958Z" fill="black"/>
<path d="M928.233 243.958C928.233 245.615 926.89 246.958 925.233 246.958H883.896C882.239 246.958 880.896 245.615 880.896 243.958V155.654C880.896 136.338 879.885 123.872 877.864 118.257C875.843 112.529 872.53 108.093 867.925 104.949C863.433 101.804 857.986 100.232 851.585 100.232C843.386 100.232 836.031 102.478 829.517 106.97C823.003 111.462 818.511 117.415 816.04 124.827C813.682 132.239 812.503 145.94 812.503 165.93V243.958C812.503 245.615 811.16 246.958 809.503 246.958H768.166C766.509 246.958 765.166 245.615 765.166 243.958V71.0566C765.166 69.3998 766.509 68.0566 768.166 68.0566H803.54C805.196 68.0566 806.54 69.3998 806.54 71.0566V77.7067C806.54 80.5684 810.259 81.8732 812.213 79.7821C825.845 65.1907 839.902 61.5 864.54 61.5C874.984 61.5 888.084 65.9229 896.731 69.7412C905.379 73.4473 911.892 78.2202 916.272 84.0601C920.764 89.8999 923.853 96.5259 925.537 103.938C927.334 111.35 928.233 121.963 928.233 135.776V243.958Z" fill="black"/>
<path fill-rule="evenodd" clip-rule="evenodd" d="M691.5 224.994C691.5 233.613 691.5 241.713 691.5 245.916C691.5 247.573 692.843 248.915 694.5 248.915H737.5C739.157 248.915 740.5 247.572 740.5 245.915V73.0137C740.5 71.3568 739.157 70.0137 737.5 70.0137H696.121C694.481 70.0137 693.145 71.3279 693.122 72.968C692.865 91.4019 691.5 190.953 691.5 224.994Z" fill="black"/>
<path d="M696.164 45.7559C694.507 45.7559 693.164 44.4127 693.164 42.7559V4.95703C693.164 3.30018 694.507 1.95703 696.164 1.95703H737.5C739.157 1.95703 740.5 3.30018 740.5 4.95703V42.7559C740.5 44.4127 739.157 45.7559 737.5 45.7559H696.164Z" fill="#FFB700"/>
<path fill-rule="evenodd" clip-rule="evenodd" d="M93.0747 246.958C91.4179 246.958 90.0747 245.615 90.0747 243.958V62.958C90.0747 61.3012 91.4179 59.958 93.0747 59.958H136.938C138.595 59.958 139.938 61.3012 139.938 62.958V243.958C139.938 245.615 138.595 246.958 136.938 246.958H93.0747Z" fill="black"/>
<path fill-rule="evenodd" clip-rule="evenodd" d="M90.0747 41.1035H49.8633V0H181.363H280.079C299.62 0 314.164 0.842285 323.709 2.52686C333.368 4.09912 341.959 7.46826 349.483 12.6343C357.12 17.8003 363.465 24.707 368.519 33.3545C373.573 41.8896 376.1 51.4917 376.1 62.1606C376.1 73.728 372.955 84.3408 366.666 93.999C361.943 101.385 355.906 107.358 348.556 111.92C346.189 113.389 346.485 117.325 349.075 118.351C360.439 122.856 369.448 129.45 376.1 138.135C384.186 148.691 388.229 161.101 388.229 175.364C388.229 186.594 385.589 197.544 380.311 208.213C375.145 218.77 368.014 227.249 358.917 233.65C349.933 239.939 338.814 243.813 325.562 245.273C317.252 246.172 297.206 246.733 265.423 246.958H184.363C182.706 246.958 181.363 245.615 181.363 243.958V62.958C181.363 61.3012 182.706 59.958 184.363 59.958H228.227C229.883 59.958 231.227 61.3012 231.227 62.958V95.2104C231.227 96.8673 232.57 98.2104 234.227 98.2104H263.907C283.336 98.2104 295.409 97.9297 300.125 97.3682C308.661 96.3574 315.343 93.4375 320.172 88.6084C325.113 83.667 327.584 77.2095 327.584 69.2358C327.584 61.5991 325.45 55.4224 321.183 50.7056C317.027 45.8765 310.794 42.9565 302.484 41.9458C297.542 41.3843 283.336 41.1035 259.864 41.1035H231.227H181.363H139.938H90.0747ZM234.227 139.314C232.57 139.314 231.227 140.657 231.227 142.314V202.349C231.227 204.006 232.57 205.349 234.227 205.349H277.384C295.353 205.349 306.751 204.844 311.581 203.833C318.993 202.485 325.001 199.229 329.605 194.062C334.322 188.784 336.681 181.765 336.681 173.005C336.681 165.593 334.884 159.304 331.29 154.138C327.696 148.972 322.474 145.21 315.624 142.852C308.885 140.493 294.173 139.314 271.488 139.314H234.227Z" fill="#FFB700"/>
<path d="M49.8633 0H3C1.34315 0 0 1.34315 0 3V38.1035C0 39.7604 1.34315 41.1035 3 41.1035H49.8633V0Z" fill="black"/>
<path d="M49.8633 243.958C49.8633 245.615 48.5201 246.958 46.8633 246.958H3C1.34315 246.958 0 245.615 0 243.958V62.958C0 61.3012 1.34315 59.958 3 59.958H46.8633C48.5201 59.958 49.8633 61.3012 49.8633 62.958V243.958Z" fill="#FFB700"/>
<path fill-rule="evenodd" clip-rule="evenodd" d="M561.784 122.198C561.241 123.568 559.824 124.401 558.375 124.14L521.177 117.43C519.437 117.116 518.34 115.372 518.87 113.685C523.805 97.9822 531.803 86.2327 542.865 78.4365C554.657 70.126 572.177 65.9707 595.424 65.9707C616.537 65.9707 632.26 68.4976 642.592 73.5513C652.924 78.4927 660.167 84.8379 664.323 92.5869C668.59 100.224 670.724 114.318 670.724 134.87L670.219 190.124V245.915C670.219 247.572 668.876 248.915 667.219 248.915H630.936C629.279 248.915 627.936 247.572 627.936 245.915V236.475C627.936 233.822 624.704 232.433 622.677 234.143C616.13 239.665 609.235 243.971 601.994 247.062C592.785 250.993 582.958 252.958 572.514 252.958C554.096 252.958 539.552 247.96 528.883 237.965C518.327 227.97 513.048 215.336 513.048 200.062C513.048 189.955 515.463 180.971 520.292 173.109C525.121 165.136 531.859 159.071 540.507 154.916C549.267 150.648 561.845 146.942 578.241 143.798C598.853 139.927 613.567 136.299 622.384 132.915C623.511 132.483 624.23 131.389 624.23 130.182V127.458C624.23 118.361 621.984 111.903 617.492 108.085C613 104.154 604.521 102.189 592.055 102.189C583.632 102.189 577.062 103.874 572.345 107.243C568.096 110.177 564.575 115.162 561.784 122.198ZM595.424 170.246C605.989 167.988 614.266 165.985 620.257 164.236C622.223 163.662 624.23 165.117 624.23 167.164V172.436C624.23 183.778 623.612 191.471 622.377 195.514C620.58 201.691 616.818 206.913 611.09 211.181C603.341 216.796 595.199 219.604 586.664 219.604C579.027 219.604 572.738 217.189 567.797 212.36C562.855 207.531 560.385 201.803 560.385 195.177C560.385 188.439 563.473 182.88 569.65 178.5C573.693 175.805 582.284 173.053 595.424 170.246Z" fill="black"/>
</svg>
