<svg width="357" height="97" viewBox="0 0 357 97" fill="none" xmlns="http://www.w3.org/2000/svg">
<path d="M175.687 93.6992C175.687 94.2515 175.239 94.6992 174.687 94.6992H158.481C157.929 94.6992 157.481 94.2515 157.481 93.6992V25.909C157.481 25.3567 157.929 24.909 158.481 24.909H173.391C173.943 24.909 174.391 25.3567 174.391 25.909V28.9301C174.391 29.9336 175.787 30.3629 176.434 29.5964C178.353 27.3264 179.982 26.3016 180.278 26.1252C180.311 26.1055 180.343 26.0898 180.379 26.0756C180.91 25.8654 185.303 24.2051 189.941 24.909C193.282 25.2596 200.527 27.3821 204.682 29.4879C205.249 29.7751 205.359 30.5198 204.901 30.96C203.489 32.3173 202.939 32.4176 201.147 35.5036C199.783 37.8521 198.979 40.5851 198.58 42.2309C198.41 42.9293 197.584 43.2876 196.939 42.97C193.965 41.5049 190.146 40.8253 187.867 40.8253C185.319 40.8253 183.159 41.5359 181.388 42.957C179.617 44.3351 178.213 46.8544 177.177 50.5149C176.183 54.1754 175.687 61.8409 175.687 73.5114V93.6992Z" fill="white"/>
<path d="M357 93.6992C357 94.2515 356.552 94.6992 356 94.6992H339.794C339.242 94.6992 338.794 94.2515 338.794 93.6992V59.6876C338.794 52.2805 338.406 47.5003 337.628 45.3471C336.851 43.1508 335.576 41.4497 333.806 40.2439C332.078 39.0381 329.983 38.4352 327.521 38.4352C324.368 38.4352 321.539 39.2965 319.034 41.0191C316.529 42.7417 314.801 45.0241 313.851 47.8664C312.944 50.7087 312.49 55.9625 312.49 63.6281V93.6992C312.49 94.2515 312.042 94.6992 311.49 94.6992H295.284C294.732 94.6992 294.284 94.2515 294.284 93.6992V27.0972C294.284 26.5449 294.732 26.0972 295.284 26.0972H309.197C309.749 26.0972 310.197 26.5449 310.197 27.0972V30.2453C310.197 31.1985 311.432 31.6294 312.073 30.9243C317.413 25.0537 322.844 23.583 332.504 23.583C336.52 23.583 341.559 25.279 344.884 26.7432C348.21 28.1643 350.715 29.9945 352.4 32.2339C354.128 34.4733 355.315 37.0141 355.963 39.8564C356.654 42.6986 357 46.7682 357 52.0652V93.6992Z" fill="white"/>
<path fill-rule="evenodd" clip-rule="evenodd" d="M265.952 86.2769C265.952 89.6886 265.952 92.8886 265.952 94.4514C265.952 95.0036 266.4 95.4497 266.952 95.4497H283.798C284.35 95.4497 284.798 95.002 284.798 94.4497V27.8476C284.798 27.2954 284.35 26.8476 283.798 26.8476H267.578C267.031 26.8476 266.586 27.2668 266.578 27.8135C266.486 34.4237 265.952 73.1166 265.952 86.2769Z" fill="white"/>
<path d="M267.592 17.5457C267.04 17.5457 266.592 17.098 266.592 16.5457V1.75045C266.592 1.19816 267.04 0.750449 267.592 0.750449H283.798C284.35 0.750449 284.798 1.19816 284.798 1.75045V16.5457C284.798 17.098 284.35 17.5457 283.798 17.5457H267.592Z" fill="white"/>
<path fill-rule="evenodd" clip-rule="evenodd" d="M35.6429 94.6992C35.0906 94.6992 34.6429 94.2515 34.6429 93.6992V23.9917C34.6429 23.4394 35.0906 22.9917 35.6429 22.9917H52.8204C53.3727 22.9917 53.8204 23.4394 53.8204 23.9917V93.6992C53.8204 94.2515 53.3727 94.6992 52.8204 94.6992H35.6429Z" fill="white"/>
<path fill-rule="evenodd" clip-rule="evenodd" d="M34.6429 15.7617H19.1775V0H69.7527H107.719C115.234 0 120.828 0.322985 124.499 0.968955C128.214 1.57186 131.518 2.8638 134.412 4.84478C137.349 6.82575 139.789 9.47423 141.733 12.7902C143.677 16.0631 144.649 19.7452 144.649 23.8363C144.649 28.272 143.439 32.3416 141.02 36.0451C139.13 38.9923 136.693 41.3532 133.708 43.1277C132.909 43.6028 133.006 44.9059 133.875 45.2361C138.425 46.9656 142.017 49.5434 144.649 52.9696C147.758 57.0176 149.313 61.7763 149.313 67.2455C149.313 71.552 148.298 75.7508 146.268 79.8419C144.281 83.89 141.539 87.1414 138.04 89.5961C134.585 92.0077 130.309 93.4934 125.212 94.0533C122.016 94.3978 114.306 94.6131 102.082 94.6992H70.7527C70.2004 94.6992 69.7527 94.2515 69.7527 93.6992V23.9917C69.7527 23.4394 70.2004 22.9917 70.7527 22.9917H87.9302C88.4824 22.9917 88.9302 23.4394 88.9302 23.9917V36.6601C88.9302 37.2123 89.3779 37.6601 89.9302 37.6601H101.499C108.972 37.6601 113.615 37.5524 115.429 37.3371C118.711 36.9495 121.281 35.8298 123.139 33.978C125.039 32.0832 125.989 29.607 125.989 26.5494C125.989 23.621 125.169 21.2524 123.527 19.4437C121.929 17.5919 119.532 16.4722 116.336 16.0847C114.435 15.8693 108.972 15.7617 99.9443 15.7617H88.9302H69.7527H53.8204H34.6429ZM89.9302 53.4217C89.3779 53.4217 88.9302 53.8694 88.9302 54.4217V77.7438C88.9302 78.296 89.3779 78.7438 89.9302 78.7438H106.682C113.593 78.7438 117.977 78.55 119.834 78.1624C122.685 77.6456 124.996 76.3967 126.767 74.4158C128.581 72.3917 129.488 69.7002 129.488 66.3411C129.488 63.4989 128.797 61.0872 127.415 59.1063C126.033 57.1253 124.024 55.6826 121.389 54.7783C118.798 53.8739 113.14 53.4217 104.415 53.4217H89.9302Z" fill="white"/>
<path d="M19.1775 0H1C0.447715 0 0 0.447716 0 1V14.7617C0 15.314 0.447716 15.7617 1 15.7617H19.1775V0Z" fill="white"/>
<path d="M19.1775 93.6992C19.1775 94.2515 18.7298 94.6992 18.1775 94.6992H1C0.447716 94.6992 0 94.2515 0 93.6992V23.9917C0 23.4394 0.447716 22.9917 1 22.9917H18.1775C18.7298 22.9917 19.1775 23.4394 19.1775 23.9917V93.6992Z" fill="white"/>
<path fill-rule="evenodd" clip-rule="evenodd" d="M216.016 46.9791C215.837 47.4358 215.365 47.7133 214.882 47.6265L200.281 45.0003C199.7 44.8959 199.335 44.3132 199.51 43.75C201.403 37.6503 204.496 33.0928 208.787 30.0775C213.322 26.8907 220.06 25.2973 229.001 25.2973C237.121 25.2973 243.168 26.2663 247.142 28.2042C251.116 30.099 253.902 32.5322 255.5 35.5036C257.141 38.432 257.962 43.8367 257.962 51.7175L257.767 72.9053V94.4497C257.767 95.002 257.32 95.4497 256.767 95.4497H242.505C241.953 95.4497 241.505 95.002 241.505 94.4497V90.3185C241.505 89.435 240.432 88.9736 239.761 89.5488C237.16 91.78 234.416 93.5101 231.528 94.7391C227.986 96.2464 224.207 97 220.19 97C213.106 97 207.513 95.0836 203.41 91.2509C199.349 87.4181 197.319 82.5733 197.319 76.7165C197.319 72.8407 198.248 69.3955 200.105 66.381C201.963 63.3234 204.554 60.9979 207.88 59.4045C211.249 57.7681 216.087 56.3469 222.393 55.1411C230.393 53.6429 236.084 52.2398 239.464 50.932C239.84 50.7867 240.08 50.4219 240.08 50.0192V48.8752C240.08 45.387 239.216 42.9108 237.488 41.4466C235.761 39.9393 232.5 39.1857 227.705 39.1857C224.466 39.1857 221.939 39.8316 220.125 41.1236C218.466 42.2654 217.097 44.2173 216.016 46.9791ZM229.001 65.2829C233.187 64.3912 236.439 63.6028 238.758 62.9179C239.412 62.7247 240.08 63.2091 240.08 63.8913V66.1226C240.08 70.4722 239.842 73.4221 239.367 74.9724C238.676 77.341 237.229 79.3435 235.026 80.9799C232.046 83.1332 228.915 84.2098 225.632 84.2098C222.695 84.2098 220.276 83.2839 218.376 81.4321C216.475 79.5803 215.525 77.384 215.525 74.8432C215.525 72.2593 216.713 70.1276 219.088 68.4481C220.643 67.4146 223.948 66.3595 229.001 65.2829Z" fill="white"/>
</svg>
